<svg version="1.1" viewBox="0.0 0.0 928.0 667.5774278215223" fill="none" stroke="none" stroke-linecap="square" stroke-miterlimit="10" xmlns:xlink="http://www.w3.org/1999/xlink" xmlns="http://www.w3.org/2000/svg"><clipPath id="p.0"><path d="m0 0l928.0 0l0 667.57745l-928.0 0l0 -667.57745z" clip-rule="nonzero"/></clipPath><g clip-path="url(#p.0)"><path fill="#000000" fill-opacity="0.0" d="m0 0l928.0 0l0 667.57745l-928.0 0z" fill-rule="evenodd"/><path fill="#000000" fill-opacity="0.0" d="m34.37008 38.818745l245.48032 0l0 590.42523l-245.48032 0z" fill-rule="evenodd"/><path stroke="#777777" stroke-width="4.0" stroke-linejoin="round" stroke-linecap="butt" d="m34.37008 38.818745l245.48032 0l0 590.42523l-245.48032 0z" fill-rule="evenodd"/><path fill="#ffa000" d="m124.81403 169.72884q2.765625 0 4.7031174 1.5625q1.9375 1.546875 2.265625 4.265625l-3.4375 0q-0.234375 -1.28125 -1.2656174 -2.0625q-1.015625 -0.78125 -2.265625 -0.78125q-2.09375 0 -3.25 1.53125q-1.15625 1.515625 -1.15625 4.03125q0 2.390625 1.140625 3.90625q1.15625 1.5 3.265625 1.5q1.546875 0 2.484375 -0.9375q0.9531174 -0.953125 1.1874924 -2.6875l3.453125 0q-0.3125 3.09375 -2.25 4.859375q-1.9218674 1.765625 -4.8749924 1.765625q-2.328125 0 -4.15625 -1.0625q-1.8125 -1.078125 -2.8125 -3.015625q-0.984375 -1.953125 -0.984375 -4.328125q0 -3.734375 2.171875 -6.140625q2.1875 -2.40625 5.78125 -2.40625zm13.105553 0.390625l0 13.1875l7.890625 0l0 2.984375l-11.453125 0l0 -16.171875l3.5625 0zm13.430023 0l0 16.171875l-3.5625 0l0 -16.171875l3.5625 0zm15.213074 0l0 2.984375l-8.53125 0l0 3.46875l7.828125 0l0 2.765625l-7.828125 0l0 3.96875l8.71875 0l0 2.984375l-12.28125 0l0 -16.171875l12.09375 0zm6.1175995 0l6.75 10.84375l0.046875 0l0 -10.84375l3.328125 0l0 16.171875l-3.546875 0l-6.734375 -10.828125l-0.046875 0l0 10.828125l-3.328125 0l0 -16.171875l3.53125 0zm25.246185 0l0 2.984375l-4.859375 0l0 13.1875l-3.546875 0l0 -13.1875l-4.84375 0l0 -2.984375l13.25 0z" fill-rule="nonzero"/><path fill="#000000" fill-opacity="0.0" d="m648.1601 38.818897l245.48035 0l0 315.65353l-245.48035 0z" fill-rule="evenodd"/><path stroke="#777777" stroke-width="4.0" stroke-linejoin="round" stroke-linecap="butt" d="m648.1601 38.818897l245.48035 0l0 315.65353l-245.48035 0z" fill-rule="evenodd"/><path fill="#ffa000" d="m724.11615 54.843166q2.921875 0 4.6875 1.359375q1.78125 1.359375 1.78125 3.859375l-3.4375 0q-0.078125 -1.21875 -0.84375 -1.828125q-0.75 -0.625 -2.34375 -0.625q-1.078125 0 -1.765625 0.484375q-0.6875 0.46875 -0.6875 1.359375q0 0.609375 0.28125 0.90625q0.28125 0.296875 1.171875 0.625q0.890625 0.328125 3.890625 1.03125q2.015625 0.484375 3.140625 1.65625q1.140625 1.1562538 1.140625 2.9375038q0 2.34375 -1.765625 3.765625q-1.765625 1.421875 -4.953125 1.421875q-3.0625 0 -4.984375 -1.5q-1.921875 -1.515625 -1.921875 -4.171875l0 -0.078125l3.4375 0q0.03125 1.5 1.015625 2.25q0.984375 0.734375 2.578125 0.734375q1.4375 0 2.28125 -0.515625q0.859375 -0.53125 0.859375 -1.5q0 -0.78125 -0.65625 -1.28125q-0.65625 -0.515625 -2.109375 -0.875q-1.859375 -0.421875 -3.375 -0.8906288q-1.515625 -0.46875 -2.5 -1.515625q-0.984375 -1.0625 -0.984375 -2.71875q0 -2.171875 1.734375 -3.53125q1.75 -1.359375 4.328125 -1.359375zm21.217834 0.390625l0 2.984375l-8.53125 0l0 3.46875l7.828125 0l0 2.7656288l-7.828125 0l0 3.96875l8.71875 0l0 2.984375l-12.28125 0l0 -16.171879l12.09375 0zm11.398865 0q1.953125 0 3.296875 1.265625q1.34375 1.25 1.34375 3.203125q0 1.53125 -0.640625 2.53125q-0.625 1.0 -1.921875 1.515625l0 0.046875q1.140625 0.2968788 1.75 1.3593788q0.609375 1.0625 0.671875 3.25q0.03125 2.1875 0.625 3.0l-3.5625 0q-0.3125 -0.78125 -0.421875 -2.546875q-0.171875 -2.390625 -0.8125 -3.078125q-0.625 -0.6875 -1.9375 -0.6875l-3.640625 0l0 6.3125l-3.5625 0l0 -16.171879l8.8125 0zm-1.28125 7.3125q1.109375 0 1.734375 -0.53125q0.625 -0.546875 0.625 -1.78125q0 -1.15625 -0.609375 -1.6875q-0.59375 -0.546875 -1.75 -0.546875l-3.96875 0l0 4.546875l3.96875 0zm10.752258 -7.3125l3.609375 11.375004l0.046875 0l3.640625 -11.375004l3.671875 0l-5.375 16.171879l-4.0 0l-5.25 -16.171879l3.65625 0zm24.442627 0l0 2.984375l-8.53125 0l0 3.46875l7.828125 0l0 2.7656288l-7.828125 0l0 3.96875l8.71875 0l0 2.984375l-12.28125 0l0 -16.171879l12.09375 0zm6.0863647 0l0 10.156254q0 1.75 0.796875 2.578125q0.796875 0.828125 2.53125 0.828125q1.859375 0 2.59375 -0.8125q0.75 -0.8125 0.75 -2.578125l0 -10.171879l3.546875 0l0 10.171879q0 3.0 -1.75 4.703125q-1.75 1.6875 -5.140625 1.6875q-3.421875 0 -5.15625 -1.65625q-1.734375 -1.671875 -1.734375 -4.734375l0 -10.171879l3.5625 0zm22.10553 0q1.953125 0 3.296875 1.265625q1.34375 1.25 1.34375 3.203125q0 1.53125 -0.640625 2.53125q-0.625 1.0 -1.921875 1.515625l0 0.046875q1.140625 0.2968788 1.75 1.3593788q0.609375 1.0625 0.671875 3.25q0.03125 2.1875 0.625 3.0l-3.5625 0q-0.3125 -0.78125 -0.421875 -2.546875q-0.171875 -2.390625 -0.8125 -3.078125q-0.625 -0.6875 -1.9375 -0.6875l-3.640625 0l0 6.3125l-3.5625 0l0 -16.171879l8.8125 0zm-1.28125 7.3125q1.109375 0 1.734375 -0.53125q0.625 -0.546875 0.625 -1.78125q0 -1.15625 -0.609375 -1.6875q-0.59375 -0.546875 -1.75 -0.546875l-3.96875 0l0 4.546875l3.96875 0z" fill-rule="nonzero"/><path fill="#000000" fill-opacity="0.0" d="m722.47797 134.53162l96.81891 0l0 59.212585l-96.81891 0z" fill-rule="evenodd"/><path stroke="#777777" stroke-width="2.0" stroke-linejoin="round" stroke-linecap="butt" d="m722.47797 134.53162l96.81891 0l0 59.212585l-96.81891 0z" fill-rule="evenodd"/><path fill="#ffa000" d="m737.9656 157.05666l5.953125 9.578125l0.046875 0l0 -9.578125l2.9375 0l0 14.28125l-3.140625 0l-5.9375 -9.5625l-0.046875 0l0 9.5625l-2.9375 0l0 -14.28125l3.125 0zm16.433594 3.671875q2.421875 0 3.890625 1.5q1.46875 1.484375 1.46875 3.953125q0 2.46875 -1.484375 3.953125q-1.484375 1.484375 -3.875 1.484375q-2.40625 0 -3.875 -1.484375q-1.46875 -1.5 -1.46875 -3.953125q0 -2.453125 1.4375 -3.953125q1.453125 -1.5 3.90625 -1.5zm-2.5 5.453125q0 1.625 0.65625 2.46875q0.671875 0.828125 1.84375 0.828125q1.203125 0 1.859375 -0.859375q0.65625 -0.859375 0.65625 -2.4375q0 -1.546875 -0.640625 -2.4375q-0.625 -0.890625 -1.90625 -0.890625q-1.140625 0 -1.8125 0.828125q-0.65625 0.828125 -0.65625 2.5zm19.763672 -9.125l0 14.28125l-2.703125 0l0 -1.3125l-0.03125 0q-0.46875 0.78125 -1.28125 1.1875q-0.796875 0.40625 -1.859375 0.40625q-2.109375 0 -3.375 -1.546875q-1.265625 -1.5625 -1.265625 -4.0q0 -2.296875 1.234375 -3.8125q1.25 -1.53125 3.34375 -1.53125q0.96875 0 1.765625 0.390625q0.8125 0.390625 1.296875 1.140625l0.046875 0l0 -5.203125l2.828125 0zm-7.671875 9.09375q0 1.453125 0.671875 2.390625q0.671875 0.9375 1.828125 0.9375q1.171875 0 1.796875 -0.875q0.640625 -0.875 0.640625 -2.46875q0 -1.5 -0.625 -2.390625q-0.609375 -0.890625 -1.828125 -0.890625q-1.1875 0 -1.84375 0.890625q-0.640625 0.890625 -0.640625 2.40625zm14.591797 -5.421875q2.296875 0 3.671875 1.578125q1.375 1.5625 1.375 4.015625l-0.03125 0.53125l-7.453125 0q0.0625 1.34375 0.6875 1.984375q0.640625 0.640625 1.84375 0.640625q0.765625 0 1.421875 -0.390625q0.65625 -0.390625 0.828125 -0.953125l2.5 0q-0.578125 1.75 -1.78125 2.625q-1.203125 0.859375 -3.0625 0.859375q-2.390625 0 -3.84375 -1.515625q-1.4375 -1.515625 -1.4375 -3.921875q0 -2.3125 1.46875 -3.875q1.484375 -1.578125 3.8125 -1.578125zm-2.4375 4.328125l4.609375 0q-0.203125 -1.140625 -0.734375 -1.671875q-0.53125 -0.53125 -1.53125 -0.53125q-1.03125 0 -1.640625 0.59375q-0.609375 0.578125 -0.703125 1.609375zm17.796875 -8.0l0 9.875q0 2.296875 -1.203125 3.53125q-1.1875 1.21875 -3.546875 1.21875q-2.078125 0 -3.390625 -1.171875q-1.3125 -1.1875 -1.3125 -3.171875l0 -1.328125l2.828125 0l0 0.546875q0 1.421875 0.453125 1.953125q0.46875 0.515625 1.375 0.515625q0.828125 0 1.25 -0.4375q0.421875 -0.4375 0.421875 -1.765625l0 -9.765625l3.125 0zm7.685547 -0.34375q2.59375 0 4.15625 1.203125q1.5625 1.203125 1.5625 3.40625l-3.046875 0q-0.0625 -1.078125 -0.734375 -1.609375q-0.65625 -0.546875 -2.0625 -0.546875q-0.953125 0 -1.5625 0.421875q-0.609375 0.40625 -0.609375 1.1875q0 0.546875 0.25 0.8125q0.25 0.25 1.03125 0.546875q0.796875 0.28125 3.4375 0.90625q1.78125 0.4375 2.765625 1.46875q1.0 1.015625 1.0 2.59375q0 2.0625 -1.546875 3.328125q-1.546875 1.25 -4.375 1.25q-2.6875 0 -4.390625 -1.328125q-1.703125 -1.328125 -1.703125 -3.671875l0 -0.078125l3.03125 0q0.03125 1.328125 0.890625 1.984375q0.875 0.65625 2.28125 0.65625q1.265625 0 2.015625 -0.46875q0.765625 -0.46875 0.765625 -1.3125q0 -0.703125 -0.578125 -1.140625q-0.578125 -0.4375 -1.859375 -0.765625q-1.640625 -0.375 -2.984375 -0.78125q-1.328125 -0.421875 -2.203125 -1.34375q-0.875 -0.9375 -0.875 -2.390625q0 -1.9375 1.53125 -3.125q1.546875 -1.203125 3.8125 -1.203125z" fill-rule="nonzero"/><path fill="#000000" fill-opacity="0.0" d="m722.47797 253.0482l0 0c0 6.6839447 21.673645 12.102371 48.409485 12.102371c26.735779 0 48.409424 -5.4184265 48.409424 -12.102371l0 78.69292c0 6.6839294 -21.673645 12.102356 -48.409424 12.102356c-26.73584 0 -48.409485 -5.4184265 -48.409485 -12.102356z" fill-rule="evenodd"/><path fill="#000000" fill-opacity="0.0" d="m722.47797 253.0482l0 0c0 -6.68396 21.673645 -12.102371 48.409485 -12.102371c26.735779 0 48.409424 5.4184113 48.409424 12.102371l0 0c0 6.6839447 -21.673645 12.102371 -48.409424 12.102371c-26.73584 0 -48.409485 -5.4184265 -48.409485 -12.102371z" fill-rule="evenodd"/><path fill="#000000" fill-opacity="0.0" d="m819.2969 253.0482l0 0c0 6.6839447 -21.673645 12.102371 -48.409424 12.102371c-26.73584 0 -48.409485 -5.4184265 -48.409485 -12.102371l0 0c0 -6.68396 21.673645 -12.102371 48.409485 -12.102371c26.735779 0 48.409424 5.4184113 48.409424 12.102371l0 78.69292c0 6.6839294 -21.673645 12.102356 -48.409424 12.102356c-26.73584 0 -48.409485 -5.4184265 -48.409485 -12.102356l0 -78.69292" fill-rule="evenodd"/><path fill="#ffffff" fill-opacity="0.4" d="m722.47797 253.0482l0 0c0 -6.68396 21.673645 -12.102371 48.409485 -12.102371c26.735779 0 48.409424 5.4184113 48.409424 12.102371l0 0c0 6.6839447 -21.673645 12.102371 -48.409424 12.102371c-26.73584 0 -48.409485 -5.4184265 -48.409485 -12.102371z" fill-rule="evenodd"/><path stroke="#777777" stroke-width="2.0" stroke-linejoin="round" stroke-linecap="butt" d="m819.2969 253.0482l0 0c0 6.6839447 -21.673645 12.102371 -48.409424 12.102371c-26.73584 0 -48.409485 -5.4184265 -48.409485 -12.102371l0 0c0 -6.68396 21.673645 -12.102371 48.409485 -12.102371c26.735779 0 48.409424 5.4184113 48.409424 12.102371l0 78.69292c0 6.6839294 -21.673645 12.102356 -48.409424 12.102356c-26.73584 0 -48.409485 -5.4184265 -48.409485 -12.102356l0 -78.69292" fill-rule="evenodd"/><path fill="#ffa000" d="m743.35913 279.3646l3.34375 9.8125l0.046875 0l3.140625 -9.765625l0.03125 -0.046875l4.40625 0l0 14.28125l-2.953125 0l0 -10.125l-0.03125 0l-3.5 10.125l-2.421875 0l-3.5 -10.015625l-0.046875 0l0 10.015625l-2.9375 0l0 -14.28125l4.421875 0zm18.457031 3.671875q2.421875 0 3.890625 1.5q1.46875 1.484375 1.46875 3.953125q0 2.46875 -1.484375 3.953125q-1.484375 1.484375 -3.875 1.484375q-2.40625 0 -3.875 -1.484375q-1.46875 -1.5 -1.46875 -3.953125q0 -2.453125 1.4375 -3.953125q1.453125 -1.5 3.90625 -1.5zm-2.5 5.453125q0 1.625 0.65625 2.46875q0.671875 0.828125 1.84375 0.828125q1.203125 0 1.859375 -0.859375q0.65625 -0.859375 0.65625 -2.4375q0 -1.546875 -0.640625 -2.4375q-0.625 -0.890625 -1.90625 -0.890625q-1.140625 0 -1.8125 0.828125q-0.65625 0.828125 -0.65625 2.5zm15.623047 -5.453125q1.984375 0 2.875 1.0q0.890625 1.0 0.890625 3.140625l0 6.46875l-2.84375 0l0 -5.921875q0 -1.21875 -0.421875 -1.828125q-0.40625 -0.625 -1.390625 -0.625q-1.1875 0 -1.703125 0.703125q-0.5 0.703125 -0.5 2.15625l0 5.515625l-2.84375 0l0 -10.34375l2.703125 0l0 1.453125l0.0625 0q0.515625 -0.84375 1.34375 -1.28125q0.828125 -0.4375 1.828125 -0.4375zm10.042969 0q1.125 0 1.859375 0.421875q0.75 0.40625 1.21875 1.21875l0.046875 0l0 -1.375l2.6875 0l0 9.765625q0 2.078125 -1.328125 3.28125q-1.3125 1.21875 -4.015625 1.21875q-1.828125 0 -3.140625 -0.875q-1.296875 -0.875 -1.421875 -2.453125l2.8125 0q0.1875 0.75 0.734375 1.078125q0.546875 0.34375 1.375 0.34375q1.09375 0 1.6875 -0.65625q0.609375 -0.65625 0.609375 -1.828125l0 -1.4375l-0.046875 0q-0.421875 0.765625 -1.234375 1.1875q-0.8125 0.421875 -1.875 0.421875q-2.078125 0 -3.25 -1.390625q-1.15625 -1.390625 -1.15625 -3.8125q0 -2.1875 1.203125 -3.640625q1.21875 -1.46875 3.234375 -1.46875zm-1.59375 5.078125q0 1.453125 0.59375 2.28125q0.609375 0.8125 1.703125 0.8125q1.109375 0 1.765625 -0.8125q0.65625 -0.828125 0.65625 -2.0625q0 -1.515625 -0.625 -2.34375q-0.609375 -0.828125 -1.8125 -0.828125q-1.0625 0 -1.671875 0.8125q-0.609375 0.796875 -0.609375 2.140625zm14.716797 -5.078125q2.421875 0 3.890625 1.5q1.46875 1.484375 1.46875 3.953125q0 2.46875 -1.484375 3.953125q-1.484375 1.484375 -3.875 1.484375q-2.40625 0 -3.875 -1.484375q-1.46875 -1.5 -1.46875 -3.953125q0 -2.453125 1.4375 -3.953125q1.453125 -1.5 3.90625 -1.5zm-2.5 5.453125q0 1.625 0.65625 2.46875q0.671875 0.828125 1.84375 0.828125q1.203125 0 1.859375 -0.859375q0.65625 -0.859375 0.65625 -2.4375q0 -1.546875 -0.640625 -2.4375q-0.625 -0.890625 -1.90625 -0.890625q-1.140625 0 -1.8125 0.828125q-0.65625 0.828125 -0.65625 2.5z" fill-rule="nonzero"/><path fill="#ffa000" d="m764.07495 303.3646q2.84375 0 4.609375 1.859375q1.78125 1.859375 1.78125 5.203125q0 3.34375 -1.734375 5.28125q-1.734375 1.9375 -4.65625 1.9375l-6.265625 0l0 -14.28125l6.265625 0zm-0.25 11.640625q1.5 0 2.484375 -1.078125q1.0 -1.078125 1.0 -3.21875q0 -2.46875 -1.03125 -3.578125q-1.03125 -1.125 -3.0 -1.125l-2.328125 0l0 9.0l2.875 0zm15.636719 -11.640625q2.1875 0 3.3125 0.875q1.140625 0.859375 1.140625 2.65625q0 1.09375 -0.515625 1.828125q-0.5 0.71875 -1.421875 1.15625q1.296875 0.390625 1.953125 1.328125q0.671875 0.921875 0.671875 2.296875q0 1.96875 -1.4375 3.0625q-1.421875 1.078125 -3.515625 1.078125l-7.015625 0l0 -14.28125l6.828125 0zm-0.453125 5.78125q0.84375 0 1.359375 -0.421875q0.515625 -0.4375 0.515625 -1.28125q0 -0.828125 -0.53125 -1.234375q-0.53125 -0.40625 -1.546875 -0.40625l-3.03125 0l0 3.34375l3.234375 0zm0.203125 6.0625q1.046875 0 1.640625 -0.453125q0.609375 -0.46875 0.609375 -1.421875q0 -1.015625 -0.5625 -1.53125q-0.5625 -0.515625 -1.625 -0.515625l-3.5 0l0 3.921875l3.4375 0z" fill-rule="nonzero"/><path fill="#000000" fill-opacity="0.0" d="m397.83905 120.318695l110.262024 0l22.052917 22.052933l0 129.31715l-132.31494 0z" fill-rule="evenodd"/><path stroke="#777777" stroke-width="2.0" stroke-linejoin="round" stroke-linecap="butt" d="m397.83905 120.318695l110.262024 0l22.052917 22.052933l0 129.31715l-132.31494 0z" fill-rule="evenodd"/><path fill="#ffa000" d="m428.76315 164.80135q1.890625 0 3.0625 1.25q1.1875 1.234375 1.1875 3.453125q0 2.234375 -1.15625 3.53125q-1.140625 1.28125 -3.09375 1.28125l-4.171875 0l0 -9.515625l4.171875 0zm-0.171875 7.765625q1.0 0 1.65625 -0.71875q0.671875 -0.734375 0.671875 -2.15625q0 -1.640625 -0.6875 -2.375q-0.6875 -0.75 -2.0 -0.75l-1.546875 0l0 6.0l1.90625 0zm10.144562 -8.0q2.125 0 3.390625 1.4375q1.28125 1.421875 1.28125 3.59375q0 2.125 -1.28125 3.546875q-1.28125 1.40625 -3.390625 1.40625q-1.375 0 -2.453125 -0.625q-1.0625 -0.640625 -1.65625 -1.78125q-0.578125 -1.140625 -0.578125 -2.546875q0 -2.203125 1.28125 -3.609375q1.296875 -1.421875 3.40625 -1.421875zm-2.59375 5.03125q0 1.40625 0.671875 2.296875q0.671875 0.890625 1.921875 0.890625q1.234375 0 1.90625 -0.875q0.671875 -0.875 0.671875 -2.3125q0 -1.5 -0.6875 -2.375q-0.6875 -0.890625 -1.90625 -0.890625q-1.21875 0 -1.90625 0.890625q-0.671875 0.890625 -0.671875 2.375zm10.773315 -4.796875l3.96875 6.390625l0.03125 0l0 -6.390625l1.953125 0l0 9.515625l-2.09375 0l-3.953125 -6.375l-0.03125 0l0 6.375l-1.953125 0l0 -9.515625l2.078125 0zm9.878937 0l3.96875 6.390625l0.03125 0l0 -6.390625l1.953125 0l0 9.515625l-2.09375 0l-3.953125 -6.375l-0.03125 0l0 6.375l-1.953125 0l0 -9.515625l2.078125 0zm14.910217 0l0 1.765625l-5.015625 0l0 2.03125l4.609375 0l0 1.625l-4.609375 0l0 2.34375l5.125 0l0 1.75l-7.21875 0l0 -9.515625l7.109375 0zm-0.921875 -2.765625l-2.0625 1.90625l-1.3125 0l1.28125 -1.90625l2.09375 0zm9.557831 2.765625l0 1.765625l-5.015625 0l0 2.03125l4.609375 0l0 1.625l-4.609375 0l0 2.34375l5.125 0l0 1.75l-7.21875 0l0 -9.515625l7.109375 0zm4.807831 -0.234375q1.71875 0 2.75 0.8125q1.046875 0.796875 1.046875 2.265625l-2.015625 0q-0.046875 -0.71875 -0.5 -1.078125q-0.4375 -0.359375 -1.375 -0.359375q-0.640625 0 -1.046875 0.28125q-0.40625 0.265625 -0.40625 0.796875q0 0.359375 0.171875 0.53125q0.171875 0.171875 0.6875 0.375q0.53125 0.1875 2.296875 0.59375q1.1875 0.296875 1.84375 0.984375q0.671875 0.671875 0.671875 1.71875q0 1.390625 -1.046875 2.234375q-1.03125 0.828125 -2.90625 0.828125q-1.796875 0 -2.9375 -0.890625q-1.125 -0.890625 -1.125 -2.453125l0 -0.046875l2.03125 0q0 0.890625 0.578125 1.328125q0.578125 0.421875 1.515625 0.421875q0.859375 0 1.359375 -0.296875q0.5 -0.3125 0.5 -0.875q0 -0.46875 -0.390625 -0.765625q-0.375 -0.296875 -1.234375 -0.515625q-1.09375 -0.234375 -1.984375 -0.515625q-0.890625 -0.28125 -1.484375 -0.890625q-0.578125 -0.625 -0.578125 -1.59375q0 -1.28125 1.03125 -2.078125q1.03125 -0.8125 2.546875 -0.8125zm7.3520813 2.984375l0 2.046875l-2.09375 0l0 -2.046875l2.09375 0zm0 4.71875l0 2.046875l-2.09375 0l0 -2.046875l2.09375 0z" fill-rule="nonzero"/><path fill="#777777" d="m446.81393 196.80135l0 6.578125q0 1.53125 -0.796875 2.359375q-0.796875 0.8125 -2.359375 0.8125q-1.390625 0 -2.265625 -0.78125q-0.875 -0.796875 -0.875 -2.125l0 -0.875l1.890625 0l0 0.359375q0 0.953125 0.296875 1.3125q0.3125 0.34375 0.921875 0.34375q0.546875 0 0.828125 -0.296875q0.28125 -0.296875 0.28125 -1.1875l0 -6.5l2.078125 0zm5.1312256 -0.234375q1.71875 0 2.75 0.8125q1.046875 0.796875 1.046875 2.265625l-2.015625 0q-0.046875 -0.71875 -0.5 -1.078125q-0.4375 -0.359375 -1.375 -0.359375q-0.640625 0 -1.046875 0.28125q-0.40625 0.265625 -0.40625 0.796875q0 0.359375 0.171875 0.53125q0.171875 0.171875 0.6875 0.375q0.53125 0.1875 2.296875 0.59375q1.1875 0.296875 1.84375 0.984375q0.671875 0.671875 0.671875 1.71875q0 1.390625 -1.046875 2.234375q-1.03125 0.828125 -2.90625 0.828125q-1.796875 0 -2.9375 -0.890625q-1.125 -0.890625 -1.125 -2.453125l0 -0.046875l2.03125 0q0 0.890625 0.578125 1.328125q0.578125 0.421875 1.515625 0.421875q0.859375 0 1.359375 -0.296875q0.5 -0.3125 0.5 -0.875q0 -0.46875 -0.390625 -0.765625q-0.375 -0.296875 -1.234375 -0.515625q-1.09375 -0.234375 -1.984375 -0.515625q-0.890625 -0.28125 -1.484375 -0.890625q-0.578125 -0.625 -0.578125 -1.59375q0 -1.28125 1.03125 -2.078125q1.03125 -0.8125 2.546875 -0.8125zm9.633331 0q2.1250305 0 3.3906555 1.4375q1.28125 1.421875 1.28125 3.59375q0 2.125 -1.28125 3.546875q-1.28125 1.40625 -3.3906555 1.40625q-1.375 0 -2.453125 -0.625q-1.0625 -0.640625 -1.65625 -1.78125q-0.578125 -1.140625 -0.578125 -2.546875q0 -2.203125 1.28125 -3.609375q1.296875 -1.421875 3.40625 -1.421875zm-2.59375 5.03125q0 1.40625 0.671875 2.296875q0.671875 0.890625 1.921875 0.890625q1.2344055 0 1.9062805 -0.875q0.671875 -0.875 0.671875 -2.3125q0 -1.5 -0.6875 -2.375q-0.6875 -0.890625 -1.9062805 -0.890625q-1.21875 0 -1.90625 0.890625q-0.671875 0.890625 -0.671875 2.375zm10.773315 -4.796875l3.96875 6.390625l0.03125 0l0 -6.390625l1.953125 0l0 9.515625l-2.09375 0l-3.953125 -6.375l-0.03125 0l0 6.375l-1.953125 0l0 -9.515625l2.078125 0z" fill-rule="nonzero"/><path fill="#777777" d="m446.65167 212.80135l1.875 3.046875l1.921875 -3.046875l2.296875 0l-3.046875 4.546875l3.3125 4.96875l-2.5 0l-2.0625 -3.296875l-2.125 3.296875l-2.359375 0l3.328125 -4.984375l-3.0625 -4.53125l2.421875 0zm10.1397705 0l2.234375 6.546875l0.03125 0l2.09375 -6.515625l0.015625 -0.03125l2.9375 0l0 9.515625l-1.96875 0l0 -6.734375l-0.015625 0l-2.328125 6.734375l-1.625 0l-2.328125 -6.671875l-0.03125 0l0 6.671875l-1.953125 0l0 -9.515625l2.9375 0zm11.247894 0l0 7.765625l4.640625 0l0 1.75l-6.734375 0l0 -9.515625l2.09375 0z" fill-rule="nonzero"/><path fill="#777777" d="m455.81943 236.2701l0 2.046875l-2.09375 0l0 -2.046875l2.09375 0zm3.7029724 0l0 2.046875l-2.09375 0l0 -2.046875l2.09375 0zm3.703003 0l0 2.046875l-2.09375 0l0 -2.046875l2.09375 0z" fill-rule="nonzero"/><path fill="#000000" fill-opacity="0.0" d="m74.94868 228.48912l110.26203 0l22.052933 22.052933l0 129.31714l-132.31497 0z" fill-rule="evenodd"/><path stroke="#777777" stroke-width="2.0" stroke-linejoin="round" stroke-linecap="butt" d="m74.94868 228.48912l110.26203 0l22.052933 22.052933l0 129.31714l-132.31497 0z" fill-rule="evenodd"/><path fill="#ffa000" d="m95.40525 248.97177q1.140625 0 1.9375 0.75q0.796875 0.734375 0.796875 1.875q0 0.90625 -0.375 1.5q-0.375 0.578125 -1.140625 0.890625l0 0.015625q0.671875 0.1875 1.03125 0.8125q0.359375 0.625 0.390625 1.90625q0.015625 1.296875 0.375 1.765625l-2.109375 0q-0.171875 -0.46875 -0.234375 -1.5q-0.109375 -1.40625 -0.484375 -1.8125q-0.375 -0.40625 -1.140625 -0.40625l-2.140625 0l0 3.71875l-2.09375 0l0 -9.515625l5.1875 0zm-0.765625 4.296875q0.65625 0 1.015625 -0.3125q0.375 -0.3125 0.375 -1.046875q0 -0.671875 -0.359375 -0.984375q-0.34375 -0.328125 -1.03125 -0.328125l-2.328125 0l0 2.671875l2.328125 0zm12.312653 -4.296875l0 1.765625l-5.015625 0l0 2.03125l4.609375 0l0 1.625l-4.609375 0l0 2.34375l5.125 0l0 1.75l-7.21875 0l0 -9.515625l7.109375 0zm4.807831 -0.234375q1.71875 0 2.75 0.8125q1.046875 0.796875 1.046875 2.265625l-2.015625 0q-0.046875 -0.71875 -0.5 -1.078125q-0.4375 -0.359375 -1.375 -0.359375q-0.640625 0 -1.046875 0.28125q-0.40625 0.265625 -0.40625 0.796875q0 0.359375 0.171875 0.53125q0.171875 0.171875 0.6875 0.375q0.53125 0.1875 2.296875 0.59375q1.1875 0.296875 1.84375 0.984375q0.671875 0.671875 0.671875 1.71875q0 1.390625 -1.046875 2.234375q-1.03125 0.828125 -2.90625 0.828125q-1.796875 0 -2.9375 -0.890625q-1.125 -0.890625 -1.125 -2.453125l0 -0.046875l2.03125 0q0 0.890625 0.578125 1.328125q0.578125 0.421875 1.515625 0.421875q0.859375 0 1.359375 -0.296875q0.5 -0.3125 0.5 -0.875q0 -0.46875 -0.390625 -0.765625q-0.375 -0.296875 -1.234375 -0.515625q-1.09375 -0.234375 -1.984375 -0.515625q-0.890625 -0.28125 -1.484375 -0.890625q-0.578125 -0.625 -0.578125 -1.59375q0 -1.28125 1.03125 -2.078125q1.03125 -0.8125 2.546875 -0.8125zm8.648972 0q1.71875 0 2.75 0.8125q1.046875 0.796875 1.046875 2.265625l-2.015625 0q-0.046875 -0.71875 -0.5 -1.078125q-0.4375 -0.359375 -1.375 -0.359375q-0.640625 0 -1.046875 0.28125q-0.40625 0.265625 -0.40625 0.796875q0 0.359375 0.171875 0.53125q0.171875 0.171875 0.6875 0.375q0.53125 0.1875 2.296875 0.59375q1.1875 0.296875 1.84375 0.984375q0.671875 0.671875 0.671875 1.71875q0 1.390625 -1.046875 2.234375q-1.03125 0.828125 -2.90625 0.828125q-1.796875 0 -2.9375 -0.890625q-1.125 -0.890625 -1.125 -2.453125l0 -0.046875l2.03125 0q0 0.890625 0.578125 1.328125q0.578125 0.421875 1.515625 0.421875q0.859375 0 1.359375 -0.296875q0.5 -0.3125 0.5 -0.875q0 -0.46875 -0.390625 -0.765625q-0.375 -0.296875 -1.234375 -0.515625q-1.09375 -0.234375 -1.984375 -0.515625q-0.890625 -0.28125 -1.484375 -0.890625q-0.578125 -0.625 -0.578125 -1.59375q0 -1.28125 1.03125 -2.078125q1.03125 -0.8125 2.546875 -0.8125zm9.633354 0q2.125 0 3.390625 1.4375q1.28125 1.421875 1.28125 3.59375q0 2.125 -1.28125 3.546875q-1.28125 1.40625 -3.390625 1.40625q-1.375 0 -2.4531326 -0.625q-1.0625 -0.640625 -1.65625 -1.78125q-0.578125 -1.140625 -0.578125 -2.546875q0 -2.203125 1.28125 -3.609375q1.296875 -1.421875 3.4062576 -1.421875zm-2.5937576 5.03125q0 1.40625 0.6718826 2.296875q0.671875 0.890625 1.921875 0.890625q1.234375 0 1.90625 -0.875q0.671875 -0.875 0.671875 -2.3125q0 -1.5 -0.6875 -2.375q-0.6875 -0.890625 -1.90625 -0.890625q-1.21875 0 -1.90625 0.890625q-0.6718826 0.890625 -0.6718826 2.375zm10.742058 -4.796875l0 5.96875q0 1.03125 0.46875 1.53125q0.48435974 0.484375 1.4999847 0.484375q1.09375 0 1.53125 -0.484375q0.4375 -0.484375 0.4375 -1.515625l0 -5.984375l2.09375 0l0 5.984375q0 1.765625 -1.03125 2.765625q-1.03125 1.0 -3.03125 1.0q-2.0156097 0 -3.0468597 -0.984375q-1.015625 -0.984375 -1.015625 -2.78125l0 -5.984375l2.09375 0zm13.019562 0q1.140625 0 1.9375 0.75q0.796875 0.734375 0.796875 1.875q0 0.90625 -0.375 1.5q-0.375 0.578125 -1.140625 0.890625l0 0.015625q0.671875 0.1875 1.03125 0.8125q0.359375 0.625 0.390625 1.90625q0.015625 1.296875 0.375 1.765625l-2.109375 0q-0.171875 -0.46875 -0.234375 -1.5q-0.109375 -1.40625 -0.484375 -1.8125q-0.375 -0.40625 -1.140625 -0.40625l-2.140625 0l0 3.71875l-2.09375 0l0 -9.515625l5.1875 0zm-0.765625 4.296875q0.65625 0 1.015625 -0.3125q0.375 -0.3125 0.375 -1.046875q0 -0.671875 -0.359375 -0.984375q-0.34375 -0.328125 -1.03125 -0.328125l-2.328125 0l0 2.671875l2.328125 0zm9.468903 -4.53125q1.625 0 2.765625 0.921875q1.140625 0.921875 1.328125 2.515625l-2.015625 0q-0.140625 -0.75 -0.75 -1.203125q-0.59375 -0.46875 -1.328125 -0.46875q-1.234375 0 -1.921875 0.890625q-0.671875 0.890625 -0.671875 2.375q0 1.40625 0.671875 2.296875q0.671875 0.890625 1.921875 0.890625q0.90625 0 1.453125 -0.5625q0.5625 -0.5625 0.703125 -1.5625l2.03125 0q-0.1875 1.8125 -1.328125 2.859375q-1.125 1.03125 -2.859375 1.03125q-1.375 0 -2.453125 -0.625q-1.0625 -0.640625 -1.65625 -1.78125q-0.578125 -1.140625 -0.578125 -2.546875q0 -2.1875 1.28125 -3.609375q1.296875 -1.421875 3.40625 -1.421875zm12.722702 0.234375l0 1.765625l-5.015625 0l0 2.03125l4.609375 0l0 1.625l-4.609375 0l0 2.34375l5.125 0l0 1.75l-7.21875 0l0 -9.515625l7.109375 0zm4.807831 -0.234375q1.71875 0 2.75 0.8125q1.046875 0.796875 1.046875 2.265625l-2.015625 0q-0.046875 -0.71875 -0.5 -1.078125q-0.4375 -0.359375 -1.375 -0.359375q-0.640625 0 -1.046875 0.28125q-0.40625 0.265625 -0.40625 0.796875q0 0.359375 0.171875 0.53125q0.171875 0.171875 0.6875 0.375q0.53125 0.1875 2.296875 0.59375q1.1875 0.296875 1.84375 0.984375q0.671875 0.671875 0.671875 1.71875q0 1.390625 -1.046875 2.234375q-1.03125 0.828125 -2.90625 0.828125q-1.796875 0 -2.9375 -0.890625q-1.125 -0.890625 -1.125 -2.453125l0 -0.046875l2.03125 0q0 0.890625 0.578125 1.328125q0.578125 0.421875 1.515625 0.421875q0.859375 0 1.359375 -0.296875q0.5 -0.3125 0.5 -0.875q0 -0.46875 -0.390625 -0.765625q-0.375 -0.296875 -1.234375 -0.515625q-1.09375 -0.234375 -1.984375 -0.515625q-0.890625 -0.28125 -1.484375 -0.890625q-0.578125 -0.625 -0.578125 -1.59375q0 -1.28125 1.03125 -2.078125q1.03125 -0.8125 2.546875 -0.8125z" fill-rule="nonzero"/><path fill="#ffa000" d="m100.18259 264.7374q1.71875 0 2.75 0.8125q1.046875 0.796875 1.046875 2.265625l-2.015625 0q-0.046875 -0.71875 -0.5 -1.078125q-0.4375 -0.359375 -1.375 -0.359375q-0.640625 0 -1.046875 0.28125q-0.40625 0.265625 -0.40625 0.796875q0 0.359375 0.171875 0.53125q0.171875 0.171875 0.6875 0.375q0.53125 0.1875 2.296875 0.59375q1.1875 0.296875 1.84375 0.984375q0.671875 0.671875 0.671875 1.71875q0 1.390625 -1.046875 2.234375q-1.03125 0.828125 -2.90625 0.828125q-1.796875 0 -2.9375 -0.890625q-1.125 -0.890625 -1.125 -2.453125l0 -0.046875l2.03125 0q0 0.890625 0.578125 1.328125q0.578125 0.421875 1.515625 0.421875q0.859375 0 1.359375 -0.296875q0.5 -0.3125 0.5 -0.875q0 -0.46875 -0.390625 -0.765625q-0.375 -0.296875 -1.234375 -0.515625q-1.09375 -0.234375 -1.984375 -0.515625q-0.890625 -0.28125 -1.484375 -0.890625q-0.578125 -0.625 -0.578125 -1.59375q0 -1.28125 1.03125 -2.078125q1.03125 -0.8125 2.546875 -0.8125zm12.414597 0.234375l0 1.765625l-2.859375 0l0 7.75l-2.078125 0l0 -7.75l-2.859375 0l0 -1.765625l7.796875 0zm5.8288574 0l3.5625 9.515625l-2.171875 0l-0.71875 -2.125l-3.5625 0l-0.734375 2.125l-2.125 0l3.609375 -9.515625l2.140625 0zm-1.09375 2.34375l-1.25 3.5l2.46875 0l-1.1875 -3.5l-0.03125 0zm12.536804 -2.34375l0 1.765625l-2.859375 0l0 7.75l-2.078125 0l0 -7.75l-2.859375 0l0 -1.765625l7.796875 0zm3.1882324 0l0 9.515625l-2.09375 0l0 -9.515625l2.09375 0zm6.1026306 -0.234375q2.125 0 3.390625 1.421875q1.28125 1.421875 1.28125 3.609375q0 1.015625 -0.3125 1.90625q-0.3125 0.890625 -0.921875 1.609375l1.1875 1.078125l-0.96875 1.015625l-1.359375 -1.21875q-0.453125 0.265625 -1.03125 0.40625q-0.578125 0.15625 -1.265625 0.15625q-2.140625 0 -3.421875 -1.421875q-1.265625 -1.4375 -1.265625 -3.53125q0 -2.203125 1.28125 -3.609375q1.296875 -1.421875 3.40625 -1.421875zm-2.59375 5.03125q0 1.390625 0.671875 2.3125q0.671875 0.921875 2.15625 0.875q0.234375 0 0.390625 -0.03125q0.15625 -0.03125 0.21875 -0.109375l-0.90625 -0.8125l0.984375 -1.03125l1.078125 0.984375q0.296875 -0.40625 0.4375 -0.953125q0.140625 -0.5625 0.140625 -1.234375q0 -1.515625 -0.6875 -2.390625q-0.671875 -0.875 -1.90625 -0.875q-1.21875 0 -1.90625 0.890625q-0.671875 0.890625 -0.671875 2.375zm10.74205 -4.796875l0 5.96875q0 1.03125 0.46875 1.53125q0.484375 0.484375 1.5 0.484375q1.09375 0 1.53125 -0.484375q0.4375 -0.484375 0.4375 -1.515625l0 -5.984375l2.09375 0l0 5.984375q0 1.765625 -1.03125 2.765625q-1.03125 1.0 -3.03125 1.0q-2.015625 0 -3.046875 -0.984375q-1.015625 -0.984375 -1.015625 -2.78125l0 -5.984375l2.09375 0zm14.941452 0l0 1.765625l-5.015625 0l0 2.03125l4.609375 0l0 1.625l-4.609375 0l0 2.34375l5.125 0l0 1.75l-7.21875 0l0 -9.515625l7.109375 0zm4.807831 -0.234375q1.71875 0 2.75 0.8125q1.046875 0.796875 1.046875 2.265625l-2.015625 0q-0.046875 -0.71875 -0.5 -1.078125q-0.4375 -0.359375 -1.375 -0.359375q-0.640625 0 -1.046875 0.28125q-0.40625 0.265625 -0.40625 0.796875q0 0.359375 0.171875 0.53125q0.171875 0.171875 0.6875 0.375q0.53125 0.1875 2.296875 0.59375q1.1875 0.296875 1.84375 0.984375q0.671875 0.671875 0.671875 1.71875q0 1.390625 -1.046875 2.234375q-1.03125 0.828125 -2.90625 0.828125q-1.796875 0 -2.9375 -0.890625q-1.125 -0.890625 -1.125 -2.453125l0 -0.046875l2.03125 0q0 0.890625 0.578125 1.328125q0.578125 0.421875 1.515625 0.421875q0.859375 0 1.359375 -0.296875q0.5 -0.3125 0.5 -0.875q0 -0.46875 -0.390625 -0.765625q-0.375 -0.296875 -1.234375 -0.515625q-1.09375 -0.234375 -1.984375 -0.515625q-0.890625 -0.28125 -1.484375 -0.890625q-0.578125 -0.625 -0.578125 -1.59375q0 -1.28125 1.03125 -2.078125q1.03125 -0.8125 2.546875 -0.8125zm7.3520966 2.984375l0 2.046875l-2.09375 0l0 -2.046875l2.09375 0zm0 4.71875l0 2.046875l-2.09375 0l0 -2.046875l2.09375 0z" fill-rule="nonzero"/><path fill="#777777" d="m119.602295 296.97177l0 3.65625l3.84375 0l0 -3.65625l2.09375 0l0 9.515625l-2.09375 0l0 -4.109375l-3.84375 0l0 4.109375l-2.09375 0l0 -9.515625l2.09375 0zm14.832077 0l0 1.765625l-2.859375 0l0 7.75l-2.078125 0l0 -7.75l-2.859375 0l0 -1.765625l7.796875 0zm4.0319824 0l2.234375 6.546875l0.03125 0l2.09375 -6.515625l0.015625 -0.03125l2.9375 0l0 9.515625l-1.96875 0l0 -6.734375l-0.015625 0l-2.328125 6.734375l-1.625 0l-2.328125 -6.671875l-0.03125 0l0 6.671875l-1.953125 0l0 -9.515625l2.9375 0zm11.247879 0l0 7.765625l4.640625 0l0 1.75l-6.734375 0l0 -9.515625l2.09375 0z" fill-rule="nonzero"/><path fill="#777777" d="m127.19197 312.7374q1.625 0 2.765625 0.921875q1.140625 0.921875 1.328125 2.515625l-2.015625 0q-0.140625 -0.75 -0.75 -1.203125q-0.59375 -0.46875 -1.328125 -0.46875q-1.234375 0 -1.921875 0.890625q-0.671875 0.890625 -0.671875 2.375q0 1.40625 0.671875 2.296875q0.671875 0.890625 1.921875 0.890625q0.90625 0 1.453125 -0.5625q0.5625 -0.5625 0.703125 -1.5625l2.03125 0q-0.1875 1.8125 -1.328125 2.859375q-1.125 1.03125 -2.859375 1.03125q-1.375 0 -2.453125 -0.625q-1.0625 -0.640625 -1.65625 -1.78125q-0.578125 -1.140625 -0.578125 -2.546875q0 -2.1875 1.28125 -3.609375q1.296875 -1.421875 3.40625 -1.421875zm8.894577 0q1.71875 0 2.75 0.8125q1.046875 0.796875 1.046875 2.265625l-2.015625 0q-0.046875 -0.71875 -0.5 -1.078125q-0.4375 -0.359375 -1.375 -0.359375q-0.640625 0 -1.046875 0.28125q-0.40625 0.265625 -0.40625 0.796875q0 0.359375 0.171875 0.53125q0.171875 0.171875 0.6875 0.375q0.53125 0.1875 2.296875 0.59375q1.1875 0.296875 1.84375 0.984375q0.671875 0.671875 0.671875 1.71875q0 1.390625 -1.046875 2.234375q-1.03125 0.828125 -2.90625 0.828125q-1.796875 0 -2.9375 -0.890625q-1.125 -0.890625 -1.125 -2.453125l0 -0.046875l2.03125 0q0 0.890625 0.578125 1.328125q0.578125 0.421875 1.515625 0.421875q0.859375 0 1.359375 -0.296875q0.5 -0.3125 0.5 -0.875q0 -0.46875 -0.390625 -0.765625q-0.375 -0.296875 -1.234375 -0.515625q-1.09375 -0.234375 -1.984375 -0.515625q-0.890625 -0.28125 -1.484375 -0.890625q-0.578125 -0.625 -0.578125 -1.59375q0 -1.28125 1.03125 -2.078125q1.03125 -0.8125 2.546875 -0.8125zm8.648972 0q1.71875 0 2.75 0.8125q1.046875 0.796875 1.046875 2.265625l-2.015625 0q-0.046875 -0.71875 -0.5 -1.078125q-0.4375 -0.359375 -1.375 -0.359375q-0.640625 0 -1.046875 0.28125q-0.40625 0.265625 -0.40625 0.796875q0 0.359375 0.171875 0.53125q0.171875 0.171875 0.6875 0.375q0.53125 0.1875 2.296875 0.59375q1.1875 0.296875 1.84375 0.984375q0.671875 0.671875 0.671875 1.71875q0 1.390625 -1.046875 2.234375q-1.03125 0.828125 -2.90625 0.828125q-1.796875 0 -2.9375 -0.890625q-1.125 -0.890625 -1.125 -2.453125l0 -0.046875l2.03125 0q0 0.890625 0.578125 1.328125q0.578125 0.421875 1.515625 0.421875q0.859375 0 1.359375 -0.296875q0.5 -0.3125 0.5 -0.875q0 -0.46875 -0.390625 -0.765625q-0.375 -0.296875 -1.234375 -0.515625q-1.09375 -0.234375 -1.984375 -0.515625q-0.890625 -0.28125 -1.484375 -0.890625q-0.578125 -0.625 -0.578125 -1.59375q0 -1.28125 1.03125 -2.078125q1.03125 -0.8125 2.546875 -0.8125z" fill-rule="nonzero"/><path fill="#777777" d="m134.04657 328.97177l0 6.578125q0 1.53125 -0.796875 2.359375q-0.796875 0.8125 -2.359375 0.8125q-1.390625 0 -2.265625 -0.78125q-0.875 -0.796875 -0.875 -2.125l0 -0.875l1.890625 0l0 0.359375q0 0.953125 0.296875 1.3125q0.3125 0.34375 0.921875 0.34375q0.546875 0 0.828125 -0.296875q0.28125 -0.296875 0.28125 -1.1875l0 -6.5l2.078125 0zm5.1312256 -0.234375q1.71875 0 2.75 0.8125q1.046875 0.796875 1.046875 2.265625l-2.015625 0q-0.046875 -0.71875 -0.5 -1.078125q-0.4375 -0.359375 -1.375 -0.359375q-0.640625 0 -1.046875 0.28125q-0.40625 0.265625 -0.40625 0.796875q0 0.359375 0.171875 0.53125q0.171875 0.171875 0.6875 0.375q0.53125 0.1875 2.296875 0.59375q1.1875 0.296875 1.84375 0.984375q0.671875 0.671875 0.671875 1.71875q0 1.390625 -1.046875 2.234375q-1.03125 0.828125 -2.90625 0.828125q-1.796875 0 -2.9375 -0.890625q-1.125 -0.890625 -1.125 -2.453125l0 -0.046875l2.03125 0q0 0.890625 0.578125 1.328125q0.578125 0.421875 1.515625 0.421875q0.859375 0 1.359375 -0.296875q0.5 -0.3125 0.5 -0.875q0 -0.46875 -0.390625 -0.765625q-0.375 -0.296875 -1.234375 -0.515625q-1.09375 -0.234375 -1.984375 -0.515625q-0.890625 -0.28125 -1.484375 -0.890625q-0.578125 -0.625 -0.578125 -1.59375q0 -1.28125 1.03125 -2.078125q1.03125 -0.8125 2.546875 -0.8125z" fill-rule="nonzero"/><path fill="#777777" d="m112.33299 344.97177l0 9.515625l-2.09375 0l0 -9.515625l2.09375 0zm4.7745056 0l2.234375 6.546875l0.03125 0l2.09375 -6.515625l0.015625 -0.03125l2.9375 0l0 9.515625l-1.96875 0l0 -6.734375l-0.015625 0l-2.328125 6.734375l-1.625 0l-2.328125 -6.671875l-0.03125 0l0 6.671875l-1.953125 0l0 -9.515625l2.9375 0zm13.888504 0l3.5625 9.515625l-2.171875 0l-0.71875 -2.125l-3.5625 0l-0.734375 2.125l-2.125 0l3.609375 -9.515625l2.140625 0zm-1.09375 2.34375l-1.25 3.5l2.46875 0l-1.1875 -3.5l-0.03125 0zm9.755554 -2.578125q1.546875 0 2.6875 0.90625q1.140625 0.890625 1.328125 2.453125l-2.0 0q-0.203125 -0.796875 -0.734375 -1.1875q-0.53125 -0.40625 -1.28125 -0.40625q-1.25 0 -1.921875 0.90625q-0.671875 0.890625 -0.671875 2.359375q0 1.390625 0.671875 2.296875q0.671875 0.890625 1.921875 0.890625q1.0 0 1.578125 -0.515625q0.59375 -0.515625 0.6875 -1.53125l-2.109375 0l0 -1.5625l4.0 0l0 5.140625l-1.328125 0l-0.21875 -1.078125q-0.515625 0.65625 -1.171875 0.984375q-0.640625 0.328125 -1.4375 0.328125q-1.375 0 -2.453125 -0.625q-1.0625 -0.640625 -1.65625 -1.78125q-0.578125 -1.140625 -0.578125 -2.546875q0 -2.203125 1.28125 -3.609375q1.296875 -1.421875 3.40625 -1.421875zm12.956985 0.234375l0 1.765625l-5.015625 0l0 2.03125l4.609375 0l0 1.625l-4.609375 0l0 2.34375l5.125 0l0 1.75l-7.21875 0l0 -9.515625l7.109375 0zm4.807831 -0.234375q1.71875 0 2.75 0.8125q1.046875 0.796875 1.046875 2.265625l-2.015625 0q-0.046875 -0.71875 -0.5 -1.078125q-0.4375 -0.359375 -1.375 -0.359375q-0.640625 0 -1.046875 0.28125q-0.40625 0.265625 -0.40625 0.796875q0 0.359375 0.171875 0.53125q0.171875 0.171875 0.6875 0.375q0.53125 0.1875 2.296875 0.59375q1.1875 0.296875 1.84375 0.984375q0.671875 0.671875 0.671875 1.71875q0 1.390625 -1.046875 2.234375q-1.03125 0.828125 -2.90625 0.828125q-1.796875 0 -2.9375 -0.890625q-1.125 -0.890625 -1.125 -2.453125l0 -0.046875l2.03125 0q0 0.890625 0.578125 1.328125q0.578125 0.421875 1.515625 0.421875q0.859375 0 1.359375 -0.296875q0.5 -0.3125 0.5 -0.875q0 -0.46875 -0.390625 -0.765625q-0.375 -0.296875 -1.234375 -0.515625q-1.09375 -0.234375 -1.984375 -0.515625q-0.890625 -0.28125 -1.484375 -0.890625q-0.578125 -0.625 -0.578125 -1.59375q0 -1.28125 1.03125 -2.078125q1.03125 -0.8125 2.546875 -0.8125z" fill-rule="nonzero"/><path fill="#000000" fill-opacity="0.0" d="m770.88745 193.7442l0 47.2126" fill-rule="evenodd"/><path stroke="#777777" stroke-width="2.0" stroke-linejoin="round" stroke-linecap="butt" d="m770.88745 205.74422l0 23.2126" fill-rule="evenodd"/><path fill="#777777" stroke="#777777" stroke-width="2.0" stroke-linecap="butt" d="m774.1909 205.74422l-3.3034668 -9.076202l-3.3034668 9.076202z" fill-rule="evenodd"/><path fill="#777777" stroke="#777777" stroke-width="2.0" stroke-linecap="butt" d="m767.584 228.95682l3.3034668 9.076187l3.3034668 -9.076187z" fill-rule="evenodd"/><path fill="#000000" fill-opacity="0.0" d="m397.83905 196.00374l-117.98425 138.01576" fill-rule="evenodd"/><path stroke="#777777" stroke-width="2.0" stroke-linejoin="round" stroke-linecap="butt" d="m397.83902 196.00374l-110.18674 128.8944" fill-rule="evenodd"/><path fill="#777777" stroke="#777777" stroke-width="2.0" stroke-linecap="butt" d="m285.14127 322.75156l-3.3866272 9.045502l8.40863 -4.7523804z" fill-rule="evenodd"/><path fill="#000000" fill-opacity="0.0" d="m648.1601 196.64568l-118.01575 -0.6299286" fill-rule="evenodd"/><path stroke="#777777" stroke-width="2.0" stroke-linejoin="round" stroke-linecap="butt" d="m648.1601 196.64568l-118.01575 -0.6299286" fill-rule="evenodd"/><path fill="#000000" fill-opacity="0.0" d="m207.26364 304.17416c14.376892 0 31.246323 26.5372 28.753784 51.45938c-2.4925232 24.92218 -24.347015 48.22931 -47.447754 51.45941c-23.100754 3.230072 -47.44777 -13.616882 -47.44777 -27.233765" fill-rule="evenodd"/><path stroke="#777777" stroke-width="2.0" stroke-linejoin="round" stroke-linecap="butt" d="m218.32234 308.83304l0.18344116 0.15026855c0.11100769 0.092285156 0.22184753 0.18572998 0.3324585 0.280365c0.22122192 0.1892395 0.4416504 0.38311768 0.6611786 0.5815735c0.4390869 0.3968811 0.87457275 0.8119507 1.3058472 1.2443542c0.86253357 0.8647766 1.7081299 1.7988586 2.531433 2.7953491c1.6466217 1.9930115 3.2041473 4.235718 4.629883 6.6730957c5.702896 9.749573 9.297119 22.61444 8.050842 35.07553c-2.4925385 24.92215 -24.347 48.22928 -47.447754 51.45935c-23.100754 3.2301025 -47.44777 -13.616821 -47.44777 -27.233704" fill-rule="evenodd"/><path fill="#777777" stroke="#777777" stroke-width="2.0" stroke-linecap="butt" d="m219.60487 305.78867l-9.646774 -0.47937012l7.081711 6.568054z" fill-rule="evenodd"/><path fill="#000000" fill-opacity="0.0" d="m819.2969 164.13791c8.875183 0 19.79425 -13.392303 17.750305 -26.583054c-2.0439453 -13.19075 -17.050903 -26.179947 -33.079895 -26.583054c-16.02893 -0.40309906 -33.079834 11.779907 -33.079834 23.559814" fill-rule="evenodd"/><path stroke="#777777" stroke-width="2.0" stroke-linejoin="round" stroke-linecap="butt" d="m819.29694 164.13791c8.875061 0 19.79419 -13.392303 17.750244 -26.583054c-2.0440063 -13.19075 -17.050964 -26.179947 -33.079895 -26.583054c-8.014526 -0.20154572 -16.284485 2.743431 -22.550781 7.211281c-1.5665894 1.1169586 -3.0079346 2.3291092 -4.2888184 3.6110535c-0.32019043 0.32048798 -0.63031006 0.64533997 -0.92993164 0.97416687c-0.14978027 0.16440582 -0.29693604 0.32980347 -0.4413452 0.49613953l-0.18707275 0.21816254" fill-rule="evenodd"/><path fill="#777777" stroke="#777777" stroke-width="2.0" stroke-linecap="butt" d="m772.5276 122.19375l-0.49938965 9.64576l6.5827637 -7.068054z" fill-rule="evenodd"/><path fill="#000000" fill-opacity="0.0" d="m552.2449 207.51184l73.82678 0l0 36.91339l-73.82678 0z" fill-rule="evenodd"/><path fill="#777777" d="m569.6067 221.1231l-0.84375 4.015625l4.234375 0l0.84375 -4.015625l2.3125 0l-2.203125 10.46875l-2.328125 0l0.953125 -4.515625l-4.21875 0l-0.96875 4.515625l-2.3125 0l2.21875 -10.46875l2.3125 0zm16.332092 0l-0.40625 1.9375l-3.140625 0l-1.796875 8.53125l-2.3125 0l1.796875 -8.53125l-3.28125 0l0.40625 -1.9375l8.734375 0zm8.952637 0l-0.40625 1.9375l-3.140625 0l-1.796875 8.53125l-2.3125 0l1.796875 -8.53125l-3.28125 0l0.40625 -1.9375l8.734375 0zm5.4057617 0q1.71875 0 2.640625 0.75q0.921875 0.75 0.921875 2.3125q0 1.09375 -0.5625 1.9375q-0.546875 0.84375 -1.5 1.28125q-0.953125 0.4375 -1.953125 0.4375l-2.90625 0l-0.796875 3.75l-2.296875 0l2.1875 -10.46875l4.265625 0zm-2.328125 1.796875l-0.65625 3.140625l2.40625 0q0.84375 0 1.34375 -0.46875q0.5 -0.46875 0.5 -1.359375q0 -0.65625 -0.421875 -0.984375q-0.421875 -0.328125 -1.15625 -0.328125l-2.015625 0zm11.088074 -2.046875q1.84375 0 2.875 0.875q1.03125 0.875 1.03125 2.5l-2.171875 0l0 -0.109375q0 -0.734375 -0.484375 -1.09375q-0.484375 -0.375 -1.390625 -0.375q-0.828125 0 -1.328125 0.34375q-0.5 0.328125 -0.5 0.953125q0 0.484375 0.515625 0.828125q0.515625 0.34375 1.5625 0.5625q1.75 0.375 2.46875 1.0625q0.734375 0.671875 0.734375 1.953125q0 1.625 -1.21875 2.546875q-1.203125 0.921875 -3.046875 0.921875q-2.1875 0 -3.265625 -0.921875q-1.078125 -0.9375 -1.078125 -2.796875l2.171875 0l0 0.109375q0 0.9375 0.5625 1.390625q0.578125 0.4375 1.703125 0.4375q0.84375 0 1.40625 -0.40625q0.578125 -0.40625 0.578125 -1.078125q0 -0.484375 -0.421875 -0.8125q-0.421875 -0.328125 -1.640625 -0.65625q-1.90625 -0.484375 -2.5625 -1.1875q-0.65625 -0.71875 -0.65625 -1.78125q0 -1.53125 1.15625 -2.390625q1.171875 -0.875 3.0 -0.875z" fill-rule="nonzero"/><path fill="#000000" fill-opacity="0.0" d="m129.66084 408.6227l118.078735 0l0 36.91339l-118.078735 0z" fill-rule="evenodd"/><path fill="#777777" d="m146.48079 422.23395l-2.21875 10.46875l-2.3125 0l2.21875 -10.46875l2.3125 0zm4.3992615 0l2.84375 7.453125l0.03125 0l1.484375 -7.453125l2.109375 0l-2.203125 10.46875l-2.3125 0l-2.859375 -7.34375l-0.03125 0l-1.5 7.34375l-2.15625 0l2.21875 -10.46875l2.375 0zm16.269623 0l-0.40625 1.9375l-3.140625 0l-1.796875 8.53125l-2.3125 0l1.796875 -8.53125l-3.28125 0l0.40625 -1.9375l8.734375 0zm9.140121 0l-0.390625 1.9375l-5.6875 0l-0.46875 2.234375l5.265625 0l-0.390625 1.796875l-5.265625 0l-0.53125 2.5625l5.78125 0l-0.421875 1.9375l-8.078125 0l2.203125 -10.46875l7.984375 0zm7.0099792 0q1.359375 0 2.125 0.6875q0.78125 0.671875 0.78125 2.046875q0 1.046875 -0.671875 1.859375q-0.65625 0.796875 -1.734375 0.96875l0 0.03125q0.515625 0.15625 0.796875 0.59375q0.28125 0.4375 0.28125 1.25q0 0.265625 -0.03125 0.84375q-0.046875 0.578125 -0.046875 0.96875q0 0.390625 0.03125 0.71875q0.046875 0.3125 0.125 0.5l-2.25 0q-0.046875 -0.21875 -0.078125 -0.375q-0.015625 -0.15625 -0.015625 -0.34375q0 -0.390625 0.0625 -1.046875q0.046875 -0.671875 0.046875 -1.046875q0 -0.6875 -0.359375 -0.984375q-0.359375 -0.296875 -1.09375 -0.296875l-2.21875 0l-0.875 4.09375l-2.296875 0l2.203125 -10.46875l5.21875 0zm-3.28125 1.796875l-0.625 2.9375l2.1875 0q0.953125 0 1.625 -0.421875q0.6875 -0.4375 0.6875 -1.234375q0 -0.640625 -0.375 -0.953125q-0.359375 -0.328125 -1.25 -0.328125l-2.25 0zm12.896774 -1.796875q1.71875 0 2.640625 0.75q0.921875 0.75 0.921875 2.3125q0 1.09375 -0.5625 1.9375q-0.546875 0.84375 -1.5 1.28125q-0.953125 0.4375 -1.953125 0.4375l-2.90625 0l-0.796875 3.75l-2.296875 0l2.1875 -10.46875l4.265625 0zm-2.328125 1.796875l-0.65625 3.140625l2.40625 0q0.84375 0 1.34375 -0.46875q0.5 -0.46875 0.5 -1.359375q0 -0.65625 -0.421875 -0.984375q-0.421875 -0.328125 -1.15625 -0.328125l-2.015625 0zm13.072479 -1.796875q1.359375 0 2.125 0.6875q0.78125 0.671875 0.78125 2.046875q0 1.046875 -0.671875 1.859375q-0.65625 0.796875 -1.734375 0.96875l0 0.03125q0.515625 0.15625 0.796875 0.59375q0.28125 0.4375 0.28125 1.25q0 0.265625 -0.03125 0.84375q-0.046875 0.578125 -0.046875 0.96875q0 0.390625 0.03125 0.71875q0.046875 0.3125 0.125 0.5l-2.25 0q-0.046875 -0.21875 -0.078125 -0.375q-0.015625 -0.15625 -0.015625 -0.34375q0 -0.390625 0.0625 -1.046875q0.046875 -0.671875 0.046875 -1.046875q0 -0.6875 -0.359375 -0.984375q-0.359375 -0.296875 -1.09375 -0.296875l-2.21875 0l-0.875 4.09375l-2.296875 0l2.203125 -10.46875l5.21875 0zm-3.28125 1.796875l-0.625 2.9375l2.1875 0q0.953125 0 1.625 -0.421875q0.6875 -0.4375 0.6875 -1.234375q0 -0.640625 -0.375 -0.953125q-0.359375 -0.328125 -1.25 -0.328125l-2.25 0zm16.63115 -1.796875l-0.390625 1.9375l-5.6875 0l-0.46875 2.234375l5.265625 0l-0.390625 1.796875l-5.265625 0l-0.53125 2.5625l5.78125 0l-0.421875 1.9375l-8.078125 0l2.203125 -10.46875l7.984375 0zm-4.390625 -3.03125l1.140625 2.078125l-1.46875 0l-1.90625 -2.078125l2.234375 0zm13.978729 3.03125l-0.40625 1.9375l-3.140625 0l-1.796875 8.53125l-2.3125 0l1.796875 -8.53125l-3.28125 0l0.40625 -1.9375l8.734375 0zm9.140121 0l-0.390625 1.9375l-5.6875 0l-0.46875 2.234375l5.265625 0l-0.390625 1.796875l-5.265625 0l-0.53125 2.5625l5.78125 0l-0.421875 1.9375l-8.078125 0l2.203125 -10.46875l7.984375 0z" fill-rule="nonzero"/><path fill="#000000" fill-opacity="0.0" d="m722.47797 164.13791l-74.33069 32.503937" fill-rule="evenodd"/><path stroke="#777777" stroke-width="2.0" stroke-linejoin="round" stroke-linecap="butt" d="m722.478 164.13791l-63.336 27.696075" fill-rule="evenodd"/><path fill="#777777" stroke="#777777" stroke-width="2.0" stroke-linecap="butt" d="m657.8185 188.80725l-6.9923096 6.663162l9.639404 -0.60969543z" fill-rule="evenodd"/><path fill="#000000" fill-opacity="0.0" d="m745.4508 74.010826l118.078735 0l0 36.913383l-118.078735 0z" fill-rule="evenodd"/><path fill="#777777" d="m762.27075 87.62208l-2.21875 10.46875l-2.3125 0l2.21875 -10.46875l2.3125 0zm4.399292 0l2.84375 7.453125l0.03125 0l1.484375 -7.453125l2.109375 0l-2.203125 10.46875l-2.3125 0l-2.859375 -7.34375l-0.03125 0l-1.5 7.34375l-2.15625 0l2.21875 -10.46875l2.375 0zm16.269592 0l-0.40625 1.9375l-3.140625 0l-1.796875 8.53125l-2.3125 0l1.796875 -8.53125l-3.28125 0l0.40625 -1.9375l8.734375 0zm9.140137 0l-0.390625 1.9375l-5.6875 0l-0.46875 2.234375l5.265625 0l-0.390625 1.796875l-5.265625 0l-0.53125 2.5625l5.78125 0l-0.421875 1.9375l-8.078125 0l2.203125 -10.46875l7.984375 0zm7.01001 0q1.359375 0 2.125 0.6875q0.78125 0.671875 0.78125 2.046875q0 1.046875 -0.671875 1.859375q-0.65625 0.796875 -1.734375 0.96875l0 0.03125q0.515625 0.15625 0.796875 0.59375q0.28125 0.4375 0.28125 1.25q0 0.265625 -0.03125 0.84375q-0.046875 0.578125 -0.046875 0.96875q0 0.390625 0.03125 0.71875q0.046875 0.3125 0.125 0.5l-2.25 0q-0.046875 -0.21875 -0.078125 -0.375q-0.015625 -0.15625 -0.015625 -0.34375q0 -0.390625 0.0625 -1.046875q0.046875 -0.671875 0.046875 -1.046875q0 -0.6875 -0.359375 -0.984375q-0.359375 -0.296875 -1.09375 -0.296875l-2.21875 0l-0.875 4.09375l-2.296875 0l2.203125 -10.46875l5.21875 0zm-3.28125 1.796875l-0.625 2.9375l2.1875 0q0.953125 0 1.625 -0.421875q0.6875 -0.4375 0.6875 -1.234375q0 -0.640625 -0.375 -0.953125q-0.359375 -0.328125 -1.25 -0.328125l-2.25 0zm12.8967285 -1.796875q1.71875 0 2.640625 0.75q0.921875 0.75 0.921875 2.3125q0 1.09375 -0.5625 1.9375q-0.546875 0.84375 -1.5 1.28125q-0.953125 0.4375 -1.953125 0.4375l-2.90625 0l-0.796875 3.75l-2.296875 0l2.1875 -10.46875l4.265625 0zm-2.328125 1.796875l-0.65625 3.140625l2.40625 0q0.84375 0 1.34375 -0.46875q0.5 -0.46875 0.5 -1.359375q0 -0.65625 -0.421875 -0.984375q-0.421875 -0.328125 -1.15625 -0.328125l-2.015625 0zm13.07251 -1.796875q1.359375 0 2.125 0.6875q0.78125 0.671875 0.78125 2.046875q0 1.046875 -0.671875 1.859375q-0.65625 0.796875 -1.734375 0.96875l0 0.03125q0.515625 0.15625 0.796875 0.59375q0.28125 0.4375 0.28125 1.25q0 0.265625 -0.03125 0.84375q-0.046875 0.578125 -0.046875 0.96875q0 0.390625 0.03125 0.71875q0.046875 0.3125 0.125 0.5l-2.25 0q-0.046875 -0.21875 -0.078125 -0.375q-0.015625 -0.15625 -0.015625 -0.34375q0 -0.390625 0.0625 -1.046875q0.046875 -0.671875 0.046875 -1.046875q0 -0.6875 -0.359375 -0.984375q-0.359375 -0.296875 -1.09375 -0.296875l-2.21875 0l-0.875 4.09375l-2.296875 0l2.203125 -10.46875l5.21875 0zm-3.28125 1.796875l-0.625 2.9375l2.1875 0q0.953125 0 1.625 -0.421875q0.6875 -0.4375 0.6875 -1.234375q0 -0.640625 -0.375 -0.953125q-0.359375 -0.328125 -1.25 -0.328125l-2.25 0zm16.631165 -1.796875l-0.390625 1.9375l-5.6875 0l-0.46875 2.234375l5.265625 0l-0.390625 1.796875l-5.265625 0l-0.53125 2.5625l5.78125 0l-0.421875 1.9375l-8.078125 0l2.203125 -10.46875l7.984375 0zm-4.390625 -3.03125l1.140625 2.078125l-1.46875 0l-1.90625 -2.078125l2.234375 0zm13.978699 3.03125l-0.40625 1.9375l-3.140625 0l-1.796875 8.53125l-2.3125 0l1.796875 -8.53125l-3.28125 0l0.40625 -1.9375l8.734375 0zm9.140137 0l-0.390625 1.9375l-5.6875 0l-0.46875 2.234375l5.265625 0l-0.390625 1.796875l-5.265625 0l-0.53125 2.5625l5.78125 0l-0.421875 1.9375l-8.078125 0l2.203125 -10.46875l7.984375 0z" fill-rule="nonzero"/><path fill="#000000" fill-opacity="0.0" d="m278.2799 159.51184l123.93701 0l0 36.91339l-123.93701 0z" fill-rule="evenodd"/><path fill="#777777" d="m300.10202 173.1231l-0.40625 1.9375l-3.140625 0l-1.796875 8.53125l-2.3125 0l1.796875 -8.53125l-3.28125 0l0.40625 -1.9375l8.734375 0zm9.140137 0l-0.390625 1.9375l-5.6875 0l-0.46875 2.234375l5.265625 0l-0.390625 1.796875l-5.265625 0l-0.53125 2.5625l5.78125 0l-0.421875 1.9375l-8.078125 0l2.203125 -10.46875l7.984375 0zm-1.640625 -3.03125l-2.0625 2.078125l-1.46875 0l1.296875 -2.078125l2.234375 0zm5.7443542 3.03125l-1.78125 8.53125l5.046875 0l-0.40625 1.9375l-7.375 0l2.203125 -10.46875l2.3125 0zm14.087769 0l-0.390625 1.9375l-5.6875 0l-0.46875 2.234375l5.265625 0l-0.390625 1.796875l-5.265625 0l-0.53125 2.5625l5.78125 0l-0.421875 1.9375l-8.078125 0l2.203125 -10.46875l7.984375 0zm-1.640625 -3.03125l-2.0625 2.078125l-1.46875 0l1.296875 -2.078125l2.234375 0zm7.5412292 2.78125q1.90625 0 3.046875 1.015625q1.15625 1.0 1.15625 2.734375l0 0.140625l-2.296875 0q-0.015625 -0.96875 -0.53125 -1.453125q-0.515625 -0.5 -1.34375 -0.5q-1.5625 0 -2.5 1.3125q-0.9375 1.3125 -0.9375 3.078125q0 1.21875 0.609375 1.96875q0.625 0.734375 1.765625 0.734375q0.90625 0 1.59375 -0.59375q0.6875 -0.59375 0.859375 -1.484375l2.3125 0q-0.65625 2.046875 -1.8125 3.03125q-1.15625 0.984375 -2.984375 0.984375q-2.1875 0 -3.421875 -1.203125q-1.21875 -1.21875 -1.21875 -3.421875q0 -1.78125 0.75 -3.25q0.75 -1.484375 2.046875 -2.28125q1.296875 -0.8125 2.90625 -0.8125zm9.082123 0.25l-0.84375 4.015625l4.234375 0l0.84375 -4.015625l2.3125 0l-2.203125 10.46875l-2.328125 0l0.953125 -4.515625l-4.21875 0l-0.96875 4.515625l-2.3125 0l2.21875 -10.46875l2.3125 0zm13.800873 0l1.75 10.46875l-2.28125 0l-0.34375 -2.328125l-3.90625 0l-1.328125 2.328125l-2.421875 0l6.1875 -10.46875l2.34375 0zm-1.609375 2.265625l-2.265625 4.15625l2.796875 0l-0.515625 -4.15625l-0.015625 0zm11.602875 -2.265625q1.359375 0 2.125 0.6875q0.78125 0.671875 0.78125 2.046875q0 1.046875 -0.671875 1.859375q-0.65625 0.796875 -1.734375 0.96875l0 0.03125q0.515625 0.15625 0.796875 0.59375q0.28125 0.4375 0.28125 1.25q0 0.265625 -0.03125 0.84375q-0.046875 0.578125 -0.046875 0.96875q0 0.390625 0.03125 0.71875q0.046875 0.3125 0.125 0.5l-2.25 0q-0.046875 -0.21875 -0.078125 -0.375q-0.015625 -0.15625 -0.015625 -0.34375q0 -0.390625 0.0625 -1.046875q0.046875 -0.671875 0.046875 -1.046875q0 -0.6875 -0.359375 -0.984375q-0.359375 -0.296875 -1.09375 -0.296875l-2.21875 0l-0.875 4.09375l-2.296875 0l2.203125 -10.46875l5.21875 0zm-3.28125 1.796875l-0.625 2.9375l2.1875 0q0.953125 0 1.625 -0.421875q0.6875 -0.4375 0.6875 -1.234375q0 -0.640625 -0.375 -0.953125q-0.359375 -0.328125 -1.25 -0.328125l-2.25 0zm12.77179 -2.046875q2.0 0 3.203125 0.96875q1.21875 0.953125 1.234375 2.75l-2.296875 0q-0.0625 -0.921875 -0.609375 -1.34375q-0.53125 -0.4375 -1.515625 -0.4375q-1.0 0 -1.78125 0.578125q-0.78125 0.5625 -1.21875 1.609375q-0.4375 1.046875 -0.4375 2.203125q0 1.21875 0.609375 1.96875q0.625 0.734375 1.765625 0.734375q1.1875 0 1.875 -0.5625q0.703125 -0.5625 1.03125 -1.6875l-2.421875 0l0.359375 -1.71875l4.4375 0l-1.203125 5.65625l-1.4375 0l0 -1.078125l-0.03125 0q-0.46875 0.65625 -1.15625 1.0q-0.671875 0.328125 -1.5 0.328125q-2.171875 0 -3.40625 -1.203125q-1.21875 -1.21875 -1.21875 -3.421875q0 -1.78125 0.75 -3.25q0.75 -1.484375 2.046875 -2.28125q1.296875 -0.8125 2.921875 -0.8125zm14.980377 0.25l-0.390625 1.9375l-5.6875 0l-0.46875 2.234375l5.265625 0l-0.390625 1.796875l-5.265625 0l-0.53125 2.5625l5.78125 0l-0.421875 1.9375l-8.078125 0l2.203125 -10.46875l7.984375 0z" fill-rule="nonzero"/><path fill="#000000" fill-opacity="0.0" d="m648.1601 382.63263l245.48035 0l0 246.6142l-245.48035 0z" fill-rule="evenodd"/><path stroke="#777777" stroke-width="4.0" stroke-linejoin="round" stroke-linecap="butt" d="m648.1601 382.63263l245.48035 0l0 246.6142l-245.48035 0z" fill-rule="evenodd"/><path fill="#ffa000" d="m724.11615 401.63724q2.921875 0 4.6875 1.359375q1.78125 1.359375 1.78125 3.859375l-3.4375 0q-0.078125 -1.21875 -0.84375 -1.828125q-0.75 -0.625 -2.34375 -0.625q-1.078125 0 -1.765625 0.484375q-0.6875 0.46875 -0.6875 1.359375q0 0.609375 0.28125 0.90625q0.28125 0.296875 1.171875 0.625q0.890625 0.328125 3.890625 1.03125q2.015625 0.484375 3.140625 1.65625q1.140625 1.15625 1.140625 2.9375q0 2.34375 -1.765625 3.765625q-1.765625 1.421875 -4.953125 1.421875q-3.0625 0 -4.984375 -1.5q-1.921875 -1.515625 -1.921875 -4.171875l0 -0.078125l3.4375 0q0.03125 1.5 1.015625 2.25q0.984375 0.734375 2.578125 0.734375q1.4375 0 2.28125 -0.515625q0.859375 -0.53125 0.859375 -1.5q0 -0.78125 -0.65625 -1.28125q-0.65625 -0.515625 -2.109375 -0.875q-1.859375 -0.421875 -3.375 -0.890625q-1.515625 -0.46875 -2.5 -1.515625q-0.984375 -1.0625 -0.984375 -2.71875q0 -2.171875 1.734375 -3.53125q1.75 -1.359375 4.328125 -1.359375zm21.217834 0.390625l0 2.984375l-8.53125 0l0 3.46875l7.828125 0l0 2.765625l-7.828125 0l0 3.96875l8.71875 0l0 2.984375l-12.28125 0l0 -16.171875l12.09375 0zm11.398865 0q1.953125 0 3.296875 1.265625q1.34375 1.25 1.34375 3.203125q0 1.53125 -0.640625 2.53125q-0.625 1.0 -1.921875 1.515625l0 0.046875q1.140625 0.296875 1.75 1.359375q0.609375 1.0625 0.671875 3.25q0.03125 2.1875 0.625 3.0l-3.5625 0q-0.3125 -0.78125 -0.421875 -2.546875q-0.171875 -2.390625 -0.8125 -3.078125q-0.625 -0.6875 -1.9375 -0.6875l-3.640625 0l0 6.3125l-3.5625 0l0 -16.171875l8.8125 0zm-1.28125 7.3125q1.109375 0 1.734375 -0.53125q0.625 -0.546875 0.625 -1.78125q0 -1.15625 -0.609375 -1.6875q-0.59375 -0.546875 -1.75 -0.546875l-3.96875 0l0 4.546875l3.96875 0zm10.752258 -7.3125l3.609375 11.375l0.046875 0l3.640625 -11.375l3.671875 0l-5.375 16.171875l-4.0 0l-5.25 -16.171875l3.65625 0zm24.442627 0l0 2.984375l-8.53125 0l0 3.46875l7.828125 0l0 2.765625l-7.828125 0l0 3.96875l8.71875 0l0 2.984375l-12.28125 0l0 -16.171875l12.09375 0zm6.0863647 0l0 10.15625q0 1.75 0.796875 2.578125q0.796875 0.828125 2.53125 0.828125q1.859375 0 2.59375 -0.8125q0.75 -0.8125 0.75 -2.578125l0 -10.171875l3.546875 0l0 10.171875q0 3.0 -1.75 4.703125q-1.75 1.6875 -5.140625 1.6875q-3.421875 0 -5.15625 -1.65625q-1.734375 -1.671875 -1.734375 -4.734375l0 -10.171875l3.5625 0zm22.10553 0q1.953125 0 3.296875 1.265625q1.34375 1.25 1.34375 3.203125q0 1.53125 -0.640625 2.53125q-0.625 1.0 -1.921875 1.515625l0 0.046875q1.140625 0.296875 1.75 1.359375q0.609375 1.0625 0.671875 3.25q0.03125 2.1875 0.625 3.0l-3.5625 0q-0.3125 -0.78125 -0.421875 -2.546875q-0.171875 -2.390625 -0.8125 -3.078125q-0.625 -0.6875 -1.9375 -0.6875l-3.640625 0l0 6.3125l-3.5625 0l0 -16.171875l8.8125 0zm-1.28125 7.3125q1.109375 0 1.734375 -0.53125q0.625 -0.546875 0.625 -1.78125q0 -1.15625 -0.609375 -1.6875q-0.59375 -0.546875 -1.75 -0.546875l-3.96875 0l0 4.546875l3.96875 0z" fill-rule="nonzero"/><path fill="#000000" fill-opacity="0.0" d="m399.41385 430.2557l110.262024 0l22.052948 22.052948l0 129.31714l-132.31497 0z" fill-rule="evenodd"/><path stroke="#777777" stroke-width="2.0" stroke-linejoin="round" stroke-linecap="butt" d="m399.41385 430.2557l110.262024 0l22.052948 22.052948l0 129.31714l-132.31497 0z" fill-rule="evenodd"/><path fill="#ffa000" d="m419.87042 458.73834q1.140625 0 1.9375 0.75q0.796875 0.734375 0.796875 1.875q0 0.90625 -0.375 1.5q-0.375 0.578125 -1.140625 0.890625l0 0.015625q0.671875 0.1875 1.03125 0.8125q0.359375 0.625 0.390625 1.90625q0.015625 1.296875 0.375 1.765625l-2.109375 0q-0.171875 -0.46875 -0.234375 -1.5q-0.109375 -1.40625 -0.484375 -1.8125q-0.375 -0.40625 -1.140625 -0.40625l-2.140625 0l0 3.71875l-2.09375 0l0 -9.515625l5.1875 0zm-0.765625 4.296875q0.65625 0 1.015625 -0.3125q0.375 -0.3125 0.375 -1.046875q0 -0.671875 -0.359375 -0.984375q-0.34375 -0.328125 -1.03125 -0.328125l-2.328125 0l0 2.671875l2.328125 0zm12.312653 -4.296875l0 1.765625l-5.015625 0l0 2.03125l4.609375 0l0 1.625l-4.609375 0l0 2.34375l5.125 0l0 1.75l-7.21875 0l0 -9.515625l7.109375 0zm4.807831 -0.234375q1.71875 0 2.75 0.8125q1.046875 0.796875 1.046875 2.265625l-2.015625 0q-0.046875 -0.71875 -0.5 -1.078125q-0.4375 -0.359375 -1.375 -0.359375q-0.640625 0 -1.046875 0.28125q-0.40625 0.265625 -0.40625 0.796875q0 0.359375 0.171875 0.53125q0.171875 0.171875 0.6875 0.375q0.53125 0.1875 2.296875 0.59375q1.1875 0.296875 1.84375 0.984375q0.671875 0.671875 0.671875 1.71875q0 1.390625 -1.046875 2.234375q-1.03125 0.828125 -2.90625 0.828125q-1.796875 0 -2.9375 -0.890625q-1.125 -0.890625 -1.125 -2.453125l0 -0.046875l2.03125 0q0 0.890625 0.578125 1.328125q0.578125 0.421875 1.515625 0.421875q0.859375 0 1.359375 -0.296875q0.5 -0.3125 0.5 -0.875q0 -0.46875 -0.390625 -0.765625q-0.375 -0.296875 -1.234375 -0.515625q-1.09375 -0.234375 -1.984375 -0.515625q-0.890625 -0.28125 -1.484375 -0.890625q-0.578125 -0.625 -0.578125 -1.59375q0 -1.28125 1.03125 -2.078125q1.03125 -0.8125 2.546875 -0.8125zm8.648956 0q1.71875 0 2.75 0.8125q1.046875 0.796875 1.046875 2.265625l-2.015625 0q-0.046875 -0.71875 -0.5 -1.078125q-0.4375 -0.359375 -1.375 -0.359375q-0.640625 0 -1.046875 0.28125q-0.40625 0.265625 -0.40625 0.796875q0 0.359375 0.171875 0.53125q0.171875 0.171875 0.6875 0.375q0.53125 0.1875 2.296875 0.59375q1.1875 0.296875 1.84375 0.984375q0.671875 0.671875 0.671875 1.71875q0 1.390625 -1.046875 2.234375q-1.03125 0.828125 -2.90625 0.828125q-1.796875 0 -2.9375 -0.890625q-1.125 -0.890625 -1.125 -2.453125l0 -0.046875l2.03125 0q0 0.890625 0.578125 1.328125q0.578125 0.421875 1.515625 0.421875q0.859375 0 1.359375 -0.296875q0.5 -0.3125 0.5 -0.875q0 -0.46875 -0.390625 -0.765625q-0.375 -0.296875 -1.234375 -0.515625q-1.09375 -0.234375 -1.984375 -0.515625q-0.890625 -0.28125 -1.484375 -0.890625q-0.578125 -0.625 -0.578125 -1.59375q0 -1.28125 1.03125 -2.078125q1.03125 -0.8125 2.546875 -0.8125zm9.633362 0q2.125 0 3.390625 1.4375q1.28125 1.421875 1.28125 3.59375q0 2.125 -1.28125 3.546875q-1.28125 1.40625 -3.390625 1.40625q-1.375 0 -2.453125 -0.625q-1.0625 -0.640625 -1.65625 -1.78125q-0.578125 -1.140625 -0.578125 -2.546875q0 -2.203125 1.28125 -3.609375q1.296875 -1.421875 3.40625 -1.421875zm-2.59375 5.03125q0 1.40625 0.671875 2.296875q0.671875 0.890625 1.921875 0.890625q1.234375 0 1.90625 -0.875q0.671875 -0.875 0.671875 -2.3125q0 -1.5 -0.6875 -2.375q-0.6875 -0.890625 -1.90625 -0.890625q-1.21875 0 -1.90625 0.890625q-0.671875 0.890625 -0.671875 2.375zm10.742035 -4.796875l0 5.96875q0 1.03125 0.46875 1.53125q0.484375 0.484375 1.5 0.484375q1.09375 0 1.53125 -0.484375q0.4375 -0.484375 0.4375 -1.515625l0 -5.984375l2.09375 0l0 5.984375q0 1.765625 -1.03125 2.765625q-1.03125 1.0 -3.03125 1.0q-2.015625 0 -3.046875 -0.984375q-1.015625 -0.984375 -1.015625 -2.78125l0 -5.984375l2.09375 0zm13.019592 0q1.140625 0 1.9375 0.75q0.796875 0.734375 0.796875 1.875q0 0.90625 -0.375 1.5q-0.375 0.578125 -1.140625 0.890625l0 0.015625q0.671875 0.1875 1.03125 0.8125q0.359375 0.625 0.390625 1.90625q0.015625 1.296875 0.375 1.765625l-2.109375 0q-0.171875 -0.46875 -0.234375 -1.5q-0.109375 -1.40625 -0.484375 -1.8125q-0.375 -0.40625 -1.140625 -0.40625l-2.140625 0l0 3.71875l-2.09375 0l0 -9.515625l5.1875 0zm-0.765625 4.296875q0.65625 0 1.015625 -0.3125q0.375 -0.3125 0.375 -1.046875q0 -0.671875 -0.359375 -0.984375q-0.34375 -0.328125 -1.03125 -0.328125l-2.328125 0l0 2.671875l2.328125 0zm9.468903 -4.53125q1.625 0 2.765625 0.921875q1.140625 0.921875 1.328125 2.515625l-2.015625 0q-0.140625 -0.75 -0.75 -1.203125q-0.59375 -0.46875 -1.328125 -0.46875q-1.234375 0 -1.921875 0.890625q-0.671875 0.890625 -0.671875 2.375q0 1.40625 0.671875 2.296875q0.671875 0.890625 1.921875 0.890625q0.90625 0 1.453125 -0.5625q0.5625 -0.5625 0.703125 -1.5625l2.03125 0q-0.1875 1.8125 -1.328125 2.859375q-1.125 1.03125 -2.859375 1.03125q-1.375 0 -2.453125 -0.625q-1.0625 -0.640625 -1.65625 -1.78125q-0.578125 -1.140625 -0.578125 -2.546875q0 -2.1875 1.28125 -3.609375q1.296875 -1.421875 3.40625 -1.421875zm12.722687 0.234375l0 1.765625l-5.015625 0l0 2.03125l4.609375 0l0 1.625l-4.609375 0l0 2.34375l5.125 0l0 1.75l-7.21875 0l0 -9.515625l7.109375 0zm4.807831 -0.234375q1.71875 0 2.75 0.8125q1.046875 0.796875 1.046875 2.265625l-2.015625 0q-0.046875 -0.71875 -0.5 -1.078125q-0.4375 -0.359375 -1.375 -0.359375q-0.640625 0 -1.046875 0.28125q-0.40625 0.265625 -0.40625 0.796875q0 0.359375 0.171875 0.53125q0.171875 0.171875 0.6875 0.375q0.53125 0.1875 2.296875 0.59375q1.1875 0.296875 1.84375 0.984375q0.671875 0.671875 0.671875 1.71875q0 1.390625 -1.046875 2.234375q-1.03125 0.828125 -2.90625 0.828125q-1.796875 0 -2.9375 -0.890625q-1.125 -0.890625 -1.125 -2.453125l0 -0.046875l2.03125 0q0 0.890625 0.578125 1.328125q0.578125 0.421875 1.515625 0.421875q0.859375 0 1.359375 -0.296875q0.5 -0.3125 0.5 -0.875q0 -0.46875 -0.390625 -0.765625q-0.375 -0.296875 -1.234375 -0.515625q-1.09375 -0.234375 -1.984375 -0.515625q-0.890625 -0.28125 -1.484375 -0.890625q-0.578125 -0.625 -0.578125 -1.59375q0 -1.28125 1.03125 -2.078125q1.03125 -0.8125 2.546875 -0.8125z" fill-rule="nonzero"/><path fill="#ffa000" d="m424.64777 474.50397q1.71875 0 2.75 0.8125q1.046875 0.796875 1.046875 2.265625l-2.015625 0q-0.046875 -0.71875 -0.5 -1.078125q-0.4375 -0.359375 -1.375 -0.359375q-0.640625 0 -1.046875 0.28125q-0.40625 0.265625 -0.40625 0.796875q0 0.359375 0.171875 0.53125q0.171875 0.171875 0.6875 0.375q0.53125 0.1875 2.296875 0.59375q1.1875 0.296875 1.84375 0.984375q0.671875 0.671875 0.671875 1.71875q0 1.390625 -1.046875 2.234375q-1.03125 0.828125 -2.90625 0.828125q-1.796875 0 -2.9375 -0.890625q-1.125 -0.890625 -1.125 -2.453125l0 -0.046875l2.03125 0q0 0.890625 0.578125 1.328125q0.578125 0.421875 1.515625 0.421875q0.859375 0 1.359375 -0.296875q0.5 -0.3125 0.5 -0.875q0 -0.46875 -0.390625 -0.765625q-0.375 -0.296875 -1.234375 -0.515625q-1.09375 -0.234375 -1.984375 -0.515625q-0.890625 -0.28125 -1.484375 -0.890625q-0.578125 -0.625 -0.578125 -1.59375q0 -1.28125 1.03125 -2.078125q1.03125 -0.8125 2.546875 -0.8125zm12.414581 0.234375l0 1.765625l-2.859375 0l0 7.75l-2.078125 0l0 -7.75l-2.859375 0l0 -1.765625l7.796875 0zm5.8288574 0l3.5625 9.515625l-2.171875 0l-0.71875 -2.125l-3.5625 0l-0.734375 2.125l-2.125 0l3.609375 -9.515625l2.140625 0zm-1.09375 2.34375l-1.25 3.5l2.46875 0l-1.1875 -3.5l-0.03125 0zm12.536804 -2.34375l0 1.765625l-2.859375 0l0 7.75l-2.078125 0l0 -7.75l-2.859375 0l0 -1.765625l7.796875 0zm3.1882324 0l0 9.515625l-2.09375 0l0 -9.515625l2.09375 0zm6.1026306 -0.234375q2.125 0 3.390625 1.421875q1.28125 1.421875 1.28125 3.609375q0 1.015625 -0.3125 1.90625q-0.3125 0.890625 -0.921875 1.609375l1.1875 1.078125l-0.96875 1.015625l-1.359375 -1.21875q-0.453125 0.265625 -1.03125 0.40625q-0.578125 0.15625 -1.265625 0.15625q-2.140625 0 -3.421875 -1.421875q-1.265625 -1.4375 -1.265625 -3.53125q0 -2.203125 1.28125 -3.609375q1.296875 -1.421875 3.40625 -1.421875zm-2.59375 5.03125q0 1.390625 0.671875 2.3125q0.671875 0.921875 2.15625 0.875q0.234375 0 0.390625 -0.03125q0.15625 -0.03125 0.21875 -0.109375l-0.90625 -0.8125l0.984375 -1.03125l1.078125 0.984375q0.296875 -0.40625 0.4375 -0.953125q0.140625 -0.5625 0.140625 -1.234375q0 -1.515625 -0.6875 -2.390625q-0.671875 -0.875 -1.90625 -0.875q-1.21875 0 -1.90625 0.890625q-0.671875 0.890625 -0.671875 2.375zm10.742065 -4.796875l0 5.96875q0 1.03125 0.46875 1.53125q0.484375 0.484375 1.5 0.484375q1.09375 0 1.53125 -0.484375q0.4375 -0.484375 0.4375 -1.515625l0 -5.984375l2.09375 0l0 5.984375q0 1.765625 -1.03125 2.765625q-1.03125 1.0 -3.03125 1.0q-2.015625 0 -3.046875 -0.984375q-1.015625 -0.984375 -1.015625 -2.78125l0 -5.984375l2.09375 0zm14.941437 0l0 1.765625l-5.015625 0l0 2.03125l4.609375 0l0 1.625l-4.609375 0l0 2.34375l5.125 0l0 1.75l-7.21875 0l0 -9.515625l7.109375 0zm4.807831 -0.234375q1.71875 0 2.75 0.8125q1.046875 0.796875 1.046875 2.265625l-2.015625 0q-0.046875 -0.71875 -0.5 -1.078125q-0.4375 -0.359375 -1.375 -0.359375q-0.640625 0 -1.046875 0.28125q-0.40625 0.265625 -0.40625 0.796875q0 0.359375 0.171875 0.53125q0.171875 0.171875 0.6875 0.375q0.53125 0.1875 2.296875 0.59375q1.1875 0.296875 1.84375 0.984375q0.671875 0.671875 0.671875 1.71875q0 1.390625 -1.046875 2.234375q-1.03125 0.828125 -2.90625 0.828125q-1.796875 0 -2.9375 -0.890625q-1.125 -0.890625 -1.125 -2.453125l0 -0.046875l2.03125 0q0 0.890625 0.578125 1.328125q0.578125 0.421875 1.515625 0.421875q0.859375 0 1.359375 -0.296875q0.5 -0.3125 0.5 -0.875q0 -0.46875 -0.390625 -0.765625q-0.375 -0.296875 -1.234375 -0.515625q-1.09375 -0.234375 -1.984375 -0.515625q-0.890625 -0.28125 -1.484375 -0.890625q-0.578125 -0.625 -0.578125 -1.59375q0 -1.28125 1.03125 -2.078125q1.03125 -0.8125 2.546875 -0.8125zm7.352112 2.984375l0 2.046875l-2.09375 0l0 -2.046875l2.09375 0zm0 4.71875l0 2.046875l-2.09375 0l0 -2.046875l2.09375 0z" fill-rule="nonzero"/><path fill="#777777" d="m444.06747 506.73834l0 3.65625l3.84375 0l0 -3.65625l2.09375 0l0 9.515625l-2.09375 0l0 -4.109375l-3.84375 0l0 4.109375l-2.09375 0l0 -9.515625l2.09375 0zm14.832062 0l0 1.765625l-2.859375 0l0 7.75l-2.078125 0l0 -7.75l-2.859375 0l0 -1.765625l7.796875 0zm4.0319824 0l2.234375 6.546875l0.03125 0l2.09375 -6.515625l0.015625 -0.03125l2.9375 0l0 9.515625l-1.96875 0l0 -6.734375l-0.015625 0l-2.328125 6.734375l-1.625 0l-2.328125 -6.671875l-0.03125 0l0 6.671875l-1.953125 0l0 -9.515625l2.9375 0zm11.247894 0l0 7.765625l4.640625 0l0 1.75l-6.734375 0l0 -9.515625l2.09375 0z" fill-rule="nonzero"/><path fill="#777777" d="m451.65714 522.50397q1.625 0 2.765625 0.921875q1.140625 0.921875 1.328125 2.515625l-2.015625 0q-0.140625 -0.75 -0.75 -1.203125q-0.59375 -0.46875 -1.328125 -0.46875q-1.234375 0 -1.921875 0.890625q-0.671875 0.890625 -0.671875 2.375q0 1.40625 0.671875 2.296875q0.671875 0.890625 1.921875 0.890625q0.90625 0 1.453125 -0.5625q0.5625 -0.5625 0.703125 -1.5625l2.03125 0q-0.1875 1.8125 -1.328125 2.859375q-1.125 1.03125 -2.859375 1.03125q-1.375 0 -2.453125 -0.625q-1.0625 -0.640625 -1.65625 -1.78125q-0.578125 -1.140625 -0.578125 -2.546875q0 -2.1875 1.28125 -3.609375q1.296875 -1.421875 3.40625 -1.421875zm8.894592 0q1.71875 0 2.75 0.8125q1.046875 0.796875 1.046875 2.265625l-2.015625 0q-0.046875 -0.71875 -0.5 -1.078125q-0.4375 -0.359375 -1.375 -0.359375q-0.640625 0 -1.046875 0.28125q-0.40625 0.265625 -0.40625 0.796875q0 0.359375 0.171875 0.53125q0.171875 0.171875 0.6875 0.375q0.53125 0.1875 2.296875 0.59375q1.1875 0.296875 1.84375 0.984375q0.671875 0.671875 0.671875 1.71875q0 1.390625 -1.046875 2.234375q-1.03125 0.828125 -2.90625 0.828125q-1.796875 0 -2.9375 -0.890625q-1.125 -0.890625 -1.125 -2.453125l0 -0.046875l2.03125 0q0 0.890625 0.578125 1.328125q0.578125 0.421875 1.515625 0.421875q0.859375 0 1.359375 -0.296875q0.5 -0.3125 0.5 -0.875q0 -0.46875 -0.390625 -0.765625q-0.375 -0.296875 -1.234375 -0.515625q-1.09375 -0.234375 -1.984375 -0.515625q-0.890625 -0.28125 -1.484375 -0.890625q-0.578125 -0.625 -0.578125 -1.59375q0 -1.28125 1.03125 -2.078125q1.03125 -0.8125 2.546875 -0.8125zm8.648956 0q1.71875 0 2.75 0.8125q1.046875 0.796875 1.046875 2.265625l-2.015625 0q-0.046875 -0.71875 -0.5 -1.078125q-0.4375 -0.359375 -1.375 -0.359375q-0.640625 0 -1.046875 0.28125q-0.40625 0.265625 -0.40625 0.796875q0 0.359375 0.171875 0.53125q0.171875 0.171875 0.6875 0.375q0.53125 0.1875 2.296875 0.59375q1.1875 0.296875 1.84375 0.984375q0.671875 0.671875 0.671875 1.71875q0 1.390625 -1.046875 2.234375q-1.03125 0.828125 -2.90625 0.828125q-1.796875 0 -2.9375 -0.890625q-1.125 -0.890625 -1.125 -2.453125l0 -0.046875l2.03125 0q0 0.890625 0.578125 1.328125q0.578125 0.421875 1.515625 0.421875q0.859375 0 1.359375 -0.296875q0.5 -0.3125 0.5 -0.875q0 -0.46875 -0.390625 -0.765625q-0.375 -0.296875 -1.234375 -0.515625q-1.09375 -0.234375 -1.984375 -0.515625q-0.890625 -0.28125 -1.484375 -0.890625q-0.578125 -0.625 -0.578125 -1.59375q0 -1.28125 1.03125 -2.078125q1.03125 -0.8125 2.546875 -0.8125z" fill-rule="nonzero"/><path fill="#777777" d="m458.51175 538.73834l0 6.578125q0 1.53125 -0.796875 2.359375q-0.796875 0.8125 -2.359375 0.8125q-1.390625 0 -2.265625 -0.78125q-0.875 -0.796875 -0.875 -2.125l0 -0.875l1.890625 0l0 0.359375q0 0.953125 0.296875 1.3125q0.3125 0.34375 0.921875 0.34375q0.546875 0 0.828125 -0.296875q0.28125 -0.296875 0.28125 -1.1875l0 -6.5l2.078125 0zm5.1312256 -0.234375q1.71875 0 2.75 0.8125q1.046875 0.796875 1.046875 2.265625l-2.015625 0q-0.046875 -0.71875 -0.5 -1.078125q-0.4375 -0.359375 -1.375 -0.359375q-0.640625 0 -1.046875 0.28125q-0.40625 0.265625 -0.40625 0.796875q0 0.359375 0.171875 0.53125q0.171875 0.171875 0.6875 0.375q0.53125 0.1875 2.296875 0.59375q1.1875 0.296875 1.84375 0.984375q0.671875 0.671875 0.671875 1.71875q0 1.390625 -1.046875 2.234375q-1.03125 0.828125 -2.90625 0.828125q-1.796875 0 -2.9375 -0.890625q-1.125 -0.890625 -1.125 -2.453125l0 -0.046875l2.03125 0q0 0.890625 0.578125 1.328125q0.578125 0.421875 1.515625 0.421875q0.859375 0 1.359375 -0.296875q0.5 -0.3125 0.5 -0.875q0 -0.46875 -0.390625 -0.765625q-0.375 -0.296875 -1.234375 -0.515625q-1.09375 -0.234375 -1.984375 -0.515625q-0.890625 -0.28125 -1.484375 -0.890625q-0.578125 -0.625 -0.578125 -1.59375q0 -1.28125 1.03125 -2.078125q1.03125 -0.8125 2.546875 -0.8125z" fill-rule="nonzero"/><path fill="#777777" d="m436.79816 554.73834l0 9.515625l-2.09375 0l0 -9.515625l2.09375 0zm4.7745056 0l2.234375 6.546875l0.03125 0l2.09375 -6.515625l0.015625 -0.03125l2.9375 0l0 9.515625l-1.96875 0l0 -6.734375l-0.015625 0l-2.328125 6.734375l-1.625 0l-2.328125 -6.671875l-0.03125 0l0 6.671875l-1.953125 0l0 -9.515625l2.9375 0zm13.888519 0l3.5625 9.515625l-2.171875 0l-0.71875 -2.125l-3.5625 0l-0.734375 2.125l-2.125 0l3.609375 -9.515625l2.140625 0zm-1.09375 2.34375l-1.25 3.5l2.46875 0l-1.1875 -3.5l-0.03125 0zm9.755554 -2.578125q1.546875 0 2.6875 0.90625q1.140625 0.890625 1.328125 2.453125l-2.0 0q-0.203125 -0.796875 -0.734375 -1.1875q-0.53125 -0.40625 -1.28125 -0.40625q-1.25 0 -1.921875 0.90625q-0.671875 0.890625 -0.671875 2.359375q0 1.390625 0.671875 2.296875q0.671875 0.890625 1.921875 0.890625q1.0 0 1.578125 -0.515625q0.59375 -0.515625 0.6875 -1.53125l-2.109375 0l0 -1.5625l4.0 0l0 5.140625l-1.328125 0l-0.21875 -1.078125q-0.515625 0.65625 -1.171875 0.984375q-0.640625 0.328125 -1.4375 0.328125q-1.375 0 -2.453125 -0.625q-1.0625 -0.640625 -1.65625 -1.78125q-0.578125 -1.140625 -0.578125 -2.546875q0 -2.203125 1.28125 -3.609375q1.296875 -1.421875 3.40625 -1.421875zm12.95697 0.234375l0 1.765625l-5.015625 0l0 2.03125l4.609375 0l0 1.625l-4.609375 0l0 2.34375l5.125 0l0 1.75l-7.21875 0l0 -9.515625l7.109375 0zm4.807831 -0.234375q1.71875 0 2.75 0.8125q1.046875 0.796875 1.046875 2.265625l-2.015625 0q-0.046875 -0.71875 -0.5 -1.078125q-0.4375 -0.359375 -1.375 -0.359375q-0.640625 0 -1.046875 0.28125q-0.40625 0.265625 -0.40625 0.796875q0 0.359375 0.171875 0.53125q0.171875 0.171875 0.6875 0.375q0.53125 0.1875 2.296875 0.59375q1.1875 0.296875 1.84375 0.984375q0.671875 0.671875 0.671875 1.71875q0 1.390625 -1.046875 2.234375q-1.03125 0.828125 -2.90625 0.828125q-1.796875 0 -2.9375 -0.890625q-1.125 -0.890625 -1.125 -2.453125l0 -0.046875l2.03125 0q0 0.890625 0.578125 1.328125q0.578125 0.421875 1.515625 0.421875q0.859375 0 1.359375 -0.296875q0.5 -0.3125 0.5 -0.875q0 -0.46875 -0.390625 -0.765625q-0.375 -0.296875 -1.234375 -0.515625q-1.09375 -0.234375 -1.984375 -0.515625q-0.890625 -0.28125 -1.484375 -0.890625q-0.578125 -0.625 -0.578125 -1.59375q0 -1.28125 1.03125 -2.078125q1.03125 -0.8125 2.546875 -0.8125z" fill-rule="nonzero"/><path fill="#000000" fill-opacity="0.0" d="m399.41385 505.94073l-119.55905 -171.90549" fill-rule="evenodd"/><path stroke="#777777" stroke-width="2.0" stroke-linejoin="round" stroke-linecap="butt" d="m399.41385 505.94073l-112.70737 -162.0539" fill-rule="evenodd"/><path fill="#777777" stroke="#777777" stroke-width="2.0" stroke-linecap="butt" d="m289.41852 342.0006l-7.8943176 -5.565033l2.4702759 9.337463z" fill-rule="evenodd"/><path fill="#000000" fill-opacity="0.0" d="m648.1601 505.93973l-116.44092 0" fill-rule="evenodd"/><path stroke="#777777" stroke-width="2.0" stroke-linejoin="round" stroke-linecap="butt" d="m648.1601 505.93973l-116.44092 0" fill-rule="evenodd"/><path fill="#000000" fill-opacity="0.0" d="m552.2449 455.51184l73.82678 0l0 36.91339l-73.82678 0z" fill-rule="evenodd"/><path fill="#777777" d="m569.6067 469.12308l-0.84375 4.015625l4.234375 0l0.84375 -4.015625l2.3125 0l-2.203125 10.46875l-2.328125 0l0.953125 -4.515625l-4.21875 0l-0.96875 4.515625l-2.3125 0l2.21875 -10.46875l2.3125 0zm16.332092 0l-0.40625 1.9375l-3.140625 0l-1.796875 8.53125l-2.3125 0l1.796875 -8.53125l-3.28125 0l0.40625 -1.9375l8.734375 0zm8.952637 0l-0.40625 1.9375l-3.140625 0l-1.796875 8.53125l-2.3125 0l1.796875 -8.53125l-3.28125 0l0.40625 -1.9375l8.734375 0zm5.4057617 0q1.71875 0 2.640625 0.75q0.921875 0.75 0.921875 2.3125q0 1.09375 -0.5625 1.9375q-0.546875 0.84375 -1.5 1.28125q-0.953125 0.4375 -1.953125 0.4375l-2.90625 0l-0.796875 3.75l-2.296875 0l2.1875 -10.46875l4.265625 0zm-2.328125 1.796875l-0.65625 3.140625l2.40625 0q0.84375 0 1.34375 -0.46875q0.5 -0.46875 0.5 -1.359375q0 -0.65625 -0.421875 -0.984375q-0.421875 -0.328125 -1.15625 -0.328125l-2.015625 0zm11.088074 -2.046875q1.84375 0 2.875 0.875q1.03125 0.875 1.03125 2.5l-2.171875 0l0 -0.109375q0 -0.734375 -0.484375 -1.09375q-0.484375 -0.375 -1.390625 -0.375q-0.828125 0 -1.328125 0.34375q-0.5 0.328125 -0.5 0.953125q0 0.484375 0.515625 0.828125q0.515625 0.34375 1.5625 0.5625q1.75 0.375 2.46875 1.0625q0.734375 0.671875 0.734375 1.953125q0 1.625 -1.21875 2.546875q-1.203125 0.921875 -3.046875 0.921875q-2.1875 0 -3.265625 -0.921875q-1.078125 -0.9375 -1.078125 -2.796875l2.171875 0l0 0.109375q0 0.9375 0.5625 1.390625q0.578125 0.4375 1.703125 0.4375q0.84375 0 1.40625 -0.40625q0.578125 -0.40625 0.578125 -1.078125q0 -0.484375 -0.421875 -0.8125q-0.421875 -0.328125 -1.640625 -0.65625q-1.90625 -0.484375 -2.5625 -1.1875q-0.65625 -0.71875 -0.65625 -1.78125q0 -1.53125 1.15625 -2.390625q1.171875 -0.875 3.0 -0.875z" fill-rule="nonzero"/><path fill="#000000" fill-opacity="0.0" d="m276.87833 501.86093l123.93701 0l0 36.91336l-123.93701 0z" fill-rule="evenodd"/><path fill="#777777" d="m298.70044 515.47217l-0.40625 1.9375l-3.140625 0l-1.796875 8.53125l-2.3125 0l1.796875 -8.53125l-3.28125 0l0.40625 -1.9375l8.734375 0zm9.140137 0l-0.390625 1.9375l-5.6875 0l-0.46875 2.234375l5.265625 0l-0.390625 1.796875l-5.265625 0l-0.53125 2.5625l5.78125 0l-0.421875 1.9375l-8.078125 0l2.203125 -10.46875l7.984375 0zm-1.640625 -3.03125l-2.0625 2.078125l-1.46875 0l1.296875 -2.078125l2.234375 0zm5.7443542 3.03125l-1.78125 8.53125l5.046875 0l-0.40625 1.9375l-7.375 0l2.203125 -10.46875l2.3125 0zm14.087769 0l-0.390625 1.9375l-5.6875 0l-0.46875 2.234375l5.265625 0l-0.390625 1.796875l-5.265625 0l-0.53125 2.5625l5.78125 0l-0.421875 1.9375l-8.078125 0l2.203125 -10.46875l7.984375 0zm-1.640625 -3.03125l-2.0625 2.078125l-1.46875 0l1.296875 -2.078125l2.234375 0zm7.5412292 2.78125q1.90625 0 3.046875 1.015625q1.15625 1.0 1.15625 2.734375l0 0.140625l-2.296875 0q-0.015625 -0.96875 -0.53125 -1.453125q-0.515625 -0.5 -1.34375 -0.5q-1.5625 0 -2.5 1.3125q-0.9375 1.3125 -0.9375 3.078125q0 1.21875 0.609375 1.96875q0.625 0.734375 1.765625 0.734375q0.90625 0 1.59375 -0.59375q0.6875 -0.59375 0.859375 -1.484375l2.3125 0q-0.65625 2.046875 -1.8125 3.03125q-1.15625 0.984375 -2.984375 0.984375q-2.1875 0 -3.421875 -1.203125q-1.21875 -1.21875 -1.21875 -3.421875q0 -1.78125 0.75 -3.25q0.75 -1.484375 2.046875 -2.28125q1.296875 -0.8125 2.90625 -0.8125zm9.082123 0.25l-0.84375 4.015625l4.234375 0l0.84375 -4.015625l2.3125 0l-2.203125 10.46875l-2.328125 0l0.953125 -4.515625l-4.21875 0l-0.96875 4.515625l-2.3125 0l2.21875 -10.46875l2.3125 0zm13.800873 0l1.75 10.46875l-2.28125 0l-0.34375 -2.328125l-3.90625 0l-1.328125 2.328125l-2.421875 0l6.1875 -10.46875l2.34375 0zm-1.609375 2.265625l-2.265625 4.15625l2.796875 0l-0.515625 -4.15625l-0.015625 0zm11.602875 -2.265625q1.359375 0 2.125 0.6875q0.78125 0.671875 0.78125 2.046875q0 1.046875 -0.671875 1.859375q-0.65625 0.796875 -1.734375 0.96875l0 0.03125q0.515625 0.15625 0.796875 0.59375q0.28125 0.4375 0.28125 1.25q0 0.265625 -0.03125 0.84375q-0.046875 0.578125 -0.046875 0.96875q0 0.390625 0.03125 0.71875q0.046875 0.3125 0.125 0.5l-2.25 0q-0.046875 -0.21875 -0.078125 -0.375q-0.015625 -0.15625 -0.015625 -0.34375q0 -0.390625 0.0625 -1.046875q0.046875 -0.671875 0.046875 -1.046875q0 -0.6875 -0.359375 -0.984375q-0.359375 -0.296875 -1.09375 -0.296875l-2.21875 0l-0.875 4.09375l-2.296875 0l2.203125 -10.46875l5.21875 0zm-3.28125 1.796875l-0.625 2.9375l2.1875 0q0.953125 0 1.625 -0.421875q0.6875 -0.4375 0.6875 -1.234375q0 -0.640625 -0.375 -0.953125q-0.359375 -0.328125 -1.25 -0.328125l-2.25 0zm12.77179 -2.046875q2.0 0 3.203125 0.96875q1.21875 0.953125 1.234375 2.75l-2.296875 0q-0.0625 -0.921875 -0.609375 -1.34375q-0.53125 -0.4375 -1.515625 -0.4375q-1.0 0 -1.78125 0.578125q-0.78125 0.5625 -1.21875 1.609375q-0.4375 1.046875 -0.4375 2.203125q0 1.21875 0.609375 1.96875q0.625 0.734375 1.765625 0.734375q1.1875 0 1.875 -0.5625q0.703125 -0.5625 1.03125 -1.6875l-2.421875 0l0.359375 -1.71875l4.4375 0l-1.203125 5.65625l-1.4375 0l0 -1.078125l-0.03125 0q-0.46875 0.65625 -1.15625 1.0q-0.671875 0.328125 -1.5 0.328125q-2.171875 0 -3.40625 -1.203125q-1.21875 -1.21875 -1.21875 -3.421875q0 -1.78125 0.75 -3.25q0.75 -1.484375 2.046875 -2.28125q1.296875 -0.8125 2.921875 -0.8125zm14.980377 0.25l-0.390625 1.9375l-5.6875 0l-0.46875 2.234375l5.265625 0l-0.390625 1.796875l-5.265625 0l-0.53125 2.5625l5.78125 0l-0.421875 1.9375l-8.078125 0l2.203125 -10.46875l7.984375 0z" fill-rule="nonzero"/><path fill="#000000" fill-opacity="0.0" d="m704.7288 444.63367l110.262024 0l22.052917 22.052917l0 129.31714l-132.31494 0z" fill-rule="evenodd"/><path stroke="#777777" stroke-width="2.0" stroke-linejoin="round" stroke-linecap="butt" d="m704.7288 444.63367l110.262024 0l22.052917 22.052917l0 129.31714l-132.31494 0z" fill-rule="evenodd"/><path fill="#ffa000" d="m725.18536 473.1163q1.140625 0 1.9375 0.75q0.796875 0.734375 0.796875 1.875q0 0.90625 -0.375 1.5q-0.375 0.578125 -1.140625 0.890625l0 0.015625q0.671875 0.1875 1.03125 0.8125q0.359375 0.625 0.390625 1.90625q0.015625 1.296875 0.375 1.765625l-2.109375 0q-0.171875 -0.46875 -0.234375 -1.5q-0.109375 -1.40625 -0.484375 -1.8125q-0.375 -0.40625 -1.140625 -0.40625l-2.140625 0l0 3.71875l-2.09375 0l0 -9.515625l5.1875 0zm-0.765625 4.296875q0.65625 0 1.015625 -0.3125q0.375 -0.3125 0.375 -1.046875q0 -0.671875 -0.359375 -0.984375q-0.34375 -0.328125 -1.03125 -0.328125l-2.328125 0l0 2.671875l2.328125 0zm12.312683 -4.296875l0 1.765625l-5.015625 0l0 2.03125l4.609375 0l0 1.625l-4.609375 0l0 2.34375l5.125 0l0 1.75l-7.21875 0l0 -9.515625l7.109375 0zm4.8078003 -0.234375q1.71875 0 2.75 0.8125q1.046875 0.796875 1.046875 2.265625l-2.015625 0q-0.046875 -0.71875 -0.5 -1.078125q-0.4375 -0.359375 -1.375 -0.359375q-0.640625 0 -1.046875 0.28125q-0.40625 0.265625 -0.40625 0.796875q0 0.359375 0.171875 0.53125q0.171875 0.171875 0.6875 0.375q0.53125 0.1875 2.296875 0.59375q1.1875 0.296875 1.84375 0.984375q0.671875 0.671875 0.671875 1.71875q0 1.390625 -1.046875 2.234375q-1.03125 0.828125 -2.90625 0.828125q-1.796875 0 -2.9375 -0.890625q-1.125 -0.890625 -1.125 -2.453125l0 -0.046875l2.03125 0q0 0.890625 0.578125 1.328125q0.578125 0.421875 1.515625 0.421875q0.859375 0 1.359375 -0.296875q0.5 -0.3125 0.5 -0.875q0 -0.46875 -0.390625 -0.765625q-0.375 -0.296875 -1.234375 -0.515625q-1.09375 -0.234375 -1.984375 -0.515625q-0.890625 -0.28125 -1.484375 -0.890625q-0.578125 -0.625 -0.578125 -1.59375q0 -1.28125 1.03125 -2.078125q1.03125 -0.8125 2.546875 -0.8125zm8.648987 0q1.71875 0 2.75 0.8125q1.046875 0.796875 1.046875 2.265625l-2.015625 0q-0.046875 -0.71875 -0.5 -1.078125q-0.4375 -0.359375 -1.375 -0.359375q-0.640625 0 -1.046875 0.28125q-0.40625 0.265625 -0.40625 0.796875q0 0.359375 0.171875 0.53125q0.171875 0.171875 0.6875 0.375q0.53125 0.1875 2.296875 0.59375q1.1875 0.296875 1.84375 0.984375q0.671875 0.671875 0.671875 1.71875q0 1.390625 -1.046875 2.234375q-1.03125 0.828125 -2.90625 0.828125q-1.796875 0 -2.9375 -0.890625q-1.125 -0.890625 -1.125 -2.453125l0 -0.046875l2.03125 0q0 0.890625 0.578125 1.328125q0.578125 0.421875 1.515625 0.421875q0.859375 0 1.359375 -0.296875q0.5 -0.3125 0.5 -0.875q0 -0.46875 -0.390625 -0.765625q-0.375 -0.296875 -1.234375 -0.515625q-1.09375 -0.234375 -1.984375 -0.515625q-0.890625 -0.28125 -1.484375 -0.890625q-0.578125 -0.625 -0.578125 -1.59375q0 -1.28125 1.03125 -2.078125q1.03125 -0.8125 2.546875 -0.8125zm9.633362 0q2.125 0 3.390625 1.4375q1.28125 1.421875 1.28125 3.59375q0 2.125 -1.28125 3.546875q-1.28125 1.40625 -3.390625 1.40625q-1.375 0 -2.453125 -0.625q-1.0625 -0.640625 -1.65625 -1.78125q-0.578125 -1.140625 -0.578125 -2.546875q0 -2.203125 1.28125 -3.609375q1.296875 -1.421875 3.40625 -1.421875zm-2.59375 5.03125q0 1.40625 0.671875 2.296875q0.671875 0.890625 1.921875 0.890625q1.234375 0 1.90625 -0.875q0.671875 -0.875 0.671875 -2.3125q0 -1.5 -0.6875 -2.375q-0.6875 -0.890625 -1.90625 -0.890625q-1.21875 0 -1.90625 0.890625q-0.671875 0.890625 -0.671875 2.375zm10.742004 -4.796875l0 5.96875q0 1.03125 0.46875 1.53125q0.484375 0.484375 1.5 0.484375q1.09375 0 1.53125 -0.484375q0.4375 -0.484375 0.4375 -1.515625l0 -5.984375l2.09375 0l0 5.984375q0 1.765625 -1.03125 2.765625q-1.03125 1.0 -3.03125 1.0q-2.015625 0 -3.046875 -0.984375q-1.015625 -0.984375 -1.015625 -2.78125l0 -5.984375l2.09375 0zm13.019592 0q1.140625 0 1.9375 0.75q0.796875 0.734375 0.796875 1.875q0 0.90625 -0.375 1.5q-0.375 0.578125 -1.140625 0.890625l0 0.015625q0.671875 0.1875 1.03125 0.8125q0.359375 0.625 0.390625 1.90625q0.015625 1.296875 0.375 1.765625l-2.109375 0q-0.171875 -0.46875 -0.234375 -1.5q-0.109375 -1.40625 -0.484375 -1.8125q-0.375 -0.40625 -1.140625 -0.40625l-2.140625 0l0 3.71875l-2.09375 0l0 -9.515625l5.1875 0zm-0.765625 4.296875q0.65625 0 1.015625 -0.3125q0.375 -0.3125 0.375 -1.046875q0 -0.671875 -0.359375 -0.984375q-0.34375 -0.328125 -1.03125 -0.328125l-2.328125 0l0 2.671875l2.328125 0zm9.468933 -4.53125q1.625 0 2.765625 0.921875q1.140625 0.921875 1.328125 2.515625l-2.015625 0q-0.140625 -0.75 -0.75 -1.203125q-0.59375 -0.46875 -1.328125 -0.46875q-1.234375 0 -1.921875 0.890625q-0.671875 0.890625 -0.671875 2.375q0 1.40625 0.671875 2.296875q0.671875 0.890625 1.921875 0.890625q0.90625 0 1.453125 -0.5625q0.5625 -0.5625 0.703125 -1.5625l2.03125 0q-0.1875 1.8125 -1.328125 2.859375q-1.125 1.03125 -2.859375 1.03125q-1.375 0 -2.453125 -0.625q-1.0625 -0.640625 -1.65625 -1.78125q-0.578125 -1.140625 -0.578125 -2.546875q0 -2.1875 1.28125 -3.609375q1.296875 -1.421875 3.40625 -1.421875zm12.722656 0.234375l0 1.765625l-5.015625 0l0 2.03125l4.609375 0l0 1.625l-4.609375 0l0 2.34375l5.125 0l0 1.75l-7.21875 0l0 -9.515625l7.109375 0zm4.8078613 -0.234375q1.71875 0 2.75 0.8125q1.046875 0.796875 1.046875 2.265625l-2.015625 0q-0.046875 -0.71875 -0.5 -1.078125q-0.4375 -0.359375 -1.375 -0.359375q-0.640625 0 -1.046875 0.28125q-0.40625 0.265625 -0.40625 0.796875q0 0.359375 0.171875 0.53125q0.171875 0.171875 0.6875 0.375q0.53125 0.1875 2.296875 0.59375q1.1875 0.296875 1.84375 0.984375q0.671875 0.671875 0.671875 1.71875q0 1.390625 -1.046875 2.234375q-1.03125 0.828125 -2.90625 0.828125q-1.796875 0 -2.9375 -0.890625q-1.125 -0.890625 -1.125 -2.453125l0 -0.046875l2.03125 0q0 0.890625 0.578125 1.328125q0.578125 0.421875 1.515625 0.421875q0.859375 0 1.359375 -0.296875q0.5 -0.3125 0.5 -0.875q0 -0.46875 -0.390625 -0.765625q-0.375 -0.296875 -1.234375 -0.515625q-1.09375 -0.234375 -1.984375 -0.515625q-0.890625 -0.28125 -1.484375 -0.890625q-0.578125 -0.625 -0.578125 -1.59375q0 -1.28125 1.03125 -2.078125q1.03125 -0.8125 2.546875 -0.8125z" fill-rule="nonzero"/><path fill="#ffa000" d="m729.9627 488.88193q1.71875 0 2.75 0.8125q1.046875 0.796875 1.046875 2.265625l-2.015625 0q-0.046875 -0.71875 -0.5 -1.078125q-0.4375 -0.359375 -1.375 -0.359375q-0.640625 0 -1.046875 0.28125q-0.40625 0.265625 -0.40625 0.796875q0 0.359375 0.171875 0.53125q0.171875 0.171875 0.6875 0.375q0.53125 0.1875 2.296875 0.59375q1.1875 0.296875 1.84375 0.984375q0.671875 0.671875 0.671875 1.71875q0 1.390625 -1.046875 2.234375q-1.03125 0.828125 -2.90625 0.828125q-1.796875 0 -2.9375 -0.890625q-1.125 -0.890625 -1.125 -2.453125l0 -0.046875l2.03125 0q0 0.890625 0.578125 1.328125q0.578125 0.421875 1.515625 0.421875q0.859375 0 1.359375 -0.296875q0.5 -0.3125 0.5 -0.875q0 -0.46875 -0.390625 -0.765625q-0.375 -0.296875 -1.234375 -0.515625q-1.09375 -0.234375 -1.984375 -0.515625q-0.890625 -0.28125 -1.484375 -0.890625q-0.578125 -0.625 -0.578125 -1.59375q0 -1.28125 1.03125 -2.078125q1.03125 -0.8125 2.546875 -0.8125zm12.414612 0.234375l0 1.765625l-2.859375 0l0 7.75l-2.078125 0l0 -7.75l-2.859375 0l0 -1.765625l7.796875 0zm5.8288574 0l3.5625 9.515625l-2.171875 0l-0.71875 -2.125l-3.5625 0l-0.734375 2.125l-2.125 0l3.609375 -9.515625l2.140625 0zm-1.09375 2.34375l-1.25 3.5l2.46875 0l-1.1875 -3.5l-0.03125 0zm12.536804 -2.34375l0 1.765625l-2.859375 0l0 7.75l-2.078125 0l0 -7.75l-2.859375 0l0 -1.765625l7.796875 0zm3.1882324 0l0 9.515625l-2.09375 0l0 -9.515625l2.09375 0zm6.1026 -0.234375q2.125 0 3.390625 1.421875q1.28125 1.421875 1.28125 3.609375q0 1.015625 -0.3125 1.90625q-0.3125 0.890625 -0.921875 1.609375l1.1875 1.078125l-0.96875 1.015625l-1.359375 -1.21875q-0.453125 0.265625 -1.03125 0.40625q-0.578125 0.15625 -1.265625 0.15625q-2.140625 0 -3.421875 -1.421875q-1.265625 -1.4375 -1.265625 -3.53125q0 -2.203125 1.28125 -3.609375q1.296875 -1.421875 3.40625 -1.421875zm-2.59375 5.03125q0 1.390625 0.671875 2.3125q0.671875 0.921875 2.15625 0.875q0.234375 0 0.390625 -0.03125q0.15625 -0.03125 0.21875 -0.109375l-0.90625 -0.8125l0.984375 -1.03125l1.078125 0.984375q0.296875 -0.40625 0.4375 -0.953125q0.140625 -0.5625 0.140625 -1.234375q0 -1.515625 -0.6875 -2.390625q-0.671875 -0.875 -1.90625 -0.875q-1.21875 0 -1.90625 0.890625q-0.671875 0.890625 -0.671875 2.375zm10.742065 -4.796875l0 5.96875q0 1.03125 0.46875 1.53125q0.484375 0.484375 1.5 0.484375q1.09375 0 1.53125 -0.484375q0.4375 -0.484375 0.4375 -1.515625l0 -5.984375l2.09375 0l0 5.984375q0 1.765625 -1.03125 2.765625q-1.03125 1.0 -3.03125 1.0q-2.015625 0 -3.046875 -0.984375q-1.015625 -0.984375 -1.015625 -2.78125l0 -5.984375l2.09375 0zm14.941467 0l0 1.765625l-5.015625 0l0 2.03125l4.609375 0l0 1.625l-4.609375 0l0 2.34375l5.125 0l0 1.75l-7.21875 0l0 -9.515625l7.109375 0zm4.8078003 -0.234375q1.71875 0 2.75 0.8125q1.046875 0.796875 1.046875 2.265625l-2.015625 0q-0.046875 -0.71875 -0.5 -1.078125q-0.4375 -0.359375 -1.375 -0.359375q-0.640625 0 -1.046875 0.28125q-0.40625 0.265625 -0.40625 0.796875q0 0.359375 0.171875 0.53125q0.171875 0.171875 0.6875 0.375q0.53125 0.1875 2.296875 0.59375q1.1875 0.296875 1.84375 0.984375q0.671875 0.671875 0.671875 1.71875q0 1.390625 -1.046875 2.234375q-1.03125 0.828125 -2.90625 0.828125q-1.796875 0 -2.9375 -0.890625q-1.125 -0.890625 -1.125 -2.453125l0 -0.046875l2.03125 0q0 0.890625 0.578125 1.328125q0.578125 0.421875 1.515625 0.421875q0.859375 0 1.359375 -0.296875q0.5 -0.3125 0.5 -0.875q0 -0.46875 -0.390625 -0.765625q-0.375 -0.296875 -1.234375 -0.515625q-1.09375 -0.234375 -1.984375 -0.515625q-0.890625 -0.28125 -1.484375 -0.890625q-0.578125 -0.625 -0.578125 -1.59375q0 -1.28125 1.03125 -2.078125q1.03125 -0.8125 2.546875 -0.8125zm7.352112 2.984375l0 2.046875l-2.09375 0l0 -2.046875l2.09375 0zm0 4.71875l0 2.046875l-2.09375 0l0 -2.046875l2.09375 0z" fill-rule="nonzero"/><path fill="#777777" d="m749.38245 521.11633l0 3.65625l3.84375 0l0 -3.65625l2.09375 0l0 9.515625l-2.09375 0l0 -4.109375l-3.84375 0l0 4.109375l-2.09375 0l0 -9.515625l2.09375 0zm14.832031 0l0 1.765625l-2.859375 0l0 7.75l-2.078125 0l0 -7.75l-2.859375 0l0 -1.765625l7.796875 0zm4.0319824 0l2.234375 6.546875l0.03125 0l2.09375 -6.515625l0.015625 -0.03125l2.9375 0l0 9.515625l-1.96875 0l0 -6.734375l-0.015625 0l-2.328125 6.734375l-1.625 0l-2.328125 -6.671875l-0.03125 0l0 6.671875l-1.953125 0l0 -9.515625l2.9375 0zm11.247925 0l0 7.765625l4.640625 0l0 1.75l-6.734375 0l0 -9.515625l2.09375 0z" fill-rule="nonzero"/><path fill="#777777" d="m756.9721 536.88196q1.625 0 2.765625 0.921875q1.140625 0.921875 1.328125 2.515625l-2.015625 0q-0.140625 -0.75 -0.75 -1.203125q-0.59375 -0.46875 -1.328125 -0.46875q-1.234375 0 -1.921875 0.890625q-0.671875 0.890625 -0.671875 2.375q0 1.40625 0.671875 2.296875q0.671875 0.890625 1.921875 0.890625q0.90625 0 1.453125 -0.5625q0.5625 -0.5625 0.703125 -1.5625l2.03125 0q-0.1875 1.8125 -1.328125 2.859375q-1.125 1.03125 -2.859375 1.03125q-1.375 0 -2.453125 -0.625q-1.0625 -0.640625 -1.65625 -1.78125q-0.578125 -1.140625 -0.578125 -2.546875q0 -2.1875 1.28125 -3.609375q1.296875 -1.421875 3.40625 -1.421875zm8.894592 0q1.71875 0 2.75 0.8125q1.046875 0.796875 1.046875 2.265625l-2.015625 0q-0.046875 -0.71875 -0.5 -1.078125q-0.4375 -0.359375 -1.375 -0.359375q-0.640625 0 -1.046875 0.28125q-0.40625 0.265625 -0.40625 0.796875q0 0.359375 0.171875 0.53125q0.171875 0.171875 0.6875 0.375q0.53125 0.1875 2.296875 0.59375q1.1875 0.296875 1.84375 0.984375q0.671875 0.671875 0.671875 1.71875q0 1.390625 -1.046875 2.234375q-1.03125 0.828125 -2.90625 0.828125q-1.796875 0 -2.9375 -0.890625q-1.125 -0.890625 -1.125 -2.453125l0 -0.046875l2.03125 0q0 0.890625 0.578125 1.328125q0.578125 0.421875 1.515625 0.421875q0.859375 0 1.359375 -0.296875q0.5 -0.3125 0.5 -0.875q0 -0.46875 -0.390625 -0.765625q-0.375 -0.296875 -1.234375 -0.515625q-1.09375 -0.234375 -1.984375 -0.515625q-0.890625 -0.28125 -1.484375 -0.890625q-0.578125 -0.625 -0.578125 -1.59375q0 -1.28125 1.03125 -2.078125q1.03125 -0.8125 2.546875 -0.8125zm8.648926 0q1.71875 0 2.75 0.8125q1.046875 0.796875 1.046875 2.265625l-2.015625 0q-0.046875 -0.71875 -0.5 -1.078125q-0.4375 -0.359375 -1.375 -0.359375q-0.640625 0 -1.046875 0.28125q-0.40625 0.265625 -0.40625 0.796875q0 0.359375 0.171875 0.53125q0.171875 0.171875 0.6875 0.375q0.53125 0.1875 2.296875 0.59375q1.1875 0.296875 1.84375 0.984375q0.671875 0.671875 0.671875 1.71875q0 1.390625 -1.046875 2.234375q-1.03125 0.828125 -2.90625 0.828125q-1.796875 0 -2.9375 -0.890625q-1.125 -0.890625 -1.125 -2.453125l0 -0.046875l2.03125 0q0 0.890625 0.578125 1.328125q0.578125 0.421875 1.515625 0.421875q0.859375 0 1.359375 -0.296875q0.5 -0.3125 0.5 -0.875q0 -0.46875 -0.390625 -0.765625q-0.375 -0.296875 -1.234375 -0.515625q-1.09375 -0.234375 -1.984375 -0.515625q-0.890625 -0.28125 -1.484375 -0.890625q-0.578125 -0.625 -0.578125 -1.59375q0 -1.28125 1.03125 -2.078125q1.03125 -0.8125 2.546875 -0.8125z" fill-rule="nonzero"/><path fill="#777777" d="m763.8267 553.11633l0 6.578125q0 1.53125 -0.796875 2.359375q-0.796875 0.8125 -2.359375 0.8125q-1.390625 0 -2.265625 -0.78125q-0.875 -0.796875 -0.875 -2.125l0 -0.875l1.890625 0l0 0.359375q0 0.953125 0.296875 1.3125q0.3125 0.34375 0.921875 0.34375q0.546875 0 0.828125 -0.296875q0.28125 -0.296875 0.28125 -1.1875l0 -6.5l2.078125 0zm5.1312256 -0.234375q1.71875 0 2.75 0.8125q1.046875 0.796875 1.046875 2.265625l-2.015625 0q-0.046875 -0.71875 -0.5 -1.078125q-0.4375 -0.359375 -1.375 -0.359375q-0.640625 0 -1.046875 0.28125q-0.40625 0.265625 -0.40625 0.796875q0 0.359375 0.171875 0.53125q0.171875 0.171875 0.6875 0.375q0.53125 0.1875 2.296875 0.59375q1.1875 0.296875 1.84375 0.984375q0.671875 0.671875 0.671875 1.71875q0 1.390625 -1.046875 2.234375q-1.03125 0.828125 -2.90625 0.828125q-1.796875 0 -2.9375 -0.890625q-1.125 -0.890625 -1.125 -2.453125l0 -0.046875l2.03125 0q0 0.890625 0.578125 1.328125q0.578125 0.421875 1.515625 0.421875q0.859375 0 1.359375 -0.296875q0.5 -0.3125 0.5 -0.875q0 -0.46875 -0.390625 -0.765625q-0.375 -0.296875 -1.234375 -0.515625q-1.09375 -0.234375 -1.984375 -0.515625q-0.890625 -0.28125 -1.484375 -0.890625q-0.578125 -0.625 -0.578125 -1.59375q0 -1.28125 1.03125 -2.078125q1.03125 -0.8125 2.546875 -0.8125z" fill-rule="nonzero"/><path fill="#777777" d="m742.1131 569.11633l0 9.515625l-2.09375 0l0 -9.515625l2.09375 0zm4.774536 0l2.234375 6.546875l0.03125 0l2.09375 -6.515625l0.015625 -0.03125l2.9375 0l0 9.515625l-1.96875 0l0 -6.734375l-0.015625 0l-2.328125 6.734375l-1.625 0l-2.328125 -6.671875l-0.03125 0l0 6.671875l-1.953125 0l0 -9.515625l2.9375 0zm13.888489 0l3.5625 9.515625l-2.171875 0l-0.71875 -2.125l-3.5625 0l-0.734375 2.125l-2.125 0l3.609375 -9.515625l2.140625 0zm-1.09375 2.34375l-1.25 3.5l2.46875 0l-1.1875 -3.5l-0.03125 0zm9.755554 -2.578125q1.546875 0 2.6875 0.90625q1.140625 0.890625 1.328125 2.453125l-2.0 0q-0.203125 -0.796875 -0.734375 -1.1875q-0.53125 -0.40625 -1.28125 -0.40625q-1.25 0 -1.921875 0.90625q-0.671875 0.890625 -0.671875 2.359375q0 1.390625 0.671875 2.296875q0.671875 0.890625 1.921875 0.890625q1.0 0 1.578125 -0.515625q0.59375 -0.515625 0.6875 -1.53125l-2.109375 0l0 -1.5625l4.0 0l0 5.140625l-1.328125 0l-0.21875 -1.078125q-0.515625 0.65625 -1.171875 0.984375q-0.640625 0.328125 -1.4375 0.328125q-1.375 0 -2.453125 -0.625q-1.0625 -0.640625 -1.65625 -1.78125q-0.578125 -1.140625 -0.578125 -2.546875q0 -2.203125 1.28125 -3.609375q1.296875 -1.421875 3.40625 -1.421875zm12.95697 0.234375l0 1.765625l-5.015625 0l0 2.03125l4.609375 0l0 1.625l-4.609375 0l0 2.34375l5.125 0l0 1.75l-7.21875 0l0 -9.515625l7.109375 0zm4.8078613 -0.234375q1.71875 0 2.75 0.8125q1.046875 0.796875 1.046875 2.265625l-2.015625 0q-0.046875 -0.71875 -0.5 -1.078125q-0.4375 -0.359375 -1.375 -0.359375q-0.640625 0 -1.046875 0.28125q-0.40625 0.265625 -0.40625 0.796875q0 0.359375 0.171875 0.53125q0.171875 0.171875 0.6875 0.375q0.53125 0.1875 2.296875 0.59375q1.1875 0.296875 1.84375 0.984375q0.671875 0.671875 0.671875 1.71875q0 1.390625 -1.046875 2.234375q-1.03125 0.828125 -2.90625 0.828125q-1.796875 0 -2.9375 -0.890625q-1.125 -0.890625 -1.125 -2.453125l0 -0.046875l2.03125 0q0 0.890625 0.578125 1.328125q0.578125 0.421875 1.515625 0.421875q0.859375 0 1.359375 -0.296875q0.5 -0.3125 0.5 -0.875q0 -0.46875 -0.390625 -0.765625q-0.375 -0.296875 -1.234375 -0.515625q-1.09375 -0.234375 -1.984375 -0.515625q-0.890625 -0.28125 -1.484375 -0.890625q-0.578125 -0.625 -0.578125 -1.59375q0 -1.28125 1.03125 -2.078125q1.03125 -0.8125 2.546875 -0.8125z" fill-rule="nonzero"/></g></svg>