<svg version="1.1" viewBox="0.0 0.0 928.0 456.0" fill="none" stroke="none" stroke-linecap="square" stroke-miterlimit="10" xmlns:xlink="http://www.w3.org/1999/xlink" xmlns="http://www.w3.org/2000/svg"><clipPath id="p.0"><path d="m0 0l928.0 0l0 456.0l-928.0 0l0 -456.0z" clip-rule="nonzero"/></clipPath><g clip-path="url(#p.0)"><path fill="#000000" fill-opacity="0.0" d="m0 0l928.0 0l0 456.0l-928.0 0z" fill-rule="evenodd"/><path fill="#000000" fill-opacity="0.0" d="m34.36941 38.81917l245.48032 0l0 378.36218l-245.48032 0z" fill-rule="evenodd"/><path stroke="#777777" stroke-width="4.0" stroke-linejoin="round" stroke-linecap="butt" d="m34.36941 38.81917l245.48032 0l0 378.36218l-245.48032 0z" fill-rule="evenodd"/><path fill="#ffa000" d="m124.81337 72.69777q2.765625 0 4.703125 1.5625q1.9375 1.546875 2.265625 4.265625l-3.4375 0q-0.234375 -1.28125 -1.265625 -2.0625q-1.015625 -0.78125 -2.265625 -0.78125q-2.09375 0 -3.25 1.53125q-1.15625 1.515625 -1.15625 4.03125q0 2.390625 1.140625 3.90625q1.15625 1.5 3.265625 1.5q1.546875 0 2.484375 -0.9375q0.953125 -0.953125 1.1875 -2.6875l3.453125 0q-0.3125 3.09375 -2.25 4.859375q-1.921875 1.765625 -4.875 1.765625q-2.328125 0 -4.15625 -1.0625q-1.8125 -1.078125 -2.8125 -3.015625q-0.984375 -1.953125 -0.984375 -4.328125q0 -3.734375 2.171875 -6.140625q2.1875 -2.40625 5.78125 -2.40625zm13.10556 0.390625l0 13.1875l7.890625 0l0 2.984375l-11.453125 0l0 -16.171875l3.5625 0zm13.430023 0l0 16.171875l-3.5625 0l0 -16.171875l3.5625 0zm15.213074 0l0 2.984375l-8.53125 0l0 3.46875l7.828125 0l0 2.765625l-7.828125 0l0 3.96875l8.71875 0l0 2.984375l-12.28125 0l0 -16.171875l12.09375 0zm6.1175995 0l6.75 10.84375l0.046875 0l0 -10.84375l3.328125 0l0 16.171875l-3.546875 0l-6.734375 -10.828125l-0.046875 0l0 10.828125l-3.328125 0l0 -16.171875l3.53125 0zm25.246185 0l0 2.984375l-4.859375 0l0 13.1875l-3.546875 0l0 -13.1875l-4.84375 0l0 -2.984375l13.25 0z" fill-rule="nonzero"/><path fill="#000000" fill-opacity="0.0" d="m648.15015 38.81917l245.48029 0l0 378.36218l-245.48029 0z" fill-rule="evenodd"/><path stroke="#777777" stroke-width="4.0" stroke-linejoin="round" stroke-linecap="butt" d="m648.15015 38.81917l245.48029 0l0 378.36218l-245.48029 0z" fill-rule="evenodd"/><path fill="#ffa000" d="m724.10614 72.69777q2.921875 0 4.6875 1.359375q1.78125 1.359375 1.78125 3.859375l-3.4375 0q-0.078125 -1.21875 -0.84375 -1.828125q-0.75 -0.625 -2.34375 -0.625q-1.078125 0 -1.765625 0.484375q-0.6875 0.46875 -0.6875 1.359375q0 0.609375 0.28125 0.90625q0.28125 0.296875 1.171875 0.625q0.890625 0.328125 3.890625 1.03125q2.015625 0.484375 3.140625 1.65625q1.140625 1.15625 1.140625 2.9375q0 2.34375 -1.765625 3.765625q-1.765625 1.421875 -4.953125 1.421875q-3.0625 0 -4.984375 -1.5q-1.921875 -1.515625 -1.921875 -4.171875l0 -0.078125l3.4375 0q0.03125 1.5 1.015625 2.25q0.984375 0.734375 2.578125 0.734375q1.4375 0 2.28125 -0.515625q0.859375 -0.53125 0.859375 -1.5q0 -0.78125 -0.65625 -1.28125q-0.65625 -0.515625 -2.109375 -0.875q-1.859375 -0.421875 -3.375 -0.890625q-1.515625 -0.46875 -2.5 -1.515625q-0.984375 -1.0625 -0.984375 -2.71875q0 -2.171875 1.734375 -3.53125q1.75 -1.359375 4.328125 -1.359375zm21.217896 0.390625l0 2.984375l-8.53125 0l0 3.46875l7.828125 0l0 2.765625l-7.828125 0l0 3.96875l8.71875 0l0 2.984375l-12.28125 0l0 -16.171875l12.09375 0zm11.398804 0q1.953125 0 3.296875 1.265625q1.34375 1.25 1.34375 3.203125q0 1.53125 -0.640625 2.53125q-0.625 1.0 -1.921875 1.515625l0 0.046875q1.140625 0.296875 1.75 1.359375q0.609375 1.0625 0.671875 3.25q0.03125 2.1875 0.625 3.0l-3.5625 0q-0.3125 -0.78125 -0.421875 -2.546875q-0.171875 -2.390625 -0.8125 -3.078125q-0.625 -0.6875 -1.9375 -0.6875l-3.640625 0l0 6.3125l-3.5625 0l0 -16.171875l8.8125 0zm-1.28125 7.3125q1.109375 0 1.734375 -0.53125q0.625 -0.546875 0.625 -1.78125q0 -1.15625 -0.609375 -1.6875q-0.59375 -0.546875 -1.75 -0.546875l-3.96875 0l0 4.546875l3.96875 0zm10.752258 -7.3125l3.609375 11.375l0.046875 0l3.640625 -11.375l3.671875 0l-5.375 16.171875l-4.0 0l-5.25 -16.171875l3.65625 0zm24.442688 0l0 2.984375l-8.53125 0l0 3.46875l7.828125 0l0 2.765625l-7.828125 0l0 3.96875l8.71875 0l0 2.984375l-12.28125 0l0 -16.171875l12.09375 0zm6.0863037 0l0 10.15625q0 1.75 0.796875 2.578125q0.796875 0.828125 2.53125 0.828125q1.859375 0 2.59375 -0.8125q0.75 -0.8125 0.75 -2.578125l0 -10.171875l3.546875 0l0 10.171875q0 3.0 -1.75 4.703125q-1.75 1.6875 -5.140625 1.6875q-3.421875 0 -5.15625 -1.65625q-1.734375 -1.671875 -1.734375 -4.734375l0 -10.171875l3.5625 0zm22.10559 0q1.953125 0 3.296875 1.265625q1.34375 1.25 1.34375 3.203125q0 1.53125 -0.640625 2.53125q-0.625 1.0 -1.921875 1.515625l0 0.046875q1.140625 0.296875 1.75 1.359375q0.609375 1.0625 0.671875 3.25q0.03125 2.1875 0.625 3.0l-3.5625 0q-0.3125 -0.78125 -0.421875 -2.546875q-0.171875 -2.390625 -0.8125 -3.078125q-0.625 -0.6875 -1.9375 -0.6875l-3.640625 0l0 6.3125l-3.5625 0l0 -16.171875l8.8125 0zm-1.28125 7.3125q1.109375 0 1.734375 -0.53125q0.625 -0.546875 0.625 -1.78125q0 -1.15625 -0.609375 -1.6875q-0.59375 -0.546875 -1.75 -0.546875l-3.96875 0l0 4.546875l3.96875 0z" fill-rule="nonzero"/><path fill="#000000" fill-opacity="0.0" d="m722.47797 163.6874l96.81891 0l0 59.2126l-96.81891 0z" fill-rule="evenodd"/><path stroke="#777777" stroke-width="2.0" stroke-linejoin="round" stroke-linecap="butt" d="m722.47797 163.6874l96.81891 0l0 59.2126l-96.81891 0z" fill-rule="evenodd"/><path fill="#ffa000" d="m758.0574 186.21243q2.234375 0 3.53125 1.265625q1.3125 1.25 1.3125 3.3125q0 2.0625 -1.3125 3.328125q-1.296875 1.25 -3.53125 1.25l-3.40625 0l0 5.125l-3.140625 0l0 -14.28125l6.546875 0zm-0.875 6.71875q1.359375 0 2.015625 -0.5q0.65625 -0.515625 0.65625 -1.640625q0 -1.09375 -0.640625 -1.609375q-0.625 -0.53125 -2.015625 -0.53125l-2.546875 0l0 4.28125l2.53125 0zm10.808594 -6.71875l0 5.484375l5.78125 0l0 -5.484375l3.140625 0l0 14.28125l-3.140625 0l0 -6.15625l-5.78125 0l0 6.15625l-3.140625 0l0 -14.28125l3.140625 0zm18.230469 0q2.234375 0 3.53125 1.265625q1.3125 1.25 1.3125 3.3125q0 2.0625 -1.3125 3.328125q-1.296875 1.25 -3.53125 1.25l-3.40625 0l0 5.125l-3.140625 0l0 -14.28125l6.546875 0zm-0.875 6.71875q1.359375 0 2.015625 -0.5q0.65625 -0.515625 0.65625 -1.640625q0 -1.09375 -0.640625 -1.609375q-0.625 -0.53125 -2.015625 -0.53125l-2.546875 0l0 4.28125l2.53125 0z" fill-rule="nonzero"/><path fill="#000000" fill-opacity="0.0" d="m722.47797 282.20398l0 0c0 6.68396 21.673645 12.102356 48.409485 12.102356c26.735779 0 48.409424 -5.418396 48.409424 -12.102356l0 78.6929c0 6.68396 -21.673645 12.102356 -48.409424 12.102356c-26.73584 0 -48.409485 -5.418396 -48.409485 -12.102356z" fill-rule="evenodd"/><path fill="#000000" fill-opacity="0.0" d="m722.47797 282.20398l0 0c0 -6.68396 21.673645 -12.102356 48.409485 -12.102356c26.735779 0 48.409424 5.418396 48.409424 12.102356l0 0c0 6.68396 -21.673645 12.102356 -48.409424 12.102356c-26.73584 0 -48.409485 -5.418396 -48.409485 -12.102356z" fill-rule="evenodd"/><path fill="#000000" fill-opacity="0.0" d="m819.2969 282.20398l0 0c0 6.68396 -21.673645 12.102356 -48.409424 12.102356c-26.73584 0 -48.409485 -5.418396 -48.409485 -12.102356l0 0c0 -6.68396 21.673645 -12.102356 48.409485 -12.102356c26.735779 0 48.409424 5.418396 48.409424 12.102356l0 78.6929c0 6.68396 -21.673645 12.102356 -48.409424 12.102356c-26.73584 0 -48.409485 -5.418396 -48.409485 -12.102356l0 -78.6929" fill-rule="evenodd"/><path fill="#ffffff" fill-opacity="0.4" d="m722.47797 282.20398l0 0c0 -6.68396 21.673645 -12.102356 48.409485 -12.102356c26.735779 0 48.409424 5.418396 48.409424 12.102356l0 0c0 6.68396 -21.673645 12.102356 -48.409424 12.102356c-26.73584 0 -48.409485 -5.418396 -48.409485 -12.102356z" fill-rule="evenodd"/><path stroke="#777777" stroke-width="2.0" stroke-linejoin="round" stroke-linecap="butt" d="m819.2969 282.20398l0 0c0 6.68396 -21.673645 12.102356 -48.409424 12.102356c-26.73584 0 -48.409485 -5.418396 -48.409485 -12.102356l0 0c0 -6.68396 21.673645 -12.102356 48.409485 -12.102356c26.735779 0 48.409424 5.418396 48.409424 12.102356l0 78.6929c0 6.68396 -21.673645 12.102356 -48.409424 12.102356c-26.73584 0 -48.409485 -5.418396 -48.409485 -12.102356l0 -78.6929" fill-rule="evenodd"/><path fill="#ffa000" d="m742.2263 320.52036l3.34375 9.8125l0.046875 0l3.140625 -9.765625l0.03125 -0.046875l4.40625 0l0 14.28125l-2.953125 0l0 -10.125l-0.03125 0l-3.5 10.125l-2.421875 0l-3.5 -10.015625l-0.046875 0l0 10.015625l-2.9375 0l0 -14.28125l4.421875 0zm15.269531 3.9375l2.34375 7.078125l0.03125 0l2.265625 -7.078125l2.9375 0l-4.390625 11.84375q-0.390625 1.03125 -1.203125 1.578125q-0.8125 0.5625 -2.109375 0.5625q-0.609375 0 -1.03125 -0.03125q-0.421875 -0.03125 -0.875 -0.078125l0 -2.328125q0.515625 0.0625 0.84375 0.078125q0.34375 0.015625 0.640625 0.015625q0.609375 0 0.9375 -0.375q0.328125 -0.359375 0.328125 -0.921875q0 -0.140625 -0.015625 -0.28125q-0.015625 -0.15625 -0.109375 -0.359375l-3.640625 -9.703125l3.046875 0zm13.755859 -4.28125q2.59375 0 4.15625 1.203125q1.5625 1.203125 1.5625 3.40625l-3.046875 0q-0.0625 -1.078125 -0.734375 -1.609375q-0.65625 -0.546875 -2.0625 -0.546875q-0.953125 0 -1.5625 0.421875q-0.609375 0.40625 -0.609375 1.1875q0 0.546875 0.25 0.8125q0.25 0.25 1.03125 0.546875q0.796875 0.28125 3.4375 0.90625q1.78125 0.4375 2.765625 1.46875q1.0 1.015625 1.0 2.59375q0 2.0625 -1.546875 3.328125q-1.546875 1.25 -4.375 1.25q-2.6875 0 -4.390625 -1.328125q-1.703125 -1.328125 -1.703125 -3.671875l0 -0.078125l3.03125 0q0.03125 1.328125 0.890625 1.984375q0.875 0.65625 2.28125 0.65625q1.265625 0 2.015625 -0.46875q0.765625 -0.46875 0.765625 -1.3125q0 -0.703125 -0.578125 -1.140625q-0.578125 -0.4375 -1.859375 -0.765625q-1.640625 -0.375 -2.984375 -0.78125q-1.328125 -0.421875 -2.203125 -1.34375q-0.875 -0.9375 -0.875 -2.390625q0 -1.9375 1.53125 -3.125q1.546875 -1.203125 3.8125 -1.203125zm14.462891 0q3.1875 0 5.109375 2.140625q1.921875 2.125 1.921875 5.40625q0 1.53125 -0.46875 2.875q-0.46875 1.328125 -1.40625 2.390625l1.78125 1.609375l-1.453125 1.546875l-2.03125 -1.84375q-0.6875 0.40625 -1.5625 0.625q-0.859375 0.21875 -1.890625 0.21875q-3.21875 0 -5.125 -2.140625q-1.890625 -2.15625 -1.890625 -5.28125q0 -3.296875 1.921875 -5.421875q1.9375 -2.125 5.09375 -2.125zm-3.890625 7.546875q0 2.09375 1.015625 3.46875q1.015625 1.375 3.234375 1.3125q0.34375 0 0.578125 -0.046875q0.234375 -0.0625 0.328125 -0.15625l-1.34375 -1.21875l1.453125 -1.5625l1.625 1.484375q0.453125 -0.609375 0.65625 -1.4375q0.21875 -0.84375 0.21875 -1.84375q0 -2.265625 -1.03125 -3.578125q-1.015625 -1.328125 -2.859375 -1.328125q-1.828125 0 -2.859375 1.34375q-1.015625 1.328125 -1.015625 3.5625zm16.18164 -7.203125l0 11.640625l6.96875 0l0 2.640625l-10.109375 0l0 -14.28125l3.140625 0z" fill-rule="nonzero"/><path fill="#000000" fill-opacity="0.0" d="m397.83905 152.3187l110.262024 0l22.052917 22.052933l0 129.31715l-132.31494 0z" fill-rule="evenodd"/><path stroke="#777777" stroke-width="2.0" stroke-linejoin="round" stroke-linecap="butt" d="m397.83905 152.3187l110.262024 0l22.052917 22.052933l0 129.31715l-132.31494 0z" fill-rule="evenodd"/><path fill="#ffa000" d="m418.29562 180.80135q1.140625 0 1.9375 0.75q0.796875 0.734375 0.796875 1.875q0 0.90625 -0.375 1.5q-0.375 0.578125 -1.140625 0.890625l0 0.015625q0.671875 0.1875 1.03125 0.8125q0.359375 0.625 0.390625 1.90625q0.015625 1.296875 0.375 1.765625l-2.109375 0q-0.171875 -0.46875 -0.234375 -1.5q-0.109375 -1.40625 -0.484375 -1.8125q-0.375 -0.40625 -1.140625 -0.40625l-2.140625 0l0 3.71875l-2.09375 0l0 -9.515625l5.1875 0zm-0.765625 4.296875q0.65625 0 1.015625 -0.3125q0.375 -0.3125 0.375 -1.046875q0 -0.671875 -0.359375 -0.984375q-0.34375 -0.328125 -1.03125 -0.328125l-2.328125 0l0 2.671875l2.328125 0zm12.312653 -4.296875l0 1.765625l-5.015625 0l0 2.03125l4.609375 0l0 1.625l-4.609375 0l0 2.34375l5.125 0l0 1.75l-7.21875 0l0 -9.515625l7.109375 0zm4.807831 -0.234375q1.71875 0 2.75 0.8125q1.046875 0.796875 1.046875 2.265625l-2.015625 0q-0.046875 -0.71875 -0.5 -1.078125q-0.4375 -0.359375 -1.375 -0.359375q-0.640625 0 -1.046875 0.28125q-0.40625 0.265625 -0.40625 0.796875q0 0.359375 0.171875 0.53125q0.171875 0.171875 0.6875 0.375q0.53125 0.1875 2.296875 0.59375q1.1875 0.296875 1.84375 0.984375q0.671875 0.671875 0.671875 1.71875q0 1.390625 -1.046875 2.234375q-1.03125 0.828125 -2.90625 0.828125q-1.796875 0 -2.9375 -0.890625q-1.125 -0.890625 -1.125 -2.453125l0 -0.046875l2.03125 0q0 0.890625 0.578125 1.328125q0.578125 0.421875 1.515625 0.421875q0.859375 0 1.359375 -0.296875q0.5 -0.3125 0.5 -0.875q0 -0.46875 -0.390625 -0.765625q-0.375 -0.296875 -1.234375 -0.515625q-1.09375 -0.234375 -1.984375 -0.515625q-0.890625 -0.28125 -1.484375 -0.890625q-0.578125 -0.625 -0.578125 -1.59375q0 -1.28125 1.03125 -2.078125q1.03125 -0.8125 2.546875 -0.8125zm8.648956 0q1.71875 0 2.75 0.8125q1.046875 0.796875 1.046875 2.265625l-2.015625 0q-0.046875 -0.71875 -0.5 -1.078125q-0.4375 -0.359375 -1.375 -0.359375q-0.640625 0 -1.046875 0.28125q-0.40625 0.265625 -0.40625 0.796875q0 0.359375 0.171875 0.53125q0.171875 0.171875 0.6875 0.375q0.53125 0.1875 2.296875 0.59375q1.1875 0.296875 1.84375 0.984375q0.671875 0.671875 0.671875 1.71875q0 1.390625 -1.046875 2.234375q-1.03125 0.828125 -2.90625 0.828125q-1.796875 0 -2.9375 -0.890625q-1.125 -0.890625 -1.125 -2.453125l0 -0.046875l2.03125 0q0 0.890625 0.578125 1.328125q0.578125 0.421875 1.515625 0.421875q0.859375 0 1.359375 -0.296875q0.5 -0.3125 0.5 -0.875q0 -0.46875 -0.390625 -0.765625q-0.375 -0.296875 -1.234375 -0.515625q-1.09375 -0.234375 -1.984375 -0.515625q-0.890625 -0.28125 -1.484375 -0.890625q-0.578125 -0.625 -0.578125 -1.59375q0 -1.28125 1.03125 -2.078125q1.03125 -0.8125 2.546875 -0.8125zm9.633362 0q2.125 0 3.390625 1.4375q1.28125 1.421875 1.28125 3.59375q0 2.125 -1.28125 3.546875q-1.28125 1.40625 -3.390625 1.40625q-1.375 0 -2.453125 -0.625q-1.0625 -0.640625 -1.65625 -1.78125q-0.578125 -1.140625 -0.578125 -2.546875q0 -2.203125 1.28125 -3.609375q1.296875 -1.421875 3.40625 -1.421875zm-2.59375 5.03125q0 1.40625 0.671875 2.296875q0.671875 0.890625 1.921875 0.890625q1.234375 0 1.90625 -0.875q0.671875 -0.875 0.671875 -2.3125q0 -1.5 -0.6875 -2.375q-0.6875 -0.890625 -1.90625 -0.890625q-1.21875 0 -1.90625 0.890625q-0.671875 0.890625 -0.671875 2.375zm10.742035 -4.796875l0 5.96875q0 1.03125 0.46875 1.53125q0.484375 0.484375 1.5 0.484375q1.09375 0 1.53125 -0.484375q0.4375 -0.484375 0.4375 -1.515625l0 -5.984375l2.09375 0l0 5.984375q0 1.765625 -1.03125 2.765625q-1.03125 1.0 -3.03125 1.0q-2.015625 0 -3.046875 -0.984375q-1.015625 -0.984375 -1.015625 -2.78125l0 -5.984375l2.09375 0zm13.019592 0q1.140625 0 1.9375 0.75q0.796875 0.734375 0.796875 1.875q0 0.90625 -0.375 1.5q-0.375 0.578125 -1.140625 0.890625l0 0.015625q0.671875 0.1875 1.03125 0.8125q0.359375 0.625 0.390625 1.90625q0.015625 1.296875 0.375 1.765625l-2.109375 0q-0.171875 -0.46875 -0.234375 -1.5q-0.109375 -1.40625 -0.484375 -1.8125q-0.375 -0.40625 -1.140625 -0.40625l-2.140625 0l0 3.71875l-2.09375 0l0 -9.515625l5.1875 0zm-0.765625 4.296875q0.65625 0 1.015625 -0.3125q0.375 -0.3125 0.375 -1.046875q0 -0.671875 -0.359375 -0.984375q-0.34375 -0.328125 -1.03125 -0.328125l-2.328125 0l0 2.671875l2.328125 0zm9.468903 -4.53125q1.625 0 2.765625 0.921875q1.140625 0.921875 1.328125 2.515625l-2.015625 0q-0.140625 -0.75 -0.75 -1.203125q-0.59375 -0.46875 -1.328125 -0.46875q-1.234375 0 -1.921875 0.890625q-0.671875 0.890625 -0.671875 2.375q0 1.40625 0.671875 2.296875q0.671875 0.890625 1.921875 0.890625q0.90625 0 1.453125 -0.5625q0.5625 -0.5625 0.703125 -1.5625l2.03125 0q-0.1875 1.8125 -1.328125 2.859375q-1.125 1.03125 -2.859375 1.03125q-1.375 0 -2.453125 -0.625q-1.0625 -0.640625 -1.65625 -1.78125q-0.578125 -1.140625 -0.578125 -2.546875q0 -2.1875 1.28125 -3.609375q1.296875 -1.421875 3.40625 -1.421875zm12.722687 0.234375l0 1.765625l-5.015625 0l0 2.03125l4.609375 0l0 1.625l-4.609375 0l0 2.34375l5.125 0l0 1.75l-7.21875 0l0 -9.515625l7.109375 0zm4.807831 -0.234375q1.71875 0 2.75 0.8125q1.046875 0.796875 1.046875 2.265625l-2.015625 0q-0.046875 -0.71875 -0.5 -1.078125q-0.4375 -0.359375 -1.375 -0.359375q-0.640625 0 -1.046875 0.28125q-0.40625 0.265625 -0.40625 0.796875q0 0.359375 0.171875 0.53125q0.171875 0.171875 0.6875 0.375q0.53125 0.1875 2.296875 0.59375q1.1875 0.296875 1.84375 0.984375q0.671875 0.671875 0.671875 1.71875q0 1.390625 -1.046875 2.234375q-1.03125 0.828125 -2.90625 0.828125q-1.796875 0 -2.9375 -0.890625q-1.125 -0.890625 -1.125 -2.453125l0 -0.046875l2.03125 0q0 0.890625 0.578125 1.328125q0.578125 0.421875 1.515625 0.421875q0.859375 0 1.359375 -0.296875q0.5 -0.3125 0.5 -0.875q0 -0.46875 -0.390625 -0.765625q-0.375 -0.296875 -1.234375 -0.515625q-1.09375 -0.234375 -1.984375 -0.515625q-0.890625 -0.28125 -1.484375 -0.890625q-0.578125 -0.625 -0.578125 -1.59375q0 -1.28125 1.03125 -2.078125q1.03125 -0.8125 2.546875 -0.8125z" fill-rule="nonzero"/><path fill="#ffa000" d="m423.07294 196.56697q1.71875 0 2.75 0.8125q1.046875 0.796875 1.046875 2.265625l-2.015625 0q-0.046875 -0.71875 -0.5 -1.078125q-0.4375 -0.359375 -1.375 -0.359375q-0.640625 0 -1.046875 0.28125q-0.40625 0.265625 -0.40625 0.796875q0 0.359375 0.171875 0.53125q0.171875 0.171875 0.6875 0.375q0.53125 0.1875 2.296875 0.59375q1.1875 0.296875 1.84375 0.984375q0.671875 0.671875 0.671875 1.71875q0 1.390625 -1.046875 2.234375q-1.03125 0.828125 -2.90625 0.828125q-1.796875 0 -2.9375 -0.890625q-1.125 -0.890625 -1.125 -2.453125l0 -0.046875l2.03125 0q0 0.890625 0.578125 1.328125q0.578125 0.421875 1.515625 0.421875q0.859375 0 1.359375 -0.296875q0.5 -0.3125 0.5 -0.875q0 -0.46875 -0.390625 -0.765625q-0.375 -0.296875 -1.234375 -0.515625q-1.09375 -0.234375 -1.984375 -0.515625q-0.890625 -0.28125 -1.484375 -0.890625q-0.578125 -0.625 -0.578125 -1.59375q0 -1.28125 1.03125 -2.078125q1.03125 -0.8125 2.546875 -0.8125zm12.414612 0.234375l0 1.765625l-2.859375 0l0 7.75l-2.078125 0l0 -7.75l-2.859375 0l0 -1.765625l7.796875 0zm5.8288574 0l3.5625 9.515625l-2.171875 0l-0.71875 -2.125l-3.5625 0l-0.734375 2.125l-2.125 0l3.609375 -9.515625l2.140625 0zm-1.09375 2.34375l-1.25 3.5l2.46875 0l-1.1875 -3.5l-0.03125 0zm12.536804 -2.34375l0 1.765625l-2.859375 0l0 7.75l-2.078125 0l0 -7.75l-2.859375 0l0 -1.765625l7.796875 0zm3.1882324 0l0 9.515625l-2.09375 0l0 -9.515625l2.09375 0zm6.1026306 -0.234375q2.125 0 3.390625 1.421875q1.28125 1.421875 1.28125 3.609375q0 1.015625 -0.3125 1.90625q-0.3125 0.890625 -0.921875 1.609375l1.1875 1.078125l-0.96875 1.015625l-1.359375 -1.21875q-0.453125 0.265625 -1.03125 0.40625q-0.578125 0.15625 -1.265625 0.15625q-2.140625 0 -3.421875 -1.421875q-1.265625 -1.4375 -1.265625 -3.53125q0 -2.203125 1.28125 -3.609375q1.296875 -1.421875 3.40625 -1.421875zm-2.59375 5.03125q0 1.390625 0.671875 2.3125q0.671875 0.921875 2.15625 0.875q0.234375 0 0.390625 -0.03125q0.15625 -0.03125 0.21875 -0.109375l-0.90625 -0.8125l0.984375 -1.03125l1.078125 0.984375q0.296875 -0.40625 0.4375 -0.953125q0.140625 -0.5625 0.140625 -1.234375q0 -1.515625 -0.6875 -2.390625q-0.671875 -0.875 -1.90625 -0.875q-1.21875 0 -1.90625 0.890625q-0.671875 0.890625 -0.671875 2.375zm10.742065 -4.796875l0 5.96875q0 1.03125 0.46875 1.53125q0.484375 0.484375 1.5 0.484375q1.09375 0 1.53125 -0.484375q0.4375 -0.484375 0.4375 -1.515625l0 -5.984375l2.09375 0l0 5.984375q0 1.765625 -1.03125 2.765625q-1.03125 1.0 -3.03125 1.0q-2.015625 0 -3.046875 -0.984375q-1.015625 -0.984375 -1.015625 -2.78125l0 -5.984375l2.09375 0zm14.941437 0l0 1.765625l-5.015625 0l0 2.03125l4.609375 0l0 1.625l-4.609375 0l0 2.34375l5.125 0l0 1.75l-7.21875 0l0 -9.515625l7.109375 0zm4.807831 -0.234375q1.71875 0 2.75 0.8125q1.046875 0.796875 1.046875 2.265625l-2.015625 0q-0.046875 -0.71875 -0.5 -1.078125q-0.4375 -0.359375 -1.375 -0.359375q-0.640625 0 -1.046875 0.28125q-0.40625 0.265625 -0.40625 0.796875q0 0.359375 0.171875 0.53125q0.171875 0.171875 0.6875 0.375q0.53125 0.1875 2.296875 0.59375q1.1875 0.296875 1.84375 0.984375q0.671875 0.671875 0.671875 1.71875q0 1.390625 -1.046875 2.234375q-1.03125 0.828125 -2.90625 0.828125q-1.796875 0 -2.9375 -0.890625q-1.125 -0.890625 -1.125 -2.453125l0 -0.046875l2.03125 0q0 0.890625 0.578125 1.328125q0.578125 0.421875 1.515625 0.421875q0.859375 0 1.359375 -0.296875q0.5 -0.3125 0.5 -0.875q0 -0.46875 -0.390625 -0.765625q-0.375 -0.296875 -1.234375 -0.515625q-1.09375 -0.234375 -1.984375 -0.515625q-0.890625 -0.28125 -1.484375 -0.890625q-0.578125 -0.625 -0.578125 -1.59375q0 -1.28125 1.03125 -2.078125q1.03125 -0.8125 2.546875 -0.8125zm7.352112 2.984375l0 2.046875l-2.09375 0l0 -2.046875l2.09375 0zm0 4.71875l0 2.046875l-2.09375 0l0 -2.046875l2.09375 0z" fill-rule="nonzero"/><path fill="#777777" d="m442.49265 228.80135l0 3.65625l3.84375 0l0 -3.65625l2.09375 0l0 9.515625l-2.09375 0l0 -4.109375l-3.84375 0l0 4.109375l-2.09375 0l0 -9.515625l2.09375 0zm14.832092 0l0 1.765625l-2.859375 0l0 7.75l-2.078125 0l0 -7.75l-2.859375 0l0 -1.765625l7.796875 0zm4.0319824 0l2.234375 6.546875l0.03125 0l2.09375 -6.515625l0.015625 -0.03125l2.9375 0l0 9.515625l-1.96875 0l0 -6.734375l-0.015625 0l-2.328125 6.734375l-1.625 0l-2.328125 -6.671875l-0.03125 0l0 6.671875l-1.953125 0l0 -9.515625l2.9375 0zm11.247894 0l0 7.765625l4.640625 0l0 1.75l-6.734375 0l0 -9.515625l2.09375 0z" fill-rule="nonzero"/><path fill="#777777" d="m450.08234 244.56697q1.625 0 2.765625 0.921875q1.140625 0.921875 1.328125 2.515625l-2.015625 0q-0.140625 -0.75 -0.75 -1.203125q-0.59375 -0.46875 -1.328125 -0.46875q-1.234375 0 -1.921875 0.890625q-0.671875 0.890625 -0.671875 2.375q0 1.40625 0.671875 2.296875q0.671875 0.890625 1.921875 0.890625q0.90625 0 1.453125 -0.5625q0.5625 -0.5625 0.703125 -1.5625l2.03125 0q-0.1875 1.8125 -1.328125 2.859375q-1.125 1.03125 -2.859375 1.03125q-1.375 0 -2.453125 -0.625q-1.0625 -0.640625 -1.65625 -1.78125q-0.578125 -1.140625 -0.578125 -2.546875q0 -2.1875 1.28125 -3.609375q1.296875 -1.421875 3.40625 -1.421875zm8.894562 0q1.71875 0 2.75 0.8125q1.0469055 0.796875 1.0469055 2.265625l-2.0156555 0q-0.046875 -0.71875 -0.5 -1.078125q-0.4375 -0.359375 -1.375 -0.359375q-0.640625 0 -1.046875 0.28125q-0.40625 0.265625 -0.40625 0.796875q0 0.359375 0.171875 0.53125q0.171875 0.171875 0.6875 0.375q0.53125 0.1875 2.296875 0.59375q1.1875 0.296875 1.8437805 0.984375q0.671875 0.671875 0.671875 1.71875q0 1.390625 -1.046875 2.234375q-1.0312805 0.828125 -2.9062805 0.828125q-1.796875 0 -2.9375 -0.890625q-1.125 -0.890625 -1.125 -2.453125l0 -0.046875l2.03125 0q0 0.890625 0.578125 1.328125q0.578125 0.421875 1.515625 0.421875q0.859375 0 1.359375 -0.296875q0.5 -0.3125 0.5 -0.875q0 -0.46875 -0.390625 -0.765625q-0.375 -0.296875 -1.234375 -0.515625q-1.09375 -0.234375 -1.984375 -0.515625q-0.890625 -0.28125 -1.484375 -0.890625q-0.578125 -0.625 -0.578125 -1.59375q0 -1.28125 1.03125 -2.078125q1.03125 -0.8125 2.546875 -0.8125zm8.648987 0q1.71875 0 2.75 0.8125q1.046875 0.796875 1.046875 2.265625l-2.015625 0q-0.046875 -0.71875 -0.5 -1.078125q-0.4375 -0.359375 -1.375 -0.359375q-0.640625 0 -1.046875 0.28125q-0.40625 0.265625 -0.40625 0.796875q0 0.359375 0.171875 0.53125q0.171875 0.171875 0.6875 0.375q0.53125 0.1875 2.296875 0.59375q1.1875 0.296875 1.84375 0.984375q0.671875 0.671875 0.671875 1.71875q0 1.390625 -1.046875 2.234375q-1.03125 0.828125 -2.90625 0.828125q-1.796875 0 -2.9375 -0.890625q-1.125 -0.890625 -1.125 -2.453125l0 -0.046875l2.03125 0q0 0.890625 0.578125 1.328125q0.578125 0.421875 1.515625 0.421875q0.859375 0 1.359375 -0.296875q0.5 -0.3125 0.5 -0.875q0 -0.46875 -0.390625 -0.765625q-0.375 -0.296875 -1.234375 -0.515625q-1.09375 -0.234375 -1.984375 -0.515625q-0.890625 -0.28125 -1.484375 -0.890625q-0.578125 -0.625 -0.578125 -1.59375q0 -1.28125 1.03125 -2.078125q1.03125 -0.8125 2.546875 -0.8125z" fill-rule="nonzero"/><path fill="#777777" d="m456.93692 260.80133l0 6.578125q0 1.53125 -0.796875 2.359375q-0.796875 0.8125 -2.359375 0.8125q-1.390625 0 -2.265625 -0.78125q-0.875 -0.796875 -0.875 -2.125l0 -0.875l1.890625 0l0 0.359375q0 0.953125 0.296875 1.3125q0.3125 0.34375 0.921875 0.34375q0.546875 0 0.828125 -0.296875q0.28125 -0.296875 0.28125 -1.1875l0 -6.5l2.078125 0zm5.131256 -0.234375q1.71875 0 2.75 0.8125q1.046875 0.796875 1.046875 2.265625l-2.015625 0q-0.046875 -0.71875 -0.5 -1.078125q-0.4375 -0.359375 -1.375 -0.359375q-0.6406555 0 -1.0469055 0.28125q-0.40625 0.265625 -0.40625 0.796875q0 0.359375 0.171875 0.53125q0.171875 0.171875 0.6875 0.375q0.5312805 0.1875 2.2969055 0.59375q1.1875 0.296875 1.84375 0.984375q0.671875 0.671875 0.671875 1.71875q0 1.390625 -1.046875 2.234375q-1.03125 0.828125 -2.90625 0.828125q-1.7969055 0 -2.9375305 -0.890625q-1.125 -0.890625 -1.125 -2.453125l0 -0.046875l2.03125 0q0 0.890625 0.578125 1.328125q0.578125 0.421875 1.5156555 0.421875q0.859375 0 1.359375 -0.296875q0.5 -0.3125 0.5 -0.875q0 -0.46875 -0.390625 -0.765625q-0.375 -0.296875 -1.234375 -0.515625q-1.0937805 -0.234375 -1.9844055 -0.515625q-0.890625 -0.28125 -1.484375 -0.890625q-0.578125 -0.625 -0.578125 -1.59375q0 -1.28125 1.03125 -2.078125q1.03125 -0.8125 2.5469055 -0.8125z" fill-rule="nonzero"/><path fill="#777777" d="m435.22336 276.80133l0 9.515625l-2.09375 0l0 -9.515625l2.09375 0zm4.7745056 0l2.234375 6.546875l0.03125 0l2.09375 -6.515625l0.015625 -0.03125l2.9375 0l0 9.515625l-1.96875 0l0 -6.734375l-0.015625 0l-2.328125 6.734375l-1.625 0l-2.328125 -6.671875l-0.03125 0l0 6.671875l-1.953125 0l0 -9.515625l2.9375 0zm13.888489 0l3.5625 9.515625l-2.171875 0l-0.71875 -2.125l-3.5625 0l-0.734375 2.125l-2.125 0l3.609375 -9.515625l2.140625 0zm-1.09375 2.34375l-1.25 3.5l2.46875 0l-1.1875 -3.5l-0.03125 0zm9.755585 -2.578125q1.546875 0 2.6875 0.90625q1.140625 0.890625 1.328125 2.453125l-2.0 0q-0.203125 -0.796875 -0.734375 -1.1875q-0.53125 -0.40625 -1.28125 -0.40625q-1.2500305 0 -1.9219055 0.90625q-0.671875 0.890625 -0.671875 2.359375q0 1.390625 0.671875 2.296875q0.671875 0.890625 1.9219055 0.890625q1.0 0 1.578125 -0.515625q0.59375 -0.515625 0.6875 -1.53125l-2.109375 0l0 -1.5625l4.0 0l0 5.140625l-1.328125 0l-0.21875 -1.078125q-0.515625 0.65625 -1.171875 0.984375q-0.640625 0.328125 -1.4375 0.328125q-1.3750305 0 -2.4531555 -0.625q-1.0625 -0.640625 -1.65625 -1.78125q-0.578125 -1.140625 -0.578125 -2.546875q0 -2.203125 1.28125 -3.609375q1.296875 -1.421875 3.4062805 -1.421875zm12.95697 0.234375l0 1.765625l-5.015625 0l0 2.03125l4.609375 0l0 1.625l-4.609375 0l0 2.34375l5.125 0l0 1.75l-7.21875 0l0 -9.515625l7.109375 0zm4.807831 -0.234375q1.71875 0 2.75 0.8125q1.046875 0.796875 1.046875 2.265625l-2.015625 0q-0.046875 -0.71875 -0.5 -1.078125q-0.4375 -0.359375 -1.375 -0.359375q-0.640625 0 -1.046875 0.28125q-0.40625 0.265625 -0.40625 0.796875q0 0.359375 0.171875 0.53125q0.171875 0.171875 0.6875 0.375q0.53125 0.1875 2.296875 0.59375q1.1875 0.296875 1.84375 0.984375q0.671875 0.671875 0.671875 1.71875q0 1.390625 -1.046875 2.234375q-1.03125 0.828125 -2.90625 0.828125q-1.796875 0 -2.9375 -0.890625q-1.125 -0.890625 -1.125 -2.453125l0 -0.046875l2.03125 0q0 0.890625 0.578125 1.328125q0.578125 0.421875 1.515625 0.421875q0.859375 0 1.359375 -0.296875q0.5 -0.3125 0.5 -0.875q0 -0.46875 -0.390625 -0.765625q-0.375 -0.296875 -1.234375 -0.515625q-1.09375 -0.234375 -1.984375 -0.515625q-0.890625 -0.28125 -1.484375 -0.890625q-0.578125 -0.625 -0.578125 -1.59375q0 -1.28125 1.03125 -2.078125q1.03125 -0.8125 2.546875 -0.8125z" fill-rule="nonzero"/><path fill="#000000" fill-opacity="0.0" d="m90.94868 148.48912l110.26203 0l22.052933 22.052933l0 129.31714l-132.31497 0z" fill-rule="evenodd"/><path stroke="#777777" stroke-width="2.0" stroke-linejoin="round" stroke-linecap="butt" d="m90.94868 148.48912l110.26203 0l22.052933 22.052933l0 129.31714l-132.31497 0z" fill-rule="evenodd"/><path fill="#ffa000" d="m111.40525 168.97177q1.140625 0 1.9375 0.75q0.796875 0.734375 0.796875 1.875q0 0.90625 -0.375 1.5q-0.375 0.578125 -1.140625 0.890625l0 0.015625q0.671875 0.1875 1.03125 0.8125q0.359375 0.625 0.390625 1.90625q0.015625 1.296875 0.375 1.765625l-2.109375 0q-0.171875 -0.46875 -0.234375 -1.5q-0.109375 -1.40625 -0.484375 -1.8125q-0.375 -0.40625 -1.140625 -0.40625l-2.140625 0l0 3.71875l-2.09375 0l0 -9.515625l5.1875 0zm-0.765625 4.296875q0.65625 0 1.015625 -0.3125q0.375 -0.3125 0.375 -1.046875q0 -0.671875 -0.359375 -0.984375q-0.34375 -0.328125 -1.03125 -0.328125l-2.328125 0l0 2.671875l2.328125 0zm12.312653 -4.296875l0 1.765625l-5.015625 0l0 2.03125l4.609375 0l0 1.625l-4.609375 0l0 2.34375l5.125 0l0 1.75l-7.21875 0l0 -9.515625l7.109375 0zm4.807831 -0.234375q1.7187576 0 2.7500076 0.8125q1.046875 0.796875 1.046875 2.265625l-2.015625 0q-0.046875 -0.71875 -0.5 -1.078125q-0.4375 -0.359375 -1.3750076 -0.359375q-0.640625 0 -1.046875 0.28125q-0.40625 0.265625 -0.40625 0.796875q0 0.359375 0.171875 0.53125q0.171875 0.171875 0.6875 0.375q0.53125 0.1875 2.2968826 0.59375q1.1875 0.296875 1.84375 0.984375q0.671875 0.671875 0.671875 1.71875q0 1.390625 -1.046875 2.234375q-1.03125 0.828125 -2.9062576 0.828125q-1.796875 0 -2.9375 -0.890625q-1.125 -0.890625 -1.125 -2.453125l0 -0.046875l2.03125 0q0 0.890625 0.578125 1.328125q0.578125 0.421875 1.515625 0.421875q0.8593826 0 1.3593826 -0.296875q0.5 -0.3125 0.5 -0.875q0 -0.46875 -0.390625 -0.765625q-0.375 -0.296875 -1.234375 -0.515625q-1.0937576 -0.234375 -1.9843826 -0.515625q-0.890625 -0.28125 -1.484375 -0.890625q-0.578125 -0.625 -0.578125 -1.59375q0 -1.28125 1.03125 -2.078125q1.03125 -0.8125 2.546875 -0.8125zm8.648979 0q1.71875 0 2.75 0.8125q1.046875 0.796875 1.046875 2.265625l-2.015625 0q-0.046875 -0.71875 -0.5 -1.078125q-0.4375 -0.359375 -1.375 -0.359375q-0.640625 0 -1.046875 0.28125q-0.40625 0.265625 -0.40625 0.796875q0 0.359375 0.171875 0.53125q0.171875 0.171875 0.6875 0.375q0.53125 0.1875 2.296875 0.59375q1.1875 0.296875 1.84375 0.984375q0.671875 0.671875 0.671875 1.71875q0 1.390625 -1.046875 2.234375q-1.03125 0.828125 -2.90625 0.828125q-1.796875 0 -2.9375 -0.890625q-1.125 -0.890625 -1.125 -2.453125l0 -0.046875l2.03125 0q0 0.890625 0.578125 1.328125q0.578125 0.421875 1.515625 0.421875q0.859375 0 1.359375 -0.296875q0.5 -0.3125 0.5 -0.875q0 -0.46875 -0.390625 -0.765625q-0.375 -0.296875 -1.234375 -0.515625q-1.09375 -0.234375 -1.984375 -0.515625q-0.890625 -0.28125 -1.484375 -0.890625q-0.578125 -0.625 -0.578125 -1.59375q0 -1.28125 1.03125 -2.078125q1.03125 -0.8125 2.546875 -0.8125zm9.633347 0q2.125 0 3.390625 1.4375q1.28125 1.421875 1.28125 3.59375q0 2.125 -1.28125 3.546875q-1.28125 1.40625 -3.390625 1.40625q-1.375 0 -2.453125 -0.625q-1.0625 -0.640625 -1.65625 -1.78125q-0.578125 -1.140625 -0.578125 -2.546875q0 -2.203125 1.28125 -3.609375q1.296875 -1.421875 3.40625 -1.421875zm-2.59375 5.03125q0 1.40625 0.671875 2.296875q0.671875 0.890625 1.921875 0.890625q1.234375 0 1.90625 -0.875q0.671875 -0.875 0.671875 -2.3125q0 -1.5 -0.6875 -2.375q-0.6875 -0.890625 -1.90625 -0.890625q-1.21875 0 -1.90625 0.890625q-0.671875 0.890625 -0.671875 2.375zm10.74205 -4.796875l0 5.96875q0 1.03125 0.46875 1.53125q0.48435974 0.484375 1.4999847 0.484375q1.09375 0 1.53125 -0.484375q0.4375 -0.484375 0.4375 -1.515625l0 -5.984375l2.09375 0l0 5.984375q0 1.765625 -1.03125 2.765625q-1.03125 1.0 -3.03125 1.0q-2.0156097 0 -3.0468597 -0.984375q-1.015625 -0.984375 -1.015625 -2.78125l0 -5.984375l2.09375 0zm13.019562 0q1.140625 0 1.9375 0.75q0.796875 0.734375 0.796875 1.875q0 0.90625 -0.375 1.5q-0.375 0.578125 -1.140625 0.890625l0 0.015625q0.671875 0.1875 1.03125 0.8125q0.359375 0.625 0.390625 1.90625q0.015625 1.296875 0.375 1.765625l-2.109375 0q-0.171875 -0.46875 -0.234375 -1.5q-0.109375 -1.40625 -0.484375 -1.8125q-0.375 -0.40625 -1.140625 -0.40625l-2.140625 0l0 3.71875l-2.09375 0l0 -9.515625l5.1875 0zm-0.765625 4.296875q0.65625 0 1.015625 -0.3125q0.375 -0.3125 0.375 -1.046875q0 -0.671875 -0.359375 -0.984375q-0.34375 -0.328125 -1.03125 -0.328125l-2.328125 0l0 2.671875l2.328125 0zm9.468903 -4.53125q1.625 0 2.765625 0.921875q1.140625 0.921875 1.328125 2.515625l-2.015625 0q-0.140625 -0.75 -0.75 -1.203125q-0.59375 -0.46875 -1.328125 -0.46875q-1.234375 0 -1.921875 0.890625q-0.671875 0.890625 -0.671875 2.375q0 1.40625 0.671875 2.296875q0.671875 0.890625 1.921875 0.890625q0.90625 0 1.453125 -0.5625q0.5625 -0.5625 0.703125 -1.5625l2.03125 0q-0.1875 1.8125 -1.328125 2.859375q-1.125 1.03125 -2.859375 1.03125q-1.375 0 -2.453125 -0.625q-1.0625 -0.640625 -1.65625 -1.78125q-0.578125 -1.140625 -0.578125 -2.546875q0 -2.1875 1.28125 -3.609375q1.296875 -1.421875 3.40625 -1.421875zm12.722702 0.234375l0 1.765625l-5.015625 0l0 2.03125l4.609375 0l0 1.625l-4.609375 0l0 2.34375l5.125 0l0 1.75l-7.21875 0l0 -9.515625l7.109375 0zm4.807831 -0.234375q1.71875 0 2.75 0.8125q1.046875 0.796875 1.046875 2.265625l-2.015625 0q-0.046875 -0.71875 -0.5 -1.078125q-0.4375 -0.359375 -1.375 -0.359375q-0.640625 0 -1.046875 0.28125q-0.40625 0.265625 -0.40625 0.796875q0 0.359375 0.171875 0.53125q0.171875 0.171875 0.6875 0.375q0.53125 0.1875 2.296875 0.59375q1.1875 0.296875 1.84375 0.984375q0.671875 0.671875 0.671875 1.71875q0 1.390625 -1.046875 2.234375q-1.03125 0.828125 -2.90625 0.828125q-1.796875 0 -2.9375 -0.890625q-1.125 -0.890625 -1.125 -2.453125l0 -0.046875l2.03125 0q0 0.890625 0.578125 1.328125q0.578125 0.421875 1.515625 0.421875q0.859375 0 1.359375 -0.296875q0.5 -0.3125 0.5 -0.875q0 -0.46875 -0.390625 -0.765625q-0.375 -0.296875 -1.234375 -0.515625q-1.09375 -0.234375 -1.984375 -0.515625q-0.890625 -0.28125 -1.484375 -0.890625q-0.578125 -0.625 -0.578125 -1.59375q0 -1.28125 1.03125 -2.078125q1.03125 -0.8125 2.546875 -0.8125z" fill-rule="nonzero"/><path fill="#ffa000" d="m116.18259 184.7374q1.71875 0 2.75 0.8125q1.046875 0.796875 1.046875 2.265625l-2.015625 0q-0.046875 -0.71875 -0.5 -1.078125q-0.4375 -0.359375 -1.375 -0.359375q-0.640625 0 -1.046875 0.28125q-0.40625 0.265625 -0.40625 0.796875q0 0.359375 0.171875 0.53125q0.171875 0.171875 0.6875 0.375q0.53125 0.1875 2.296875 0.59375q1.1875 0.296875 1.84375 0.984375q0.671875 0.671875 0.671875 1.71875q0 1.390625 -1.046875 2.234375q-1.03125 0.828125 -2.90625 0.828125q-1.796875 0 -2.9375 -0.890625q-1.125 -0.890625 -1.125 -2.453125l0 -0.046875l2.03125 0q0 0.890625 0.578125 1.328125q0.578125 0.421875 1.515625 0.421875q0.859375 0 1.359375 -0.296875q0.5 -0.3125 0.5 -0.875q0 -0.46875 -0.390625 -0.765625q-0.375 -0.296875 -1.234375 -0.515625q-1.09375 -0.234375 -1.984375 -0.515625q-0.890625 -0.28125 -1.484375 -0.890625q-0.578125 -0.625 -0.578125 -1.59375q0 -1.28125 1.03125 -2.078125q1.03125 -0.8125 2.546875 -0.8125zm12.414597 0.234375l0 1.765625l-2.859375 0l0 7.75l-2.078125 0l0 -7.75l-2.859375 0l0 -1.765625l7.796875 0zm5.8288574 0l3.5625 9.515625l-2.171875 0l-0.71875 -2.125l-3.5625 0l-0.734375 2.125l-2.125 0l3.609375 -9.515625l2.140625 0zm-1.09375 2.34375l-1.25 3.5l2.46875 0l-1.1875 -3.5l-0.03125 0zm12.536804 -2.34375l0 1.765625l-2.859375 0l0 7.75l-2.078125 0l0 -7.75l-2.859375 0l0 -1.765625l7.796875 0zm3.1882324 0l0 9.515625l-2.09375 0l0 -9.515625l2.09375 0zm6.1026306 -0.234375q2.125 0 3.390625 1.421875q1.28125 1.421875 1.28125 3.609375q0 1.015625 -0.3125 1.90625q-0.3125 0.890625 -0.921875 1.609375l1.1875 1.078125l-0.96875 1.015625l-1.359375 -1.21875q-0.453125 0.265625 -1.03125 0.40625q-0.578125 0.15625 -1.265625 0.15625q-2.140625 0 -3.421875 -1.421875q-1.265625 -1.4375 -1.265625 -3.53125q0 -2.203125 1.28125 -3.609375q1.296875 -1.421875 3.40625 -1.421875zm-2.59375 5.03125q0 1.390625 0.671875 2.3125q0.671875 0.921875 2.15625 0.875q0.234375 0 0.390625 -0.03125q0.15625 -0.03125 0.21875 -0.109375l-0.90625 -0.8125l0.984375 -1.03125l1.078125 0.984375q0.296875 -0.40625 0.4375 -0.953125q0.140625 -0.5625 0.140625 -1.234375q0 -1.515625 -0.6875 -2.390625q-0.671875 -0.875 -1.90625 -0.875q-1.21875 0 -1.90625 0.890625q-0.671875 0.890625 -0.671875 2.375zm10.74205 -4.796875l0 5.96875q0 1.03125 0.46875 1.53125q0.484375 0.484375 1.5 0.484375q1.09375 0 1.53125 -0.484375q0.4375 -0.484375 0.4375 -1.515625l0 -5.984375l2.09375 0l0 5.984375q0 1.765625 -1.03125 2.765625q-1.03125 1.0 -3.03125 1.0q-2.015625 0 -3.046875 -0.984375q-1.015625 -0.984375 -1.015625 -2.78125l0 -5.984375l2.09375 0zm14.941452 0l0 1.765625l-5.015625 0l0 2.03125l4.609375 0l0 1.625l-4.609375 0l0 2.34375l5.125 0l0 1.75l-7.21875 0l0 -9.515625l7.109375 0zm4.807831 -0.234375q1.71875 0 2.75 0.8125q1.046875 0.796875 1.046875 2.265625l-2.015625 0q-0.046875 -0.71875 -0.5 -1.078125q-0.4375 -0.359375 -1.375 -0.359375q-0.640625 0 -1.046875 0.28125q-0.40625 0.265625 -0.40625 0.796875q0 0.359375 0.171875 0.53125q0.171875 0.171875 0.6875 0.375q0.53125 0.1875 2.296875 0.59375q1.1875 0.296875 1.84375 0.984375q0.671875 0.671875 0.671875 1.71875q0 1.390625 -1.046875 2.234375q-1.03125 0.828125 -2.90625 0.828125q-1.796875 0 -2.9375 -0.890625q-1.125 -0.890625 -1.125 -2.453125l0 -0.046875l2.03125 0q0 0.890625 0.578125 1.328125q0.578125 0.421875 1.515625 0.421875q0.859375 0 1.359375 -0.296875q0.5 -0.3125 0.5 -0.875q0 -0.46875 -0.390625 -0.765625q-0.375 -0.296875 -1.234375 -0.515625q-1.09375 -0.234375 -1.984375 -0.515625q-0.890625 -0.28125 -1.484375 -0.890625q-0.578125 -0.625 -0.578125 -1.59375q0 -1.28125 1.03125 -2.078125q1.03125 -0.8125 2.546875 -0.8125zm7.3520966 2.984375l0 2.046875l-2.09375 0l0 -2.046875l2.09375 0zm0 4.71875l0 2.046875l-2.09375 0l0 -2.046875l2.09375 0z" fill-rule="nonzero"/><path fill="#777777" d="m135.6023 216.97177l0 3.65625l3.84375 0l0 -3.65625l2.09375 0l0 9.515625l-2.09375 0l0 -4.109375l-3.84375 0l0 4.109375l-2.09375 0l0 -9.515625l2.09375 0zm14.832077 0l0 1.765625l-2.859375 0l0 7.75l-2.078125 0l0 -7.75l-2.859375 0l0 -1.765625l7.796875 0zm4.0319824 0l2.234375 6.546875l0.03125 0l2.09375 -6.515625l0.015625 -0.03125l2.9375 0l0 9.515625l-1.96875 0l0 -6.734375l-0.015625 0l-2.328125 6.734375l-1.625 0l-2.328125 -6.671875l-0.03125 0l0 6.671875l-1.953125 0l0 -9.515625l2.9375 0zm11.247879 0l0 7.765625l4.640625 0l0 1.75l-6.734375 0l0 -9.515625l2.09375 0z" fill-rule="nonzero"/><path fill="#777777" d="m143.19197 232.7374q1.625 0 2.765625 0.921875q1.140625 0.921875 1.328125 2.515625l-2.015625 0q-0.140625 -0.75 -0.75 -1.203125q-0.59375 -0.46875 -1.328125 -0.46875q-1.234375 0 -1.921875 0.890625q-0.671875 0.890625 -0.671875 2.375q0 1.40625 0.671875 2.296875q0.671875 0.890625 1.921875 0.890625q0.90625 0 1.453125 -0.5625q0.5625 -0.5625 0.703125 -1.5625l2.03125 0q-0.1875 1.8125 -1.328125 2.859375q-1.125 1.03125 -2.859375 1.03125q-1.375 0 -2.453125 -0.625q-1.0625 -0.640625 -1.65625 -1.78125q-0.578125 -1.140625 -0.578125 -2.546875q0 -2.1875 1.28125 -3.609375q1.296875 -1.421875 3.40625 -1.421875zm8.894577 0q1.71875 0 2.75 0.8125q1.046875 0.796875 1.046875 2.265625l-2.015625 0q-0.046875 -0.71875 -0.5 -1.078125q-0.4375 -0.359375 -1.375 -0.359375q-0.640625 0 -1.046875 0.28125q-0.40625 0.265625 -0.40625 0.796875q0 0.359375 0.171875 0.53125q0.171875 0.171875 0.6875 0.375q0.53125 0.1875 2.296875 0.59375q1.1875 0.296875 1.84375 0.984375q0.671875 0.671875 0.671875 1.71875q0 1.390625 -1.046875 2.234375q-1.03125 0.828125 -2.90625 0.828125q-1.796875 0 -2.9375 -0.890625q-1.125 -0.890625 -1.125 -2.453125l0 -0.046875l2.03125 0q0 0.890625 0.578125 1.328125q0.578125 0.421875 1.515625 0.421875q0.859375 0 1.359375 -0.296875q0.5 -0.3125 0.5 -0.875q0 -0.46875 -0.390625 -0.765625q-0.375 -0.296875 -1.234375 -0.515625q-1.09375 -0.234375 -1.984375 -0.515625q-0.890625 -0.28125 -1.484375 -0.890625q-0.578125 -0.625 -0.578125 -1.59375q0 -1.28125 1.03125 -2.078125q1.03125 -0.8125 2.546875 -0.8125zm8.648972 0q1.71875 0 2.75 0.8125q1.046875 0.796875 1.046875 2.265625l-2.015625 0q-0.046875 -0.71875 -0.5 -1.078125q-0.4375 -0.359375 -1.375 -0.359375q-0.640625 0 -1.046875 0.28125q-0.40625 0.265625 -0.40625 0.796875q0 0.359375 0.171875 0.53125q0.171875 0.171875 0.6875 0.375q0.53125 0.1875 2.296875 0.59375q1.1875 0.296875 1.84375 0.984375q0.671875 0.671875 0.671875 1.71875q0 1.390625 -1.046875 2.234375q-1.03125 0.828125 -2.90625 0.828125q-1.796875 0 -2.9375 -0.890625q-1.125 -0.890625 -1.125 -2.453125l0 -0.046875l2.03125 0q0 0.890625 0.578125 1.328125q0.578125 0.421875 1.515625 0.421875q0.859375 0 1.359375 -0.296875q0.5 -0.3125 0.5 -0.875q0 -0.46875 -0.390625 -0.765625q-0.375 -0.296875 -1.234375 -0.515625q-1.09375 -0.234375 -1.984375 -0.515625q-0.890625 -0.28125 -1.484375 -0.890625q-0.578125 -0.625 -0.578125 -1.59375q0 -1.28125 1.03125 -2.078125q1.03125 -0.8125 2.546875 -0.8125z" fill-rule="nonzero"/><path fill="#777777" d="m150.04657 248.97177l0 6.578125q0 1.53125 -0.796875 2.359375q-0.796875 0.8125 -2.359375 0.8125q-1.390625 0 -2.265625 -0.78125q-0.875 -0.796875 -0.875 -2.125l0 -0.875l1.890625 0l0 0.359375q0 0.953125 0.296875 1.3125q0.3125 0.34375 0.921875 0.34375q0.546875 0 0.828125 -0.296875q0.28125 -0.296875 0.28125 -1.1875l0 -6.5l2.078125 0zm5.1312256 -0.234375q1.71875 0 2.75 0.8125q1.046875 0.796875 1.046875 2.265625l-2.015625 0q-0.046875 -0.71875 -0.5 -1.078125q-0.4375 -0.359375 -1.375 -0.359375q-0.640625 0 -1.046875 0.28125q-0.40625 0.265625 -0.40625 0.796875q0 0.359375 0.171875 0.53125q0.171875 0.171875 0.6875 0.375q0.53125 0.1875 2.296875 0.59375q1.1875 0.296875 1.84375 0.984375q0.671875 0.671875 0.671875 1.71875q0 1.390625 -1.046875 2.234375q-1.03125 0.828125 -2.90625 0.828125q-1.796875 0 -2.9375 -0.890625q-1.125 -0.890625 -1.125 -2.453125l0 -0.046875l2.03125 0q0 0.890625 0.578125 1.328125q0.578125 0.421875 1.515625 0.421875q0.859375 0 1.359375 -0.296875q0.5 -0.3125 0.5 -0.875q0 -0.46875 -0.390625 -0.765625q-0.375 -0.296875 -1.234375 -0.515625q-1.09375 -0.234375 -1.984375 -0.515625q-0.890625 -0.28125 -1.484375 -0.890625q-0.578125 -0.625 -0.578125 -1.59375q0 -1.28125 1.03125 -2.078125q1.03125 -0.8125 2.546875 -0.8125z" fill-rule="nonzero"/><path fill="#777777" d="m128.333 264.97177l0 9.515625l-2.09375 0l0 -9.515625l2.09375 0zm4.7745056 0l2.234375 6.546875l0.03125 0l2.09375 -6.515625l0.015625 -0.03125l2.9375 0l0 9.515625l-1.96875 0l0 -6.734375l-0.015625 0l-2.328125 6.734375l-1.625 0l-2.328125 -6.671875l-0.03125 0l0 6.671875l-1.953125 0l0 -9.515625l2.9375 0zm13.888504 0l3.5625 9.515625l-2.171875 0l-0.71875 -2.125l-3.5625 0l-0.734375 2.125l-2.125 0l3.609375 -9.515625l2.140625 0zm-1.09375 2.34375l-1.25 3.5l2.46875 0l-1.1875 -3.5l-0.03125 0zm9.755554 -2.578125q1.546875 0 2.6875 0.90625q1.140625 0.890625 1.328125 2.453125l-2.0 0q-0.203125 -0.796875 -0.734375 -1.1875q-0.53125 -0.40625 -1.28125 -0.40625q-1.25 0 -1.921875 0.90625q-0.671875 0.890625 -0.671875 2.359375q0 1.390625 0.671875 2.296875q0.671875 0.890625 1.921875 0.890625q1.0 0 1.578125 -0.515625q0.59375 -0.515625 0.6875 -1.53125l-2.109375 0l0 -1.5625l4.0 0l0 5.140625l-1.328125 0l-0.21875 -1.078125q-0.515625 0.65625 -1.171875 0.984375q-0.640625 0.328125 -1.4375 0.328125q-1.375 0 -2.453125 -0.625q-1.0625 -0.640625 -1.65625 -1.78125q-0.578125 -1.140625 -0.578125 -2.546875q0 -2.203125 1.28125 -3.609375q1.296875 -1.421875 3.40625 -1.421875zm12.956985 0.234375l0 1.765625l-5.015625 0l0 2.03125l4.609375 0l0 1.625l-4.609375 0l0 2.34375l5.125 0l0 1.75l-7.21875 0l0 -9.515625l7.109375 0zm4.807831 -0.234375q1.71875 0 2.75 0.8125q1.046875 0.796875 1.046875 2.265625l-2.015625 0q-0.046875 -0.71875 -0.5 -1.078125q-0.4375 -0.359375 -1.375 -0.359375q-0.640625 0 -1.046875 0.28125q-0.40625 0.265625 -0.40625 0.796875q0 0.359375 0.171875 0.53125q0.171875 0.171875 0.6875 0.375q0.53125 0.1875 2.296875 0.59375q1.1875 0.296875 1.84375 0.984375q0.671875 0.671875 0.671875 1.71875q0 1.390625 -1.046875 2.234375q-1.03125 0.828125 -2.90625 0.828125q-1.796875 0 -2.9375 -0.890625q-1.125 -0.890625 -1.125 -2.453125l0 -0.046875l2.03125 0q0 0.890625 0.578125 1.328125q0.578125 0.421875 1.515625 0.421875q0.859375 0 1.359375 -0.296875q0.5 -0.3125 0.5 -0.875q0 -0.46875 -0.390625 -0.765625q-0.375 -0.296875 -1.234375 -0.515625q-1.09375 -0.234375 -1.984375 -0.515625q-0.890625 -0.28125 -1.484375 -0.890625q-0.578125 -0.625 -0.578125 -1.59375q0 -1.28125 1.03125 -2.078125q1.03125 -0.8125 2.546875 -0.8125z" fill-rule="nonzero"/><path fill="#000000" fill-opacity="0.0" d="m770.88745 222.9l0 47.212585" fill-rule="evenodd"/><path stroke="#777777" stroke-width="2.0" stroke-linejoin="round" stroke-linecap="butt" d="m770.88745 234.9l0 23.212585" fill-rule="evenodd"/><path fill="#777777" stroke="#777777" stroke-width="2.0" stroke-linecap="butt" d="m774.1909 234.9l-3.3034668 -9.076187l-3.3034668 9.076187z" fill-rule="evenodd"/><path fill="#777777" stroke="#777777" stroke-width="2.0" stroke-linecap="butt" d="m767.584 258.1126l3.3034668 9.076172l3.3034668 -9.076172z" fill-rule="evenodd"/><path fill="#000000" fill-opacity="0.0" d="m397.83905 228.00374l-117.98425 0" fill-rule="evenodd"/><path stroke="#777777" stroke-width="2.0" stroke-linejoin="round" stroke-linecap="butt" d="m397.83902 228.00374l-105.98425 0" fill-rule="evenodd"/><path fill="#777777" stroke="#777777" stroke-width="2.0" stroke-linecap="butt" d="m291.85477 224.70027l-9.076172 3.3034668l9.076172 3.3034515z" fill-rule="evenodd"/><path fill="#000000" fill-opacity="0.0" d="m648.15015 228.00027l-117.98425 0" fill-rule="evenodd"/><path stroke="#777777" stroke-width="2.0" stroke-linejoin="round" stroke-linecap="butt" d="m648.15015 228.00027l-117.98425 0" fill-rule="evenodd"/><path fill="#000000" fill-opacity="0.0" d="m223.26364 224.17416c14.376892 0 31.246323 26.537216 28.753784 51.45938c-2.4925232 24.92218 -24.347015 48.22931 -47.447754 51.45941c-23.100754 3.230072 -47.44777 -13.616882 -47.44777 -27.233765" fill-rule="evenodd"/><path stroke="#777777" stroke-width="2.0" stroke-linejoin="round" stroke-linecap="butt" d="m234.32234 228.83302l0.18344116 0.15028381c0.11100769 0.0922699 0.22184753 0.18574524 0.3324585 0.28034973c0.22122192 0.18927002 0.4416504 0.38313293 0.6611786 0.58158875c0.4390869 0.3968811 0.87457275 0.8119507 1.3058472 1.244339c0.86253357 0.86479187 1.7081299 1.7988739 2.531433 2.7953644c1.6466217 1.9930115 3.2041473 4.2357025 4.629883 6.6730804c5.702896 9.749588 9.297119 22.614426 8.050842 35.075516c-2.4925385 24.92218 -24.347 48.22931 -47.447754 51.45941c-23.100754 3.230072 -47.44777 -13.616882 -47.44777 -27.233765" fill-rule="evenodd"/><path fill="#777777" stroke="#777777" stroke-width="2.0" stroke-linecap="butt" d="m235.60487 225.78868l-9.646774 -0.47940063l7.081711 6.5680695z" fill-rule="evenodd"/><path fill="#000000" fill-opacity="0.0" d="m819.2969 193.29369c8.875183 0 19.79425 -13.392303 17.750305 -26.583054c-2.0439453 -13.19075 -17.050903 -26.179947 -33.079895 -26.583054c-16.02893 -0.40309143 -33.079834 11.779907 -33.079834 23.559814" fill-rule="evenodd"/><path stroke="#777777" stroke-width="2.0" stroke-linejoin="round" stroke-linecap="butt" d="m819.29694 193.2937c8.875061 0 19.79419 -13.392303 17.750244 -26.583054c-2.0440063 -13.19075 -17.050964 -26.179962 -33.079895 -26.583069c-8.014526 -0.20153809 -16.284485 2.7434387 -22.550781 7.211273c-1.5665894 1.1169739 -3.0079346 2.3291168 -4.2888184 3.6110687c-0.32019043 0.32048035 -0.63031006 0.64533997 -0.92993164 0.9741516c-0.14978027 0.16441345 -0.29693604 0.32981873 -0.4413452 0.4961548l-0.18707275 0.2181549" fill-rule="evenodd"/><path fill="#777777" stroke="#777777" stroke-width="2.0" stroke-linecap="butt" d="m772.5276 151.34953l-0.49938965 9.645752l6.5827637 -7.068054z" fill-rule="evenodd"/><path fill="#000000" fill-opacity="0.0" d="m552.2449 239.51184l73.82678 0l0 36.91339l-73.82678 0z" fill-rule="evenodd"/><path fill="#777777" d="m569.6067 253.1231l-0.84375 4.0156097l4.234375 0l0.84375 -4.0156097l2.3125 0l-2.203125 10.468735l-2.328125 0l0.953125 -4.515625l-4.21875 0l-0.96875 4.515625l-2.3125 0l2.21875 -10.468735l2.3125 0zm16.332092 0l-0.40625 1.9375l-3.140625 0l-1.796875 8.531235l-2.3125 0l1.796875 -8.531235l-3.28125 0l0.40625 -1.9375l8.734375 0zm8.952637 0l-0.40625 1.9375l-3.140625 0l-1.796875 8.531235l-2.3125 0l1.796875 -8.531235l-3.28125 0l0.40625 -1.9375l8.734375 0zm5.4057617 0q1.71875 0 2.640625 0.75q0.921875 0.75 0.921875 2.3124847q0 1.09375 -0.5625 1.9375q-0.546875 0.84375 -1.5 1.28125q-0.953125 0.4375 -1.953125 0.4375l-2.90625 0l-0.796875 3.75l-2.296875 0l2.1875 -10.468735l4.265625 0zm-2.328125 1.796875l-0.65625 3.1406097l2.40625 0q0.84375 0 1.34375 -0.46875q0.5 -0.46875 0.5 -1.359375q0 -0.65623474 -0.421875 -0.98435974q-0.421875 -0.328125 -1.15625 -0.328125l-2.015625 0zm11.088074 -2.046875q1.84375 0 2.875 0.875q1.03125 0.875 1.03125 2.4999847l-2.171875 0l0 -0.109375q0 -0.73435974 -0.484375 -1.0937347q-0.484375 -0.375 -1.390625 -0.375q-0.828125 0 -1.328125 0.34375q-0.5 0.328125 -0.5 0.953125q0 0.48435974 0.515625 0.82810974q0.515625 0.34375 1.5625 0.5625q1.75 0.375 2.46875 1.0625q0.734375 0.671875 0.734375 1.953125q0 1.625 -1.21875 2.546875q-1.203125 0.921875 -3.046875 0.921875q-2.1875 0 -3.265625 -0.921875q-1.078125 -0.9375 -1.078125 -2.796875l2.171875 0l0 0.109375q0 0.9375 0.5625 1.390625q0.578125 0.4375 1.703125 0.4375q0.84375 0 1.40625 -0.40625q0.578125 -0.40625 0.578125 -1.078125q0 -0.484375 -0.421875 -0.8125q-0.421875 -0.328125 -1.640625 -0.65625q-1.90625 -0.484375 -2.5625 -1.1875q-0.65625 -0.71875 -0.65625 -1.78125q0 -1.5312347 1.15625 -2.3906097q1.171875 -0.875 3.0 -0.875z" fill-rule="nonzero"/><path fill="#000000" fill-opacity="0.0" d="m145.66084 328.6227l118.07872 0l0 36.91339l-118.07872 0z" fill-rule="evenodd"/><path fill="#777777" d="m162.48079 342.23395l-2.21875 10.46875l-2.3125 0l2.21875 -10.46875l2.3125 0zm4.3992615 0l2.84375 7.453125l0.03125 0l1.484375 -7.453125l2.109375 0l-2.203125 10.46875l-2.3125 0l-2.859375 -7.34375l-0.03125 0l-1.5 7.34375l-2.15625 0l2.21875 -10.46875l2.375 0zm16.269623 0l-0.40625 1.9375l-3.140625 0l-1.796875 8.53125l-2.3125 0l1.796875 -8.53125l-3.28125 0l0.40625 -1.9375l8.734375 0zm9.140121 0l-0.390625 1.9375l-5.6875 0l-0.46875 2.234375l5.265625 0l-0.390625 1.796875l-5.265625 0l-0.53125 2.5625l5.78125 0l-0.421875 1.9375l-8.078125 0l2.203125 -10.46875l7.984375 0zm7.0099792 0q1.359375 0 2.125 0.6875q0.78125 0.671875 0.78125 2.046875q0 1.046875 -0.671875 1.859375q-0.65625 0.796875 -1.734375 0.96875l0 0.03125q0.515625 0.15625 0.796875 0.59375q0.28125 0.4375 0.28125 1.25q0 0.265625 -0.03125 0.84375q-0.046875 0.578125 -0.046875 0.96875q0 0.390625 0.03125 0.71875q0.046875 0.3125 0.125 0.5l-2.25 0q-0.046875 -0.21875 -0.078125 -0.375q-0.015625 -0.15625 -0.015625 -0.34375q0 -0.390625 0.0625 -1.046875q0.046875 -0.671875 0.046875 -1.046875q0 -0.6875 -0.359375 -0.984375q-0.359375 -0.296875 -1.09375 -0.296875l-2.21875 0l-0.875 4.09375l-2.296875 0l2.203125 -10.46875l5.21875 0zm-3.28125 1.796875l-0.625 2.9375l2.1875 0q0.953125 0 1.625 -0.421875q0.6875 -0.4375 0.6875 -1.234375q0 -0.640625 -0.375 -0.953125q-0.359375 -0.328125 -1.25 -0.328125l-2.25 0zm12.896774 -1.796875q1.71875 0 2.640625 0.75q0.921875 0.75 0.921875 2.3125q0 1.09375 -0.5625 1.9375q-0.546875 0.84375 -1.5 1.28125q-0.953125 0.4375 -1.953125 0.4375l-2.90625 0l-0.796875 3.75l-2.296875 0l2.1875 -10.46875l4.265625 0zm-2.328125 1.796875l-0.65625 3.140625l2.40625 0q0.84375 0 1.34375 -0.46875q0.5 -0.46875 0.5 -1.359375q0 -0.65625 -0.421875 -0.984375q-0.421875 -0.328125 -1.15625 -0.328125l-2.015625 0zm13.072479 -1.796875q1.359375 0 2.125 0.6875q0.78125 0.671875 0.78125 2.046875q0 1.046875 -0.671875 1.859375q-0.65625 0.796875 -1.734375 0.96875l0 0.03125q0.515625 0.15625 0.796875 0.59375q0.28125 0.4375 0.28125 1.25q0 0.265625 -0.03125 0.84375q-0.046875 0.578125 -0.046875 0.96875q0 0.390625 0.03125 0.71875q0.046875 0.3125 0.125 0.5l-2.25 0q-0.046875 -0.21875 -0.078125 -0.375q-0.015625 -0.15625 -0.015625 -0.34375q0 -0.390625 0.0625 -1.046875q0.046875 -0.671875 0.046875 -1.046875q0 -0.6875 -0.359375 -0.984375q-0.359375 -0.296875 -1.09375 -0.296875l-2.21875 0l-0.875 4.09375l-2.296875 0l2.203125 -10.46875l5.21875 0zm-3.28125 1.796875l-0.625 2.9375l2.1875 0q0.953125 0 1.625 -0.421875q0.6875 -0.4375 0.6875 -1.234375q0 -0.640625 -0.375 -0.953125q-0.359375 -0.328125 -1.25 -0.328125l-2.25 0zm16.63115 -1.796875l-0.390625 1.9375l-5.6875 0l-0.46875 2.234375l5.265625 0l-0.390625 1.796875l-5.265625 0l-0.53125 2.5625l5.78125 0l-0.421875 1.9375l-8.078125 0l2.203125 -10.46875l7.984375 0zm-4.390625 -3.03125l1.140625 2.078125l-1.46875 0l-1.90625 -2.078125l2.234375 0zm13.978729 3.03125l-0.40625 1.9375l-3.140625 0l-1.796875 8.53125l-2.3125 0l1.796875 -8.53125l-3.28125 0l0.40625 -1.9375l8.734375 0zm9.140121 0l-0.390625 1.9375l-5.6875 0l-0.46875 2.234375l5.265625 0l-0.390625 1.796875l-5.265625 0l-0.53125 2.5625l5.78125 0l-0.421875 1.9375l-8.078125 0l2.203125 -10.46875l7.984375 0z" fill-rule="nonzero"/><path fill="#000000" fill-opacity="0.0" d="m722.47797 193.29369l-74.33069 34.708664" fill-rule="evenodd"/><path stroke="#777777" stroke-width="2.0" stroke-linejoin="round" stroke-linecap="butt" d="m722.478 193.2937l-63.457703 29.631516" fill-rule="evenodd"/><path fill="#777777" stroke="#777777" stroke-width="2.0" stroke-linecap="butt" d="m657.6226 219.93199l-6.826111 6.833313l9.62146 -0.84687805z" fill-rule="evenodd"/><path fill="#000000" fill-opacity="0.0" d="m636.89746 163.53044l96.81891 0l0 36.913376l-96.81891 0z" fill-rule="evenodd"/><path fill="#777777" d="m666.1913 177.14168q1.359375 0 2.125 0.6875q0.78125 0.671875 0.78125 2.046875q0 1.046875 -0.671875 1.859375q-0.65625 0.796875 -1.734375 0.96875l0 0.03125q0.515625 0.15625 0.796875 0.59375q0.28125 0.4375 0.28125 1.25q0 0.265625 -0.03125 0.84375q-0.046875 0.578125 -0.046875 0.96875q0 0.390625 0.03125 0.71875q0.046875 0.3125 0.125 0.5l-2.25 0q-0.046875 -0.21875 -0.078125 -0.375q-0.015625 -0.15625 -0.015625 -0.34375q0 -0.390625 0.0625 -1.046875q0.046875 -0.671875 0.046875 -1.046875q0 -0.6875 -0.359375 -0.984375q-0.359375 -0.296875 -1.09375 -0.296875l-2.21875 0l-0.875 4.09375l-2.296875 0l2.203125 -10.46875l5.21875 0zm-3.28125 1.796875l-0.625 2.9375l2.1875 0q0.953125 0 1.625 -0.421875q0.6875 -0.4375 0.6875 -1.234375q0 -0.640625 -0.375 -0.953125q-0.359375 -0.328125 -1.25 -0.328125l-2.25 0zm16.631165 -1.796875l-0.390625 1.9375l-5.6875 0l-0.46875 2.234375l5.265625 0l-0.390625 1.796875l-5.265625 0l-0.53125 2.5625l5.78125 0l-0.421875 1.9375l-8.078125 0l2.203125 -10.46875l7.984375 0zm4.1818237 0l2.84375 7.453125l0.03125 0l1.484375 -7.453125l2.109375 0l-2.203125 10.46875l-2.3125 0l-2.859375 -7.34375l-0.03125 0l-1.5 7.34375l-2.15625 0l2.21875 -10.46875l2.375 0zm12.347778 0q2.03125 0 3.1875 1.046875q1.171875 1.046875 1.171875 3.03125q0 1.984375 -0.765625 3.453125q-0.75 1.453125 -2.125 2.203125q-1.359375 0.734375 -3.078125 0.734375l-4.46875 0l2.21875 -10.46875l3.859375 0zm-1.953125 1.9375l-1.40625 6.59375l1.828125 0q0.953125 0 1.78125 -0.46875q0.828125 -0.46875 1.3125 -1.421875q0.5 -0.953125 0.5 -2.171875q0 -1.28125 -0.609375 -1.90625q-0.59375 -0.625 -1.625 -0.625l-1.78125 0zm11.144592 -1.9375l-1.1875 5.671875q-0.0625 0.265625 -0.1875 0.84375q-0.109375 0.578125 -0.109375 0.859375q0 0.546875 0.484375 0.984375q0.484375 0.421875 1.484375 0.421875q1.15625 0 1.6875 -0.515625q0.546875 -0.515625 0.78125 -1.65625l1.390625 -6.5625l0 -0.046875l2.3125 0l-1.234375 5.84375q-0.4375 2.109375 -1.0625 3.0625q-0.625 0.9375 -1.59375 1.375q-0.96875 0.4375 -2.421875 0.4375q-1.875 0 -3.0 -0.8125q-1.125 -0.8125 -1.125 -2.296875q0 -0.328125 0.046875 -0.640625q0.046875 -0.328125 0.171875 -0.90625l1.265625 -6.0625l2.296875 0z" fill-rule="nonzero"/><path fill="#000000" fill-opacity="0.0" d="m745.4508 103.1666l118.078735 0l0 36.913383l-118.078735 0z" fill-rule="evenodd"/><path fill="#777777" d="m762.27075 116.777855l-2.21875 10.46875l-2.3125 0l2.21875 -10.46875l2.3125 0zm4.399292 0l2.84375 7.453125l0.03125 0l1.484375 -7.453125l2.109375 0l-2.203125 10.46875l-2.3125 0l-2.859375 -7.34375l-0.03125 0l-1.5 7.34375l-2.15625 0l2.21875 -10.46875l2.375 0zm16.269592 0l-0.40625 1.9375l-3.140625 0l-1.796875 8.53125l-2.3125 0l1.796875 -8.53125l-3.28125 0l0.40625 -1.9375l8.734375 0zm9.140137 0l-0.390625 1.9375l-5.6875 0l-0.46875 2.234375l5.265625 0l-0.390625 1.796875l-5.265625 0l-0.53125 2.5625l5.78125 0l-0.421875 1.9375l-8.078125 0l2.203125 -10.46875l7.984375 0zm7.01001 0q1.359375 0 2.125 0.6875q0.78125 0.671875 0.78125 2.046875q0 1.046875 -0.671875 1.859375q-0.65625 0.796875 -1.734375 0.96875l0 0.03125q0.515625 0.15625 0.796875 0.59375q0.28125 0.4375 0.28125 1.25q0 0.265625 -0.03125 0.84375q-0.046875 0.578125 -0.046875 0.96875q0 0.390625 0.03125 0.71875q0.046875 0.3125 0.125 0.5l-2.25 0q-0.046875 -0.21875 -0.078125 -0.375q-0.015625 -0.15625 -0.015625 -0.34375q0 -0.390625 0.0625 -1.046875q0.046875 -0.671875 0.046875 -1.046875q0 -0.6875 -0.359375 -0.984375q-0.359375 -0.296875 -1.09375 -0.296875l-2.21875 0l-0.875 4.09375l-2.296875 0l2.203125 -10.46875l5.21875 0zm-3.28125 1.796875l-0.625 2.9375l2.1875 0q0.953125 0 1.625 -0.421875q0.6875 -0.4375 0.6875 -1.234375q0 -0.640625 -0.375 -0.953125q-0.359375 -0.328125 -1.25 -0.328125l-2.25 0zm12.8967285 -1.796875q1.71875 0 2.640625 0.75q0.921875 0.75 0.921875 2.3125q0 1.09375 -0.5625 1.9375q-0.546875 0.84375 -1.5 1.28125q-0.953125 0.4375 -1.953125 0.4375l-2.90625 0l-0.796875 3.75l-2.296875 0l2.1875 -10.46875l4.265625 0zm-2.328125 1.796875l-0.65625 3.140625l2.40625 0q0.84375 0 1.34375 -0.46875q0.5 -0.46875 0.5 -1.359375q0 -0.65625 -0.421875 -0.984375q-0.421875 -0.328125 -1.15625 -0.328125l-2.015625 0zm13.07251 -1.796875q1.359375 0 2.125 0.6875q0.78125 0.671875 0.78125 2.046875q0 1.046875 -0.671875 1.859375q-0.65625 0.796875 -1.734375 0.96875l0 0.03125q0.515625 0.15625 0.796875 0.59375q0.28125 0.4375 0.28125 1.25q0 0.265625 -0.03125 0.84375q-0.046875 0.578125 -0.046875 0.96875q0 0.390625 0.03125 0.71875q0.046875 0.3125 0.125 0.5l-2.25 0q-0.046875 -0.21875 -0.078125 -0.375q-0.015625 -0.15625 -0.015625 -0.34375q0 -0.390625 0.0625 -1.046875q0.046875 -0.671875 0.046875 -1.046875q0 -0.6875 -0.359375 -0.984375q-0.359375 -0.296875 -1.09375 -0.296875l-2.21875 0l-0.875 4.09375l-2.296875 0l2.203125 -10.46875l5.21875 0zm-3.28125 1.796875l-0.625 2.9375l2.1875 0q0.953125 0 1.625 -0.421875q0.6875 -0.4375 0.6875 -1.234375q0 -0.640625 -0.375 -0.953125q-0.359375 -0.328125 -1.25 -0.328125l-2.25 0zm16.631165 -1.796875l-0.390625 1.9375l-5.6875 0l-0.46875 2.234375l5.265625 0l-0.390625 1.796875l-5.265625 0l-0.53125 2.5625l5.78125 0l-0.421875 1.9375l-8.078125 0l2.203125 -10.46875l7.984375 0zm-4.390625 -3.03125l1.140625 2.078125l-1.46875 0l-1.90625 -2.078125l2.234375 0zm13.978699 3.03125l-0.40625 1.9375l-3.140625 0l-1.796875 8.53125l-2.3125 0l1.796875 -8.53125l-3.28125 0l0.40625 -1.9375l8.734375 0zm9.140137 0l-0.390625 1.9375l-5.6875 0l-0.46875 2.234375l5.265625 0l-0.390625 1.796875l-5.265625 0l-0.53125 2.5625l5.78125 0l-0.421875 1.9375l-8.078125 0l2.203125 -10.46875l7.984375 0z" fill-rule="nonzero"/><path fill="#000000" fill-opacity="0.0" d="m278.2799 239.51184l123.93701 0l0 36.91339l-123.93701 0z" fill-rule="evenodd"/><path fill="#777777" d="m300.10202 253.1231l-0.40625 1.9375l-3.140625 0l-1.796875 8.531235l-2.3125 0l1.796875 -8.531235l-3.28125 0l0.40625 -1.9375l8.734375 0zm9.140137 0l-0.390625 1.9375l-5.6875 0l-0.46875 2.2343597l5.265625 0l-0.390625 1.796875l-5.265625 0l-0.53125 2.5625l5.78125 0l-0.421875 1.9375l-8.078125 0l2.203125 -10.468735l7.984375 0zm-1.640625 -3.03125l-2.0625 2.078125l-1.46875 0l1.296875 -2.078125l2.234375 0zm5.7443542 3.03125l-1.78125 8.531235l5.046875 0l-0.40625 1.9375l-7.375 0l2.203125 -10.468735l2.3125 0zm14.087769 0l-0.390625 1.9375l-5.6875 0l-0.46875 2.2343597l5.265625 0l-0.390625 1.796875l-5.265625 0l-0.53125 2.5625l5.78125 0l-0.421875 1.9375l-8.078125 0l2.203125 -10.468735l7.984375 0zm-1.640625 -3.03125l-2.0625 2.078125l-1.46875 0l1.296875 -2.078125l2.234375 0zm7.5412292 2.78125q1.90625 0 3.046875 1.015625q1.15625 1.0 1.15625 2.7343597l0 0.140625l-2.296875 0q-0.015625 -0.96873474 -0.53125 -1.4531097q-0.515625 -0.5 -1.34375 -0.5q-1.5625 0 -2.5 1.3124847q-0.9375 1.3125 -0.9375 3.078125q0 1.21875 0.609375 1.96875q0.625 0.734375 1.765625 0.734375q0.90625 0 1.59375 -0.59375q0.6875 -0.59375 0.859375 -1.484375l2.3125 0q-0.65625 2.046875 -1.8125 3.03125q-1.15625 0.984375 -2.984375 0.984375q-2.1875 0 -3.421875 -1.203125q-1.21875 -1.21875 -1.21875 -3.421875q0 -1.78125 0.75 -3.2499847q0.75 -1.484375 2.046875 -2.28125q1.296875 -0.8125 2.90625 -0.8125zm9.082123 0.25l-0.84375 4.0156097l4.234375 0l0.84375 -4.0156097l2.3125 0l-2.203125 10.468735l-2.328125 0l0.953125 -4.515625l-4.21875 0l-0.96875 4.515625l-2.3125 0l2.21875 -10.468735l2.3125 0zm13.800873 0l1.75 10.468735l-2.28125 0l-0.34375 -2.328125l-3.90625 0l-1.328125 2.328125l-2.421875 0l6.1875 -10.468735l2.34375 0zm-1.609375 2.265625l-2.265625 4.1562347l2.796875 0l-0.515625 -4.1562347l-0.015625 0zm11.602875 -2.265625q1.359375 0 2.125 0.6875q0.78125 0.671875 0.78125 2.046875q0 1.0468597 -0.671875 1.8593597q-0.65625 0.796875 -1.734375 0.96875l0 0.03125q0.515625 0.15625 0.796875 0.59375q0.28125 0.4375 0.28125 1.25q0 0.265625 -0.03125 0.84375q-0.046875 0.578125 -0.046875 0.96875q0 0.390625 0.03125 0.71875q0.046875 0.3125 0.125 0.5l-2.25 0q-0.046875 -0.21875 -0.078125 -0.375q-0.015625 -0.15625 -0.015625 -0.34375q0 -0.390625 0.0625 -1.046875q0.046875 -0.671875 0.046875 -1.046875q0 -0.6875 -0.359375 -0.984375q-0.359375 -0.296875 -1.09375 -0.296875l-2.21875 0l-0.875 4.09375l-2.296875 0l2.203125 -10.468735l5.21875 0zm-3.28125 1.796875l-0.625 2.9374847l2.1875 0q0.953125 0 1.625 -0.421875q0.6875 -0.4375 0.6875 -1.234375q0 -0.64060974 -0.375 -0.95310974q-0.359375 -0.328125 -1.25 -0.328125l-2.25 0zm12.77179 -2.046875q2.0 0 3.203125 0.96875q1.21875 0.953125 1.234375 2.7499847l-2.296875 0q-0.0625 -0.92185974 -0.609375 -1.3437347q-0.53125 -0.4375 -1.515625 -0.4375q-1.0 0 -1.78125 0.578125q-0.78125 0.5625 -1.21875 1.6093597q-0.4375 1.046875 -0.4375 2.203125q0 1.21875 0.609375 1.96875q0.625 0.734375 1.765625 0.734375q1.1875 0 1.875 -0.5625q0.703125 -0.5625 1.03125 -1.6875l-2.421875 0l0.359375 -1.71875l4.4375 0l-1.203125 5.65625l-1.4375 0l0 -1.078125l-0.03125 0q-0.46875 0.65625 -1.15625 1.0q-0.671875 0.328125 -1.5 0.328125q-2.171875 0 -3.40625 -1.203125q-1.21875 -1.21875 -1.21875 -3.421875q0 -1.78125 0.75 -3.2499847q0.75 -1.484375 2.046875 -2.28125q1.296875 -0.8125 2.921875 -0.8125zm14.980377 0.25l-0.390625 1.9375l-5.6875 0l-0.46875 2.2343597l5.265625 0l-0.390625 1.796875l-5.265625 0l-0.53125 2.5625l5.78125 0l-0.421875 1.9375l-8.078125 0l2.203125 -10.468735l7.984375 0z" fill-rule="nonzero"/></g></svg>