<svg version="1.1" viewBox="0.0 0.0 725.5879265091863 486.3228346456693" fill="none" stroke="none" stroke-linecap="square" stroke-miterlimit="10" xmlns:xlink="http://www.w3.org/1999/xlink" xmlns="http://www.w3.org/2000/svg"><clipPath id="p.0"><path d="m0 0l725.58795 0l0 486.32285l-725.58795 0l0 -486.32285z" clip-rule="nonzero"/></clipPath><g clip-path="url(#p.0)"><path fill="#000000" fill-opacity="0.0" d="m0 0l725.58795 0l0 486.32285l-725.58795 0z" fill-rule="evenodd"/><path fill="#000000" fill-opacity="0.0" d="m32.0 32.0l264.0 0l0 165.73228l-264.0 0z" fill-rule="evenodd"/><path stroke="#666666" stroke-width="2.0" stroke-linejoin="round" stroke-linecap="butt" d="m32.0 32.0l264.0 0l0 165.73228l-264.0 0z" fill-rule="evenodd"/><path fill="#ffa000" d="m122.24414 120.35927q3.109375 0 4.984375 1.453125q1.875 1.4375 1.875 4.0625l-3.65625 0q-0.078125 -1.28125 -0.875 -1.921875q-0.796875 -0.65625 -2.484375 -0.65625q-1.140625 0 -1.875 0.5q-0.734375 0.5 -0.734375 1.4375q0 0.640625 0.296875 0.96875q0.3125 0.3125 1.25 0.65625q0.953125 0.34375 4.125 1.09375q2.125 0.515625 3.3125 1.75q1.203125 1.234375 1.203125 3.109375q0 2.484375 -1.859375 4.0q-1.859375 1.5 -5.25 1.5q-3.234375 0 -5.28125 -1.59375q-2.03125 -1.59375 -2.03125 -4.40625l0 -0.09375l3.640625 0q0.03125 1.59375 1.0625 2.390625q1.046875 0.78125 2.734375 0.78125q1.53125 0 2.4375 -0.5625q0.90625 -0.5625 0.90625 -1.578125q0 -0.828125 -0.703125 -1.359375q-0.6875 -0.53125 -2.21875 -0.921875q-1.96875 -0.453125 -3.578125 -0.9375q-1.609375 -0.5 -2.65625 -1.625q-1.046875 -1.125 -1.046875 -2.859375q0 -2.3125 1.84375 -3.75q1.84375 -1.4375 4.578125 -1.4375zm12.824219 0.40625l0 2.8125l-3.421875 0l0 -2.8125l3.421875 0zm0 4.734375l0 12.40625l-3.421875 0l0 -12.40625l3.421875 0zm6.984375 -3.71875l0 3.71875l2.5 0l0 2.28125l-2.5 0l0 6.21875q0 0.765625 0.28125 1.0625q0.296875 0.296875 1.171875 0.296875q0.28125 0 0.546875 -0.015625q0.28125 -0.03125 0.5 -0.078125l0 2.671875q-0.421875 0.0625 -0.953125 0.078125q-0.515625 0.03125 -1.015625 0.03125q-2.21875 0 -3.078125 -0.75q-0.859375 -0.765625 -0.859375 -2.125l0 -7.390625l-2.0625 0l0 -2.28125l2.0625 0l0 -3.71875l3.40625 0zm9.871094 3.390625q2.75 0 4.390625 1.890625q1.65625 1.890625 1.65625 4.828125l-0.015625 0.640625l-8.953125 0q0.0625 1.59375 0.828125 2.375q0.765625 0.765625 2.203125 0.765625q0.921875 0 1.703125 -0.46875q0.796875 -0.46875 1.0 -1.140625l3.0 0q-0.6875 2.109375 -2.140625 3.15625q-1.4375 1.03125 -3.671875 1.03125q-2.875 0 -4.609375 -1.8125q-1.734375 -1.828125 -1.734375 -4.71875q0 -2.78125 1.78125 -4.65625q1.78125 -1.890625 4.5625 -1.890625zm-2.921875 5.203125l5.53125 0q-0.234375 -1.375 -0.875 -2.0q-0.640625 -0.640625 -1.84375 -0.640625q-1.25 0 -1.984375 0.703125q-0.71875 0.703125 -0.828125 1.9375zm20.074219 -4.875l2.296875 8.421875l0.046875 0l2.0625 -8.421875l3.3125 0l2.109375 8.390625l0.046875 0l2.28125 -8.390625l3.5 0l-3.921875 12.40625l-3.484375 0l-2.203125 -8.328125l-0.0625 0l-2.109375 8.328125l-3.53125 0l-3.9375 -12.40625l3.59375 0zm22.832031 -0.328125q2.75 0 4.390625 1.890625q1.65625 1.890625 1.65625 4.828125l-0.015625 0.640625l-8.953125 0q0.0625 1.59375 0.828125 2.375q0.765625 0.765625 2.203125 0.765625q0.921875 0 1.703125 -0.46875q0.796875 -0.46875 1.0 -1.140625l3.0 0q-0.6875 2.109375 -2.140625 3.15625q-1.4375 1.03125 -3.671875 1.03125q-2.875 0 -4.609375 -1.8125q-1.734375 -1.828125 -1.734375 -4.71875q0 -2.78125 1.78125 -4.65625q1.78125 -1.890625 4.5625 -1.890625zm-2.921875 5.203125l5.53125 0q-0.234375 -1.375 -0.875 -2.0q-0.640625 -0.640625 -1.84375 -0.640625q-1.25 0 -1.984375 0.703125q-0.71875 0.703125 -0.828125 1.9375zm14.375 -9.609375l0 6.234375l0.0625 0q0.546875 -0.84375 1.578125 -1.328125q1.03125 -0.5 2.3125 -0.5q2.1875 0 3.671875 1.765625q1.484375 1.75 1.484375 4.75q0 2.984375 -1.484375 4.78125q-1.484375 1.78125 -3.671875 1.78125q-1.5 0 -2.53125 -0.5q-1.03125 -0.5 -1.546875 -1.421875l-0.046875 0l0 1.578125l-3.234375 0l0 -17.140625l3.40625 0zm-0.125 10.953125q0 1.78125 0.78125 2.875q0.796875 1.078125 2.125 1.078125q1.34375 0 2.125 -1.078125q0.78125 -1.09375 0.78125 -2.875q0 -1.796875 -0.765625 -2.890625q-0.765625 -1.09375 -2.15625 -1.09375q-1.296875 0 -2.09375 1.078125q-0.796875 1.0625 -0.796875 2.90625z" fill-rule="nonzero"/><path fill="#666666" d="m32.0 32.0l264.0 0l0 35.086617l-264.0 0z" fill-rule="evenodd"/><path fill="#999999" d="m32.0 50.14173l264.0 0l0 16.944885l-264.0 0z" fill-rule="evenodd"/><path fill="#ffffff" d="m43.12336 55.05512l241.07086 0l0 7.1181107l-241.07086 0z" fill-rule="evenodd"/><path fill="#999999" d="m43.12336 53.051437l3.0708656 -12.283466l54.26772 0l3.0708618 12.283466z" fill-rule="evenodd"/><path fill="#000000" fill-opacity="0.0" d="m542.9554 325.4252l0 0c0 -15.255249 35.114502 -27.62204 78.43042 -27.62204c43.31598 0 78.43048 12.366791 78.43048 27.62204l0 110.48819c0 15.2552185 -35.114502 27.62204 -78.43048 27.62204c-43.315918 0 -78.43042 -12.366821 -78.43042 -27.62204z" fill-rule="evenodd"/><path fill="#000000" fill-opacity="0.0" d="m699.8163 325.4252l0 0c0 15.2552185 -35.114502 27.62204 -78.43048 27.62204c-43.315918 0 -78.43042 -12.366821 -78.43042 -27.62204" fill-rule="evenodd"/><path fill="#000000" fill-opacity="0.0" d="m542.9554 325.4252l0 0c0 -15.255249 35.114502 -27.62204 78.43042 -27.62204c43.31598 0 78.43048 12.366791 78.43048 27.62204l0 110.48819c0 15.2552185 -35.114502 27.62204 -78.43048 27.62204c-43.315918 0 -78.43042 -12.366821 -78.43042 -27.62204z" fill-rule="evenodd"/><path stroke="#666666" stroke-width="2.0" stroke-linejoin="round" stroke-linecap="butt" d="m699.8163 325.4252l0 0c0 15.2552185 -35.114502 27.62204 -78.43048 27.62204c-43.315918 0 -78.43042 -12.366821 -78.43042 -27.62204" fill-rule="evenodd"/><path stroke="#666666" stroke-width="2.0" stroke-linejoin="round" stroke-linecap="butt" d="m542.9554 325.4252l0 0c0 -15.255249 35.114502 -27.62204 78.43042 -27.62204c43.31598 0 78.43048 12.366791 78.43048 27.62204l0 110.48819c0 15.2552185 -35.114502 27.62204 -78.43048 27.62204c-43.315918 0 -78.43042 -12.366821 -78.43042 -27.62204z" fill-rule="evenodd"/><path fill="#ffa000" d="m584.9991 385.8797q2.625 0 3.984375 1.046875q1.359375 1.03125 1.359375 3.1875q0 1.328125 -0.609375 2.203125q-0.609375 0.859375 -1.703125 1.390625q1.546875 0.46875 2.34375 1.578125q0.796875 1.109375 0.796875 2.765625q0 2.359375 -1.71875 3.671875q-1.703125 1.296875 -4.234375 1.296875l-8.40625 0l0 -17.140625l8.1875 0zm-0.53125 6.9375q1.0 0 1.609375 -0.515625q0.625 -0.515625 0.625 -1.515625q0 -1.015625 -0.640625 -1.484375q-0.625 -0.484375 -1.859375 -0.484375l-3.625 0l0 4.0l3.890625 0zm0.234375 7.265625q1.265625 0 1.96875 -0.546875q0.71875 -0.546875 0.71875 -1.703125q0 -1.203125 -0.671875 -1.8125q-0.671875 -0.625 -1.953125 -0.625l-4.1875 0l0 4.6875l4.125 0zm14.3515625 -9.796875q2.75 0 4.09375 0.90625q1.34375 0.890625 1.34375 2.53125l0 6.65625q0 0.75 0.09375 1.5q0.109375 0.75 0.34375 1.140625l-3.46875 0q-0.09375 -0.28125 -0.15625 -0.578125q-0.0625 -0.296875 -0.078125 -0.609375q-0.71875 0.734375 -1.78125 1.140625q-1.0625 0.390625 -2.390625 0.390625q-1.921875 0 -3.078125 -0.96875q-1.140625 -0.96875 -1.140625 -2.765625q0 -1.734375 1.078125 -2.65625q1.078125 -0.921875 3.921875 -1.234375q1.984375 -0.1875 2.609375 -0.484375q0.640625 -0.296875 0.640625 -1.03125q0 -0.84375 -0.5 -1.25q-0.484375 -0.421875 -1.703125 -0.421875q-1.046875 0 -1.609375 0.453125q-0.5625 0.453125 -0.65625 1.421875l-3.40625 0q0.140625 -2.03125 1.671875 -3.078125q1.546875 -1.0625 4.171875 -1.0625zm-2.828125 9.203125q0 0.734375 0.5 1.15625q0.515625 0.421875 1.59375 0.421875q1.359375 0 2.0625 -0.703125q0.703125 -0.71875 0.703125 -2.09375l0 -1.328125q-0.3125 0.25 -0.8125 0.375q-0.5 0.125 -1.796875 0.3125q-1.15625 0.15625 -1.703125 0.609375q-0.546875 0.4375 -0.546875 1.25zm16.0 -9.203125q2.53125 0 3.90625 1.0q1.375 1.0 1.5625 2.9375l-3.25 0q-0.0625 -0.875 -0.65625 -1.265625q-0.578125 -0.40625 -1.671875 -0.40625q-0.984375 0 -1.4375 0.296875q-0.453125 0.296875 -0.453125 0.859375q0 0.5625 0.59375 0.9375q0.59375 0.375 2.390625 0.703125q2.859375 0.5625 3.828125 1.4375q0.984375 0.859375 0.984375 2.265625q0 2.109375 -1.546875 3.21875q-1.53125 1.09375 -4.109375 1.09375q-2.578125 0 -4.15625 -1.09375q-1.578125 -1.109375 -1.6875 -3.28125l3.25 0q0 0.984375 0.734375 1.53125q0.75 0.546875 1.875 0.546875q1.0 0 1.625 -0.421875q0.625 -0.421875 0.625 -1.15625q0 -0.640625 -0.8125 -1.046875q-0.8125 -0.421875 -2.96875 -0.859375q-2.125 -0.421875 -3.078125 -1.203125q-0.953125 -0.796875 -0.953125 -2.125q0 -1.96875 1.390625 -2.96875q1.40625 -1.0 4.015625 -1.0zm13.53125 0q2.75 0 4.390625 1.890625q1.65625 1.890625 1.65625 4.828125l-0.015625 0.640625l-8.953125 0q0.0625 1.59375 0.828125 2.375q0.765625 0.765625 2.203125 0.765625q0.921875 0 1.703125 -0.46875q0.796875 -0.46875 1.0 -1.140625l3.0 0q-0.6875 2.109375 -2.140625 3.15625q-1.4375 1.03125 -3.671875 1.03125q-2.875 0 -4.609375 -1.8125q-1.734375 -1.828125 -1.734375 -4.71875q0 -2.78125 1.78125 -4.65625q1.78125 -1.890625 4.5625 -1.890625zm-2.921875 5.203125l5.53125 0q-0.234375 -1.375 -0.875 -2.0q-0.640625 -0.640625 -1.84375 -0.640625q-1.25 0 -1.984375 0.703125q-0.71875 0.703125 -0.828125 1.9375zm29.730469 -9.609375l0 17.140625l-3.234375 0l0 -1.578125l-0.046875 0q-0.5625 0.9375 -1.53125 1.4375q-0.953125 0.484375 -2.234375 0.484375q-2.546875 0 -4.0625 -1.875q-1.5 -1.875 -1.5 -4.78125q0 -2.765625 1.484375 -4.59375q1.484375 -1.828125 4.0 -1.828125q1.171875 0 2.125 0.46875q0.96875 0.46875 1.546875 1.359375l0.046875 0l0 -6.234375l3.40625 0zm-9.21875 10.921875q0 1.734375 0.8125 2.859375q0.8125 1.125 2.1875 1.125q1.421875 0 2.171875 -1.046875q0.765625 -1.046875 0.765625 -2.953125q0 -1.8125 -0.75 -2.875q-0.734375 -1.0625 -2.203125 -1.0625q-1.40625 0 -2.203125 1.0625q-0.78125 1.0625 -0.78125 2.890625zm17.519531 -6.515625q2.75 0 4.390625 1.890625q1.65625 1.890625 1.65625 4.828125l-0.015625 0.640625l-8.953125 0q0.0625 1.59375 0.828125 2.375q0.765625 0.765625 2.203125 0.765625q0.921875 0 1.703125 -0.46875q0.796875 -0.46875 1.0 -1.140625l3.0 0q-0.6875 2.109375 -2.140625 3.15625q-1.4375 1.03125 -3.671875 1.03125q-2.875 0 -4.609375 -1.8125q-1.734375 -1.828125 -1.734375 -4.71875q0 -2.78125 1.78125 -4.65625q1.78125 -1.890625 4.5625 -1.890625zm-2.921875 5.203125l5.53125 0q-0.234375 -1.375 -0.875 -2.0q-0.640625 -0.640625 -1.84375 -0.640625q-1.25 0 -1.984375 0.703125q-0.71875 0.703125 -0.828125 1.9375z" fill-rule="nonzero"/><path fill="#ffa000" d="m585.66315 414.8797l0 17.140625l-3.234375 0l0 -1.578125l-0.046875 0q-0.5625 0.9375 -1.53125 1.4375q-0.953125 0.484375 -2.234375 0.484375q-2.546875 0 -4.0625 -1.875q-1.5 -1.875 -1.5 -4.78125q0 -2.765625 1.484375 -4.59375q1.484375 -1.828125 4.0 -1.828125q1.171875 0 2.125 0.46875q0.96875 0.46875 1.546875 1.359375l0.046875 0l0 -6.234375l3.40625 0zm-9.21875 10.921875q0 1.734375 0.8125 2.859375q0.8125 1.125 2.1875 1.125q1.421875 0 2.171875 -1.046875q0.765625 -1.046875 0.765625 -2.953125q0 -1.8125 -0.75 -2.875q-0.734375 -1.0625 -2.203125 -1.0625q-1.40625 0 -2.203125 1.0625q-0.78125 1.0625 -0.78125 2.890625zm17.816406 -6.515625q2.921875 0 4.671875 1.796875q1.765625 1.796875 1.765625 4.75q0 2.96875 -1.78125 4.75q-1.78125 1.78125 -4.65625 1.78125q-2.890625 0 -4.65625 -1.796875q-1.75 -1.796875 -1.75 -4.734375q0 -2.9375 1.734375 -4.734375q1.734375 -1.8125 4.671875 -1.8125zm-3.0 6.546875q0 1.953125 0.796875 2.953125q0.8125 1.0 2.203125 1.0q1.453125 0 2.234375 -1.03125q0.78125 -1.03125 0.78125 -2.921875q0 -1.859375 -0.765625 -2.921875q-0.75 -1.0625 -2.28125 -1.0625q-1.359375 0 -2.171875 1.0q-0.796875 0.984375 -0.796875 2.984375zm18.753906 -6.546875q2.375 0 3.4375 1.203125q1.078125 1.1875 1.078125 3.765625l0 7.765625l-3.40625 0l0 -7.109375q0 -1.453125 -0.5 -2.203125q-0.5 -0.75 -1.6875 -0.75q-1.40625 0 -2.03125 0.84375q-0.609375 0.84375 -0.609375 2.59375l0 6.625l-3.40625 0l0 -12.40625l3.234375 0l0 1.734375l0.078125 0q0.625 -1.0 1.609375 -1.53125q1.0 -0.53125 2.203125 -0.53125zm14.2265625 0q2.375 0 3.4375 1.203125q1.078125 1.1875 1.078125 3.765625l0 7.765625l-3.40625 0l0 -7.109375q0 -1.453125 -0.5 -2.203125q-0.5 -0.75 -1.6875 -0.75q-1.40625 0 -2.03125 0.84375q-0.609375 0.84375 -0.609375 2.59375l0 6.625l-3.40625 0l0 -12.40625l3.234375 0l0 1.734375l0.078125 0q0.625 -1.0 1.609375 -1.53125q1.0 -0.53125 2.203125 -0.53125zm12.8359375 0q2.75 0 4.390625 1.890625q1.65625 1.890625 1.65625 4.828125l-0.015625 0.640625l-8.953125 0q0.0625 1.59375 0.828125 2.375q0.765625 0.765625 2.203125 0.765625q0.921875 0 1.703125 -0.46875q0.796875 -0.46875 1.0 -1.140625l3.0 0q-0.6875 2.109375 -2.140625 3.15625q-1.4375 1.03125 -3.671875 1.03125q-2.875 0 -4.609375 -1.8125q-1.734375 -1.828125 -1.734375 -4.71875q0 -2.78125 1.78125 -4.65625q1.78125 -1.890625 4.5625 -1.890625zm-2.921875 5.203125l5.53125 0q-0.234375 -1.375 -0.875 -2.0q-0.640625 -0.640625 -1.84375 -0.640625q-1.25 0 -1.984375 0.703125q-0.71875 0.703125 -0.828125 1.9375zm7.265625 -10.015625l-3.703125 3.40625l-2.375 0l2.296875 -3.40625l3.78125 0zm9.4375 4.8125q2.75 0 4.390625 1.890625q1.65625 1.890625 1.65625 4.828125l-0.015625 0.640625l-8.953125 0q0.0625 1.59375 0.828125 2.375q0.765625 0.765625 2.203125 0.765625q0.921875 0 1.703125 -0.46875q0.796875 -0.46875 1.0 -1.140625l3.0 0q-0.6875 2.109375 -2.140625 3.15625q-1.4375 1.03125 -3.671875 1.03125q-2.875 0 -4.609375 -1.8125q-1.734375 -1.828125 -1.734375 -4.71875q0 -2.78125 1.78125 -4.65625q1.78125 -1.890625 4.5625 -1.890625zm-2.921875 5.203125l5.53125 0q-0.234375 -1.375 -0.875 -2.0q-0.640625 -0.640625 -1.84375 -0.640625q-1.25 0 -1.984375 0.703125q-0.71875 0.703125 -0.828125 1.9375zm16.0625 -5.203125q2.53125 0 3.90625 1.0q1.375 1.0 1.5625 2.9375l-3.25 0q-0.0625 -0.875 -0.65625 -1.265625q-0.578125 -0.40625 -1.671875 -0.40625q-0.984375 0 -1.4375 0.296875q-0.453125 0.296875 -0.453125 0.859375q0 0.5625 0.59375 0.9375q0.59375 0.375 2.390625 0.703125q2.859375 0.5625 3.828125 1.4375q0.984375 0.859375 0.984375 2.265625q0 2.109375 -1.546875 3.21875q-1.53125 1.09375 -4.109375 1.09375q-2.578125 0 -4.15625 -1.09375q-1.578125 -1.109375 -1.6875 -3.28125l3.25 0q0 0.984375 0.734375 1.53125q0.75 0.546875 1.875 0.546875q1.0 0 1.625 -0.421875q0.625 -0.421875 0.625 -1.15625q0 -0.640625 -0.8125 -1.046875q-0.8125 -0.421875 -2.96875 -0.859375q-2.125 -0.421875 -3.078125 -1.203125q-0.953125 -0.796875 -0.953125 -2.125q0 -1.96875 1.390625 -2.96875q1.40625 -1.0 4.015625 -1.0z" fill-rule="nonzero"/><path fill="#000000" fill-opacity="0.0" d="m124.04724 303.49606l0 0c0 -22.065308 17.887466 -39.95276 39.95276 -39.95276l0 0c10.59613 0 20.75827 4.2092896 28.25087 11.701904c7.492584 7.492584 11.701889 17.654724 11.701889 28.250854l0 0c0 22.065308 -17.887466 39.95276 -39.95276 39.95276l0 0c-22.065292 0 -39.95276 -17.887451 -39.95276 -39.95276z" fill-rule="evenodd"/><path stroke="#666666" stroke-width="2.0" stroke-linejoin="round" stroke-linecap="butt" d="m124.04724 303.49606l0 0c0 -22.065308 17.887466 -39.95276 39.95276 -39.95276l0 0c10.59613 0 20.75827 4.2092896 28.25087 11.701904c7.492584 7.492584 11.701889 17.654724 11.701889 28.250854l0 0c0 22.065308 -17.887466 39.95276 -39.95276 39.95276l0 0c-22.065292 0 -39.95276 -17.887451 -39.95276 -39.95276z" fill-rule="evenodd"/><path fill="#000000" fill-opacity="0.0" d="m122.913765 343.44882l82.17248 0c4.995346 0 9.786118 1.9844055 13.318359 5.516632c3.532257 3.532257 5.5166626 8.323029 5.5166626 13.31839l0 94.17285c0 5.493164E-4 -4.5776367E-4 0.0010070801 -0.0010070801 0.0010070801l-119.841515 -0.0010070801l0 0c-5.569458E-4 0 -9.994507E-4 -4.5776367E-4 -9.994507E-4 -0.0010070801l9.994507E-4 -94.171844l0 0c0 -10.402313 8.432724 -18.835022 18.835022 -18.835022z" fill-rule="evenodd"/><path stroke="#666666" stroke-width="2.0" stroke-linejoin="round" stroke-linecap="butt" d="m122.913765 343.44882l82.17248 0c4.995346 0 9.786118 1.9844055 13.318359 5.516632c3.532257 3.532257 5.5166626 8.323029 5.5166626 13.31839l0 94.17285c0 5.493164E-4 -4.5776367E-4 0.0010070801 -0.0010070801 0.0010070801l-119.841515 -0.0010070801l0 0c-5.569458E-4 0 -9.994507E-4 -4.5776367E-4 -9.994507E-4 -0.0010070801l9.994507E-4 -94.171844l0 0c0 -10.402313 8.432724 -18.835022 18.835022 -18.835022z" fill-rule="evenodd"/><path fill="#000000" fill-opacity="0.0" d="m128.07874 391.16534l0 65.29135" fill-rule="evenodd"/><path stroke="#666666" stroke-width="1.0" stroke-linejoin="round" stroke-linecap="butt" d="m128.07874 391.16534l0 65.29135" fill-rule="evenodd"/><path fill="#000000" fill-opacity="0.0" d="m199.92126 391.16534l0 65.29135" fill-rule="evenodd"/><path stroke="#666666" stroke-width="1.0" stroke-linejoin="round" stroke-linecap="butt" d="m199.92126 391.16534l0 65.29135" fill-rule="evenodd"/><path fill="#000000" fill-opacity="0.0" d="m437.5328 0l0 541.5748" fill-rule="evenodd"/><path stroke="#666666" stroke-width="1.0" stroke-linejoin="round" stroke-linecap="butt" stroke-dasharray="1.0,3.0" d="m437.5328 0l0 541.5748" fill-rule="evenodd"/><path fill="#000000" fill-opacity="0.0" d="m565.9109 77.433914l0 0c11.435364 -26.249283 39.703064 -40.890877 67.74066 -35.087044c28.037598 5.803833 48.16974 30.464287 48.244568 59.09619c0.0748291 28.631905 -19.9281 53.39724 -47.934998 59.34754c-28.006897 5.950287 -56.35077 -8.54335 -67.92316 -34.732506l55.34784 -24.456902z" fill-rule="evenodd"/><path stroke="#666666" stroke-width="2.0" stroke-linejoin="round" stroke-linecap="butt" d="m565.9109 77.433914l0 0c11.435364 -26.249283 39.703064 -40.890877 67.74066 -35.087044c28.037598 5.803833 48.16974 30.464287 48.244568 59.09619c0.0748291 28.631905 -19.9281 53.39724 -47.934998 59.34754c-28.006897 5.950287 -56.35077 -8.54335 -67.92316 -34.732506l55.34784 -24.456902z" fill-rule="evenodd"/><path fill="#000000" fill-opacity="0.0" d="m544.9921 161.49475l152.78741 0l0 49.606293l-152.78741 0z" fill-rule="evenodd"/><path fill="#ffa000" d="m585.8526 175.98787q2.921875 0 4.96875 1.65625q2.0625 1.640625 2.40625 4.515625l-3.640625 0q-0.25 -1.359375 -1.34375 -2.171875q-1.078125 -0.828125 -2.40625 -0.828125q-2.203125 0 -3.4375 1.609375q-1.21875 1.609375 -1.21875 4.265625q0 2.546875 1.21875 4.140625q1.21875 1.59375 3.453125 1.59375q1.625 0 2.625 -1.0q1.015625 -1.0 1.25 -2.828125l3.65625 0q-0.328125 3.265625 -2.375 5.140625q-2.046875 1.859375 -5.15625 1.859375q-2.46875 0 -4.40625 -1.125q-1.921875 -1.140625 -2.96875 -3.203125q-1.046875 -2.0625 -1.046875 -4.578125q0 -3.953125 2.296875 -6.5q2.3125 -2.546875 6.125 -2.546875zm16.976562 4.8125q0.21875 0 0.40625 0.03125q0.1875 0.015625 0.359375 0.078125l0 3.171875q-0.296875 -0.0625 -0.578125 -0.09375q-0.265625 -0.03125 -0.640625 -0.03125q-1.71875 0 -2.546875 1.0625q-0.828125 1.046875 -0.828125 2.8125l0 5.703125l-3.40625 0l0 -12.40625l3.234375 0l0 2.296875l0.046875 0q0.546875 -1.21875 1.609375 -1.921875q1.078125 -0.703125 2.34375 -0.703125zm7.8085938 0q2.75 0 4.09375 0.90625q1.34375 0.890625 1.34375 2.53125l0 6.65625q0 0.75 0.09375 1.5q0.109375 0.75 0.34375 1.140625l-3.46875 0q-0.09375 -0.28125 -0.15625 -0.578125q-0.0625 -0.296875 -0.078125 -0.609375q-0.71875 0.734375 -1.78125 1.140625q-1.0625 0.390625 -2.390625 0.390625q-1.921875 0 -3.078125 -0.96875q-1.140625 -0.96875 -1.140625 -2.765625q0 -1.734375 1.078125 -2.65625q1.078125 -0.921875 3.921875 -1.234375q1.984375 -0.1875 2.609375 -0.484375q0.640625 -0.296875 0.640625 -1.03125q0 -0.84375 -0.5 -1.25q-0.484375 -0.421875 -1.703125 -0.421875q-1.046875 0 -1.609375 0.453125q-0.5625 0.453125 -0.65625 1.421875l-3.40625 0q0.140625 -2.03125 1.671875 -3.078125q1.546875 -1.0625 4.171875 -1.0625zm-2.828125 9.203125q0 0.734375 0.5 1.15625q0.515625 0.421875 1.59375 0.421875q1.359375 0 2.0625 -0.703125q0.703125 -0.71875 0.703125 -2.09375l0 -1.328125q-0.3125 0.25 -0.8125 0.375q-0.5 0.125 -1.796875 0.3125q-1.15625 0.15625 -1.703125 0.609375q-0.546875 0.4375 -0.546875 1.25zm13.34375 -8.875l2.296875 8.421875l0.046875 0l2.0625 -8.421875l3.3125 0l2.109375 8.390625l0.046875 0l2.28125 -8.390625l3.5 0l-3.921875 12.40625l-3.484375 0l-2.203125 -8.328125l-0.0625 0l-2.109375 8.328125l-3.53125 0l-3.9375 -12.40625l3.59375 0zm20.613281 -4.734375l0 17.140625l-3.421875 0l0 -17.140625l3.421875 0zm8.40625 4.40625q2.75 0 4.390625 1.890625q1.65625 1.890625 1.65625 4.828125l-0.015625 0.640625l-8.953125 0q0.0625 1.59375 0.828125 2.375q0.765625 0.765625 2.203125 0.765625q0.921875 0 1.703125 -0.46875q0.796875 -0.46875 1.0 -1.140625l3.0 0q-0.6875 2.109375 -2.140625 3.15625q-1.4375 1.03125 -3.671875 1.03125q-2.875 0 -4.609375 -1.8125q-1.734375 -1.828125 -1.734375 -4.71875q0 -2.78125 1.78125 -4.65625q1.78125 -1.890625 4.5625 -1.890625zm-2.921875 5.203125l5.53125 0q-0.234375 -1.375 -0.875 -2.0q-0.640625 -0.640625 -1.84375 -0.640625q-1.25 0 -1.984375 0.703125q-0.71875 0.703125 -0.828125 1.9375zm18.203125 -5.203125q0.21875 0 0.40625 0.03125q0.1875 0.015625 0.359375 0.078125l0 3.171875q-0.296875 -0.0625 -0.578125 -0.09375q-0.265625 -0.03125 -0.640625 -0.03125q-1.71875 0 -2.546875 1.0625q-0.828125 1.046875 -0.828125 2.8125l0 5.703125l-3.40625 0l0 -12.40625l3.234375 0l0 2.296875l0.046875 0q0.546875 -1.21875 1.609375 -1.921875q1.078125 -0.703125 2.34375 -0.703125z" fill-rule="nonzero"/><path fill="#ffffff" d="m355.53635 117.31233l12.078735 -12.078735l0 6.0393677l132.69293 0l0 -6.0393677l12.078705 12.078735l-12.078705 12.078751l0 -6.0393753l-132.69293 0l0 6.0393753z" fill-rule="evenodd"/><path stroke="#666666" stroke-width="2.0" stroke-linejoin="round" stroke-linecap="butt" d="m355.53635 117.31233l12.078735 -12.078735l0 6.0393677l132.69293 0l0 -6.0393677l12.078705 12.078735l-12.078705 12.078751l0 -6.0393753l-132.69293 0l0 6.0393753z" fill-rule="evenodd"/><path fill="#ffffff" d="m355.53635 400.51443l12.078735 -12.078735l0 6.0393677l132.69293 0l0 -6.0393677l12.078705 12.078735l-12.078705 12.078735l0 -6.0393677l-132.69293 0l0 6.0393677z" fill-rule="evenodd"/><path stroke="#666666" stroke-width="2.0" stroke-linejoin="round" stroke-linecap="butt" d="m355.53635 400.51443l12.078735 -12.078735l0 6.0393677l132.69293 0l0 -6.0393677l12.078705 12.078735l-12.078705 12.078735l0 -6.0393677l-132.69293 0l0 6.0393677z" fill-rule="evenodd"/><path fill="#ffffff" d="m621.3858 211.87425l12.078735 12.078751l-6.0393677 0l0 46.614166l6.0393677 0l-12.078735 12.078735l-12.078735 -12.078735l6.0393677 0l0 -46.614166l-6.0393677 0z" fill-rule="evenodd"/><path stroke="#666666" stroke-width="2.0" stroke-linejoin="round" stroke-linecap="butt" d="m621.3858 211.87425l12.078735 12.078751l-6.0393677 0l0 46.614166l6.0393677 0l-12.078735 12.078735l-12.078735 -12.078735l6.0393677 0l0 -46.614166l-6.0393677 0z" fill-rule="evenodd"/><path fill="#ffffff" d="m454.9882 348.7349l-6.704132 -6.0393677l3.0196838 0l0 0c-2.3865967 -10.665955 -10.723938 -18.118103 -20.270264 -18.118103l6.0393677 0l0 0c9.546326 0 17.883667 7.4521484 20.270264 18.118103l3.0196838 0z" fill-rule="evenodd"/><path fill="#cbcbcb" d="m434.05316 324.83005l0 0c-10.286987 1.7302856 -17.915375 11.908997 -17.915375 23.904846l-6.0393677 0l0 0c0 -7.015045 2.6426086 -13.683655 7.240906 -18.27237c4.598297 -4.588745 10.69809 -6.6443176 16.713837 -5.632477z" fill-rule="evenodd"/><path fill="#000000" fill-opacity="0.0" d="m434.05316 324.83005l0 0c-10.286987 1.7302856 -17.915375 11.908997 -17.915375 23.904846l-6.0393677 0l0 0c0 -13.341797 9.372955 -24.15747 20.935059 -24.15747l6.0393677 0l0 0c9.546326 0 17.883667 7.4521484 20.270264 18.118103l3.0196838 0l-5.3746033 6.0393677l-6.704132 -6.0393677l3.0196838 0l0 0c-2.3865967 -10.665955 -10.723938 -18.118103 -20.270264 -18.118103" fill-rule="evenodd"/><path stroke="#666666" stroke-width="2.0" stroke-linejoin="round" stroke-linecap="butt" d="m434.05316 324.83005l0 0c-10.286987 1.7302856 -17.915375 11.908997 -17.915375 23.904846l-6.0393677 0l0 0c0 -13.341797 9.372955 -24.15747 20.935059 -24.15747l6.0393677 0l0 0c9.546326 0 17.883667 7.4521484 20.270264 18.118103l3.0196838 0l-5.3746033 6.0393677l-6.704132 -6.0393677l3.0196838 0l0 0c-2.3865967 -10.665955 -10.723938 -18.118103 -20.270264 -18.118103" fill-rule="evenodd"/><path fill="#ffffff" d="m412.93307 354.7743l6.704132 6.0393677l-3.0196838 0l0 0c2.3865967 10.665955 10.723938 18.118103 20.270264 18.118103l-6.0393677 0l0 0c-9.546326 0 -17.883667 -7.4521484 -20.270264 -18.118103l-3.0196838 0z" fill-rule="evenodd"/><path fill="#cbcbcb" d="m433.8681 378.67914l0 0c10.286987 -1.7302856 17.915375 -11.908997 17.915375 -23.904846l6.0393677 0l0 0c0 7.015045 -2.6426086 13.683655 -7.240906 18.27237c-4.598297 4.588745 -10.69812 6.6443176 -16.713837 5.632477z" fill-rule="evenodd"/><path fill="#000000" fill-opacity="0.0" d="m433.8681 378.67914l0 0c10.286987 -1.7302856 17.915375 -11.908997 17.915375 -23.904846l6.0393677 0l0 0c0 13.341797 -9.372955 24.15747 -20.935059 24.15747l-6.0393677 0l0 0c-9.546326 0 -17.883667 -7.4521484 -20.270264 -18.118103l-3.0196838 0l5.3746033 -6.0393677l6.704132 6.0393677l-3.0196838 0l0 0c2.3865967 10.665955 10.723938 18.118103 20.270264 18.118103" fill-rule="evenodd"/><path stroke="#666666" stroke-width="2.0" stroke-linejoin="round" stroke-linecap="butt" d="m433.8681 378.67914l0 0c10.286987 -1.7302856 17.915375 -11.908997 17.915375 -23.904846l6.0393677 0l0 0c0 13.341797 -9.372955 24.15747 -20.935059 24.15747l-6.0393677 0l0 0c-9.546326 0 -17.883667 -7.4521484 -20.270264 -18.118103l-3.0196838 0l5.3746033 -6.0393677l6.704132 6.0393677l-3.0196838 0l0 0c2.3865967 10.665955 10.723938 18.118103 20.270264 18.118103" fill-rule="evenodd"/></g></svg>